<svg xmlns="http://www.w3.org/2000/svg" viewBox="0 0 300.04 407.26">
  <title>circle-2</title>
  <polygon points="214.98 283.19 197.66 304.25 174.52 318.99 148.06 325.83 120.67 324.17 95.25 314.11 74.09 296.68 59.46 273.65 52.51 247.19 54.27 219.8 64.23 194.38 81.66 173.21 104.8 158.48 131.25 151.63 158.54 153.29 184.06 163.36 205.13 180.79 219.86 203.82 226.71 230.38 225.05 257.67 214.98 283.19" style="fill: none;stroke: #111026;stroke-miterlimit: 10"/>
  <polygon points="214.98 281.49 197.66 302.55 174.52 317.29 148.06 324.13 120.67 322.47 95.25 312.41 74.09 294.98 59.46 271.94 52.51 245.49 54.27 218.1 64.23 192.68 81.66 171.51 104.8 156.78 131.25 149.93 158.54 151.59 184.06 161.66 205.13 179.09 219.86 202.12 226.71 228.68 225.05 255.97 214.98 281.49" style="fill: none;stroke: #111026;stroke-miterlimit: 10"/>
  <polygon points="214.98 279.79 197.66 300.85 174.52 315.58 148.06 322.43 120.67 320.77 95.25 310.71 74.09 293.28 59.46 270.24 52.51 243.79 54.27 216.4 64.23 190.98 81.66 169.81 104.8 155.08 131.25 148.23 158.54 149.89 184.06 159.96 205.13 177.38 219.86 200.42 226.71 226.98 225.05 254.27 214.98 279.79" style="fill: none;stroke: #111026;stroke-miterlimit: 10"/>
  <polygon points="214.98 278.09 197.66 299.15 174.52 313.88 148.06 320.73 120.67 319.07 95.25 309.01 74.09 291.58 59.46 268.54 52.51 242.09 54.27 214.7 64.23 189.28 81.66 168.11 104.8 153.38 131.25 146.53 158.54 148.19 184.06 158.25 205.13 175.68 219.86 198.72 226.71 225.28 225.05 252.57 214.98 278.09" style="fill: none;stroke: #111026;stroke-miterlimit: 10"/>
  <polygon points="214.98 276.39 197.66 297.45 174.52 312.18 148.06 319.03 120.67 317.37 95.25 307.31 74.09 289.88 59.46 266.84 52.51 240.39 54.27 213 64.23 187.57 81.66 166.41 104.8 151.68 131.25 144.83 158.54 146.49 184.06 156.55 205.13 173.98 219.86 197.02 226.71 223.58 225.05 250.87 214.98 276.39" style="fill: none;stroke: #111026;stroke-miterlimit: 10"/>
  <polygon points="214.98 274.69 197.66 295.75 174.52 310.48 148.06 317.33 120.67 315.67 95.25 305.61 74.09 288.18 59.46 265.14 52.51 238.69 54.27 211.29 64.23 185.88 81.66 164.71 104.8 149.98 131.25 143.13 158.54 144.79 184.06 154.85 205.13 172.28 219.86 195.32 226.71 221.88 225.05 249.16 214.98 274.69" style="fill: none;stroke: #111026;stroke-miterlimit: 10"/>
  <polygon points="214.98 272.99 197.66 294.05 174.52 308.78 148.06 315.63 120.67 313.97 95.25 303.9 74.09 286.47 59.46 263.44 52.51 236.98 54.27 209.59 64.23 184.17 81.66 163.01 104.8 148.28 131.25 141.43 158.54 143.09 184.06 153.15 205.13 170.58 219.86 193.62 226.71 220.18 225.05 247.46 214.98 272.99" style="fill: none;stroke: #111026;stroke-miterlimit: 10"/>
  <polygon points="214.98 271.29 197.66 292.35 174.52 307.08 148.06 313.93 120.67 312.27 95.25 302.2 74.09 284.77 59.46 261.74 52.51 235.28 54.27 207.89 64.23 182.47 81.66 161.31 104.8 146.57 131.25 139.73 158.54 141.39 184.06 151.45 205.13 168.88 219.86 191.91 226.71 218.47 225.05 245.76 214.98 271.29" style="fill: none;stroke: #111026;stroke-miterlimit: 10"/>
  <polygon points="214.98 269.58 197.66 290.65 174.52 305.38 148.06 312.23 120.67 310.57 95.25 300.5 74.09 283.07 59.46 260.04 52.51 233.58 54.27 206.19 64.23 180.77 81.66 159.61 104.8 144.87 131.25 138.03 158.54 139.69 184.06 149.75 205.13 167.18 219.86 190.21 226.71 216.78 225.05 244.06 214.98 269.58" style="fill: none;stroke: #111026;stroke-miterlimit: 10"/>
  <polygon points="214.98 267.88 197.66 288.95 174.52 303.68 148.06 310.53 120.67 308.87 95.25 298.8 74.09 281.37 59.46 258.34 52.51 231.88 54.27 204.49 64.23 179.07 81.66 157.91 104.8 143.17 131.25 136.32 158.54 137.99 184.06 148.05 205.13 165.48 219.86 188.51 226.71 215.07 225.05 242.36 214.98 267.88" style="fill: none;stroke: #111026;stroke-miterlimit: 10"/>
  <polygon points="214.98 266.18 197.66 287.25 174.52 301.98 148.06 308.83 120.67 307.17 95.25 297.1 74.09 279.67 59.46 256.64 52.51 230.18 54.27 202.79 64.23 177.37 81.66 156.21 104.8 141.47 131.25 134.62 158.54 136.28 184.06 146.35 205.13 163.78 219.86 186.81 226.71 213.37 225.05 240.66 214.98 266.18" style="fill: none;stroke: #111026;stroke-miterlimit: 10"/>
  <polygon points="214.98 264.48 197.66 285.54 174.52 300.28 148.06 307.13 120.67 305.46 95.25 295.4 74.09 277.97 59.46 254.94 52.51 228.48 54.27 201.09 64.23 175.67 81.66 154.5 104.8 139.77 131.25 132.92 158.54 134.58 184.06 144.65 205.13 162.08 219.86 185.11 226.71 211.67 225.05 238.96 214.98 264.48" style="fill: none;stroke: #111026;stroke-miterlimit: 10"/>
  <polygon points="214.98 262.78 197.66 283.84 174.52 298.58 148.06 305.42 120.67 303.76 95.25 293.7 74.09 276.27 59.46 253.24 52.51 226.78 54.27 199.39 64.23 173.97 81.66 152.8 104.8 138.07 131.25 131.22 158.54 132.88 184.06 142.95 205.13 160.38 219.86 183.41 226.71 209.97 225.05 237.26 214.98 262.78" style="fill: none;stroke: #111026;stroke-miterlimit: 10"/>
  <polygon points="214.98 261.08 197.66 282.14 174.52 296.88 148.06 303.72 120.67 302.06 95.25 292 74.09 274.57 59.46 251.54 52.51 225.08 54.27 197.69 64.23 172.27 81.66 151.1 104.8 136.37 131.25 129.52 158.54 131.18 184.06 141.25 205.13 158.68 219.86 181.71 226.71 208.27 225.05 235.56 214.98 261.08" style="fill: none;stroke: #111026;stroke-miterlimit: 10"/>
  <polygon points="214.98 259.38 197.66 280.44 174.52 295.18 148.06 302.02 120.67 300.36 95.25 290.3 74.09 272.87 59.46 249.84 52.51 223.38 54.27 195.99 64.23 170.57 81.66 149.4 104.8 134.67 131.25 127.82 158.54 129.48 184.06 139.54 205.13 156.98 219.86 180.01 226.71 206.57 225.05 233.86 214.98 259.38" style="fill: none;stroke: #111026;stroke-miterlimit: 10"/>
  <polygon points="214.98 257.68 197.66 278.74 174.52 293.47 148.06 300.32 120.67 298.66 95.25 288.6 74.09 271.17 59.46 248.13 52.51 221.68 54.27 194.29 64.23 168.87 81.66 147.7 104.8 132.97 131.25 126.12 158.54 127.78 184.06 137.84 205.13 155.28 219.86 178.31 226.71 204.87 225.05 232.16 214.98 257.68" style="fill: none;stroke: #111026;stroke-miterlimit: 10"/>
  <polygon points="214.98 255.98 197.66 277.04 174.52 291.77 148.06 298.62 120.67 296.96 95.25 286.9 74.09 269.47 59.46 246.43 52.51 219.98 54.27 192.59 64.23 167.17 81.66 146 104.8 131.27 131.25 124.42 158.54 126.08 184.06 136.14 205.13 153.57 219.86 176.61 226.71 203.17 225.05 230.46 214.98 255.98" style="fill: none;stroke: #111026;stroke-miterlimit: 10"/>
  <polygon points="214.98 254.28 197.66 275.34 174.52 290.07 148.06 296.92 120.67 295.26 95.25 285.2 74.09 267.77 59.46 244.73 52.51 218.28 54.27 190.88 64.23 165.47 81.66 144.3 104.8 129.57 131.25 122.72 158.54 124.38 184.06 134.44 205.13 151.87 219.86 174.91 226.71 201.47 225.05 228.75 214.98 254.28" style="fill: none;stroke: #111026;stroke-miterlimit: 10"/>
  <polygon points="214.98 252.58 197.66 273.64 174.52 288.37 148.06 295.22 120.67 293.56 95.25 283.5 74.09 266.06 59.46 243.03 52.51 216.57 54.27 189.18 64.23 163.76 81.66 142.6 104.8 127.87 131.25 121.02 158.54 122.68 184.06 132.74 205.13 150.17 219.86 173.21 226.71 199.77 225.05 227.05 214.98 252.58" style="fill: none;stroke: #111026;stroke-miterlimit: 10"/>
  <polygon points="214.98 250.88 197.66 271.94 174.52 286.67 148.06 293.52 120.67 291.86 95.25 281.8 74.09 264.36 59.46 241.33 52.51 214.87 54.27 187.48 64.23 162.06 81.66 140.9 104.8 126.17 131.25 119.32 158.54 120.98 184.06 131.04 205.13 148.47 219.86 171.5 226.71 198.07 225.05 225.35 214.98 250.88" style="fill: none;stroke: #111026;stroke-miterlimit: 10"/>
  <polygon points="214.98 249.18 197.66 270.24 174.52 284.97 148.06 291.82 120.67 290.16 95.25 280.09 74.09 262.66 59.46 239.63 52.51 213.17 54.27 185.78 64.23 160.36 81.66 139.2 104.8 124.46 131.25 117.62 158.54 119.28 184.06 129.34 205.13 146.77 219.86 169.8 226.71 196.37 225.05 223.65 214.98 249.18" style="fill: none;stroke: #111026;stroke-miterlimit: 10"/>
  <polygon points="214.98 247.47 197.66 268.54 174.52 283.27 148.06 290.12 120.67 288.46 95.25 278.39 74.09 260.96 59.46 237.93 52.51 211.47 54.27 184.08 64.23 158.66 81.66 137.5 104.8 122.76 131.25 115.92 158.54 117.58 184.06 127.64 205.13 145.07 219.86 168.1 226.71 194.66 225.05 221.95 214.98 247.47" style="fill: none;stroke: #111026;stroke-miterlimit: 10"/>
  <polygon points="214.98 245.77 197.66 266.84 174.52 281.57 148.06 288.42 120.67 286.76 95.25 276.69 74.09 259.26 59.46 236.23 52.51 209.77 54.27 182.38 64.23 156.96 81.66 135.8 104.8 121.06 131.25 114.22 158.54 115.88 184.06 125.94 205.13 143.37 219.86 166.4 226.71 192.96 225.05 220.25 214.98 245.77" style="fill: none;stroke: #111026;stroke-miterlimit: 10"/>
  <polygon points="214.98 244.07 197.66 265.13 174.52 279.87 148.06 286.72 120.67 285.06 95.25 274.99 74.09 257.56 59.46 234.53 52.51 208.07 54.27 180.68 64.23 155.26 81.66 134.09 104.8 119.36 131.25 112.51 158.54 114.17 184.06 124.24 205.13 141.67 219.86 164.7 226.71 191.26 225.05 218.55 214.98 244.07" style="fill: none;stroke: #111026;stroke-miterlimit: 10"/>
  <polygon points="214.98 242.37 197.66 263.43 174.52 278.17 148.06 285.01 120.67 283.36 95.25 273.29 74.09 255.86 59.46 232.83 52.51 206.37 54.27 178.98 64.23 153.56 81.66 132.39 104.8 117.66 131.25 110.81 158.54 112.47 184.06 122.54 205.13 139.97 219.86 163 226.71 189.56 225.05 216.85 214.98 242.37" style="fill: none;stroke: #111026;stroke-miterlimit: 10"/>
  <polygon points="214.98 240.67 197.66 261.73 174.52 276.47 148.06 283.31 120.67 281.65 95.25 271.59 74.09 254.16 59.46 231.13 52.51 204.67 54.27 177.28 64.23 151.86 81.66 130.69 104.8 115.96 131.25 109.11 158.54 110.77 184.06 120.84 205.13 138.27 219.86 161.3 226.71 187.86 225.05 215.15 214.98 240.67" style="fill: none;stroke: #111026;stroke-miterlimit: 10"/>
  <polygon points="214.98 238.97 197.66 260.03 174.52 274.76 148.06 281.61 120.67 279.95 95.25 269.89 74.09 252.46 59.46 229.43 52.51 202.97 54.27 175.58 64.23 150.16 81.66 128.99 104.8 114.26 131.25 107.41 158.54 109.07 184.06 119.14 205.13 136.57 219.86 159.6 226.71 186.16 225.05 213.45 214.98 238.97" style="fill: none;stroke: #111026;stroke-miterlimit: 10"/>
  <polygon points="214.98 237.27 197.66 258.33 174.52 273.06 148.06 279.91 120.67 278.25 95.25 268.19 74.09 250.76 59.46 227.72 52.51 201.27 54.27 173.88 64.23 148.46 81.66 127.29 104.8 112.56 131.25 105.71 158.54 107.37 184.06 117.44 205.13 134.87 219.86 157.9 226.71 184.46 225.05 211.75 214.98 237.27" style="fill: none;stroke: #111026;stroke-miterlimit: 10"/>
  <polygon points="214.98 235.57 197.66 256.63 174.52 271.36 148.06 278.21 120.67 276.55 95.25 266.49 74.09 249.06 59.46 226.02 52.51 199.57 54.27 172.18 64.23 146.76 81.66 125.59 104.8 110.86 131.25 104.01 158.54 105.67 184.06 115.73 205.13 133.16 219.86 156.2 226.71 182.76 225.05 210.05 214.98 235.57" style="fill: none;stroke: #111026;stroke-miterlimit: 10"/>
  <polygon points="214.98 233.87 197.66 254.93 174.52 269.66 148.06 276.51 120.67 274.85 95.25 264.79 74.09 247.36 59.46 224.32 52.51 197.87 54.27 170.47 64.23 145.06 81.66 123.89 104.8 109.16 131.25 102.31 158.54 103.97 184.06 114.03 205.13 131.46 219.86 154.5 226.71 181.06 225.05 208.34 214.98 233.87" style="fill: none;stroke: #111026;stroke-miterlimit: 10"/>
  <polygon points="214.98 232.17 197.66 253.23 174.52 267.96 148.06 274.81 120.67 273.15 95.25 263.09 74.09 245.66 59.46 222.62 52.51 196.16 54.27 168.77 64.23 143.35 81.66 122.19 104.8 107.46 131.25 100.61 158.54 102.27 184.06 112.33 205.13 129.76 219.86 152.8 226.71 179.36 225.05 206.64 214.98 232.17" style="fill: none;stroke: #111026;stroke-miterlimit: 10"/>
  <polygon points="214.98 230.47 197.66 251.53 174.52 266.26 148.06 273.11 120.67 271.45 95.25 261.38 74.09 243.96 59.46 220.92 52.51 194.46 54.27 167.07 64.23 141.65 81.66 120.49 104.8 105.75 131.25 98.91 158.54 100.57 184.06 110.63 205.13 128.06 219.86 151.1 226.71 177.66 225.05 204.94 214.98 230.47" style="fill: none;stroke: #111026;stroke-miterlimit: 10"/>
  <polygon points="214.98 228.77 197.66 249.83 174.52 264.56 148.06 271.41 120.67 269.75 95.25 259.68 74.09 242.25 59.46 219.22 52.51 192.76 54.27 165.37 64.23 139.95 81.66 118.79 104.8 104.06 131.25 97.21 158.54 98.87 184.06 108.93 205.13 126.36 219.86 149.4 226.71 175.96 225.05 203.24 214.98 228.77" style="fill: none;stroke: #111026;stroke-miterlimit: 10"/>
  <polygon points="214.98 227.06 197.66 248.13 174.52 262.86 148.06 269.71 120.67 268.05 95.25 257.98 74.09 240.55 59.46 217.52 52.51 191.06 54.27 163.67 64.23 138.25 81.66 117.09 104.8 102.35 131.25 95.51 158.54 97.17 184.06 107.23 205.13 124.66 219.86 147.69 226.71 174.25 225.05 201.54 214.98 227.06" style="fill: none;stroke: #111026;stroke-miterlimit: 10"/>
  <polygon points="214.98 225.36 197.66 246.43 174.52 261.16 148.06 268.01 120.67 266.35 95.25 256.28 74.09 238.85 59.46 215.82 52.51 189.36 54.27 161.97 64.23 136.55 81.66 115.39 104.8 100.65 131.25 93.81 158.54 95.47 184.06 105.53 205.13 122.96 219.86 145.99 226.71 172.55 225.05 199.84 214.98 225.36" style="fill: none;stroke: #111026;stroke-miterlimit: 10"/>
  <polygon points="214.98 223.66 197.66 244.72 174.52 259.46 148.06 266.31 120.67 264.65 95.25 254.58 74.09 237.15 59.46 214.12 52.51 187.66 54.27 160.27 64.23 134.85 81.66 113.69 104.8 98.95 131.25 92.11 158.54 93.77 184.06 103.83 205.13 121.26 219.86 144.29 226.71 170.85 225.05 198.14 214.98 223.66" style="fill: none;stroke: #111026;stroke-miterlimit: 10"/>
  <polygon points="214.98 221.96 197.66 243.03 174.52 257.76 148.06 264.61 120.67 262.94 95.25 252.88 74.09 235.45 59.46 212.42 52.51 185.96 54.27 158.57 64.23 133.15 81.66 111.98 104.8 97.25 131.25 90.4 158.54 92.06 184.06 102.13 205.13 119.56 219.86 142.59 226.71 169.15 225.05 196.44 214.98 221.96" style="fill: none;stroke: #111026;stroke-miterlimit: 10"/>
  <polygon points="214.98 220.26 197.66 241.32 174.52 256.06 148.06 262.9 120.67 261.24 95.25 251.18 74.09 233.75 59.46 210.72 52.51 184.26 54.27 156.87 64.23 131.45 81.66 110.28 104.8 95.55 131.25 88.7 158.54 90.36 184.06 100.43 205.13 117.86 219.86 140.89 226.71 167.45 225.05 194.74 214.98 220.26" style="fill: none;stroke: #111026;stroke-miterlimit: 10"/>
  <polygon points="214.98 218.56 197.66 239.62 174.52 254.36 148.06 261.2 120.67 259.54 95.25 249.48 74.09 232.05 59.46 209.02 52.51 182.56 54.27 155.17 64.23 129.75 81.66 108.58 104.8 93.85 131.25 87 158.54 88.66 184.06 98.73 205.13 116.16 219.86 139.19 226.71 165.75 225.05 193.04 214.98 218.56" style="fill: none;stroke: #111026;stroke-miterlimit: 10"/>
  <polygon points="214.98 216.86 197.66 237.92 174.52 252.66 148.06 259.5 120.67 257.84 95.25 247.78 74.09 230.35 59.46 207.31 52.51 180.86 54.27 153.47 64.23 128.05 81.66 106.88 104.8 92.15 131.25 85.3 158.54 86.96 184.06 97.03 205.13 114.46 219.86 137.49 226.71 164.05 225.05 191.34 214.98 216.86" style="fill: none;stroke: #111026;stroke-miterlimit: 10"/>
  <polygon points="214.98 215.16 197.66 236.22 174.52 250.95 148.06 257.8 120.67 256.14 95.25 246.08 74.09 228.65 59.46 205.61 52.51 179.16 54.27 151.77 64.23 126.35 81.66 105.18 104.8 90.45 131.25 83.6 158.54 85.26 184.06 95.33 205.13 112.75 219.86 135.79 226.71 162.35 225.05 189.64 214.98 215.16" style="fill: none;stroke: #111026;stroke-miterlimit: 10"/>
  <polygon points="214.98 213.46 197.66 234.52 174.52 249.25 148.06 256.1 120.67 254.44 95.25 244.38 74.09 226.95 59.46 203.91 52.51 177.46 54.27 150.07 64.23 124.65 81.66 103.48 104.8 88.75 131.25 81.9 158.54 83.56 184.06 93.62 205.13 111.06 219.86 134.09 226.71 160.65 225.05 187.94 214.98 213.46" style="fill: none;stroke: #111026;stroke-miterlimit: 10"/>
  <polygon points="214.98 211.76 197.66 232.82 174.52 247.55 148.06 254.4 120.67 252.74 95.25 242.68 74.09 225.25 59.46 202.21 52.51 175.76 54.27 148.37 64.23 122.94 81.66 101.78 104.8 87.05 131.25 80.2 158.54 81.86 184.06 91.92 205.13 109.35 219.86 132.39 226.71 158.95 225.05 186.24 214.98 211.76" style="fill: none;stroke: #111026;stroke-miterlimit: 10"/>
  <polygon points="214.98 210.06 197.66 231.12 174.52 245.85 148.06 252.7 120.67 251.04 95.25 240.98 74.09 223.54 59.46 200.51 52.51 174.06 54.27 146.66 64.23 121.25 81.66 100.08 104.8 85.35 131.25 78.5 158.54 80.16 184.06 90.22 205.13 107.65 219.86 130.69 226.71 157.25 225.05 184.53 214.98 210.06" style="fill: none;stroke: #111026;stroke-miterlimit: 10"/>
  <polygon points="214.98 208.36 197.66 229.42 174.52 244.15 148.06 251 120.67 249.34 95.25 239.28 74.09 221.84 59.46 198.81 52.51 172.35 54.27 144.96 64.23 119.54 81.66 98.38 104.8 83.64 131.25 76.8 158.54 78.46 184.06 88.52 205.13 105.95 219.86 128.99 226.71 155.55 225.05 182.83 214.98 208.36" style="fill: none;stroke: #111026;stroke-miterlimit: 10"/>
  <polygon points="214.98 206.66 197.66 227.72 174.52 242.45 148.06 249.3 120.67 247.64 95.25 237.57 74.09 220.14 59.46 197.11 52.51 170.65 54.27 143.26 64.23 117.84 81.66 96.68 104.8 81.94 131.25 75.1 158.54 76.76 184.06 86.82 205.13 104.25 219.86 127.28 226.71 153.84 225.05 181.13 214.98 206.66" style="fill: none;stroke: #111026;stroke-miterlimit: 10"/>
  <polygon points="214.98 204.96 197.66 226.02 174.52 240.75 148.06 247.6 120.67 245.94 95.25 235.87 74.09 218.44 59.46 195.41 52.51 168.95 54.27 141.56 64.23 116.14 81.66 94.98 104.8 80.24 131.25 73.4 158.54 75.06 184.06 85.12 205.13 102.55 219.86 125.58 226.71 152.15 225.05 179.43 214.98 204.96" style="fill: none;stroke: #111026;stroke-miterlimit: 10"/>
  <polygon points="214.98 203.25 197.66 224.32 174.52 239.05 148.06 245.9 120.67 244.24 95.25 234.17 74.09 216.74 59.46 193.71 52.51 167.25 54.27 139.86 64.23 114.44 81.66 93.28 104.8 78.54 131.25 71.69 158.54 73.36 184.06 83.42 205.13 100.85 219.86 123.88 226.71 150.44 225.05 177.73 214.98 203.25" style="fill: none;stroke: #111026;stroke-miterlimit: 10"/>
  <polygon points="214.98 201.55 197.66 222.62 174.52 237.35 148.06 244.2 120.67 242.54 95.25 232.47 74.09 215.04 59.46 192.01 52.51 165.55 54.27 138.16 64.23 112.74 81.66 91.58 104.8 76.84 131.25 69.99 158.54 71.65 184.06 81.72 205.13 99.15 219.86 122.18 226.71 148.74 225.05 176.03 214.98 201.55" style="fill: none;stroke: #111026;stroke-miterlimit: 10"/>
  <polygon points="214.98 199.85 197.66 220.91 174.52 235.65 148.06 242.5 120.67 240.84 95.25 230.77 74.09 213.34 59.46 190.31 52.51 163.85 54.27 136.46 64.23 111.04 81.66 89.87 104.8 75.14 131.25 68.29 158.54 69.95 184.06 80.02 205.13 97.45 219.86 120.48 226.71 147.04 225.05 174.33 214.98 199.85" style="fill: none;stroke: #111026;stroke-miterlimit: 10"/>
  <polygon points="214.98 198.15 197.66 219.21 174.52 233.95 148.06 240.79 120.67 239.13 95.25 229.07 74.09 211.64 59.46 188.61 52.51 162.15 54.27 134.76 64.23 109.34 81.66 88.17 104.8 73.44 131.25 66.59 158.54 68.25 184.06 78.32 205.13 95.75 219.86 118.78 226.71 145.34 225.05 172.63 214.98 198.15" style="fill: none;stroke: #111026;stroke-miterlimit: 10"/>
  <polygon points="214.98 196.45 197.66 217.51 174.52 232.25 148.06 239.09 120.67 237.43 95.25 227.37 74.09 209.94 59.46 186.91 52.51 160.45 54.27 133.06 64.23 107.64 81.66 86.47 104.8 71.74 131.25 64.89 158.54 66.55 184.06 76.62 205.13 94.05 219.86 117.08 226.71 143.64 225.05 170.93 214.98 196.45" style="fill: none;stroke: #111026;stroke-miterlimit: 10"/>
  <polygon points="214.98 194.75 197.66 215.81 174.52 230.54 148.06 237.39 120.67 235.73 95.25 225.67 74.09 208.24 59.46 185.21 52.51 158.75 54.27 131.36 64.23 105.94 81.66 84.77 104.8 70.04 131.25 63.19 158.54 64.85 184.06 74.92 205.13 92.35 219.86 115.38 226.71 141.94 225.05 169.23 214.98 194.75" style="fill: none;stroke: #111026;stroke-miterlimit: 10"/>
  <polygon points="214.98 193.05 197.66 214.11 174.52 228.84 148.06 235.69 120.67 234.03 95.25 223.97 74.09 206.54 59.46 183.5 52.51 157.05 54.27 129.66 64.23 104.24 81.66 83.07 104.8 68.34 131.25 61.49 158.54 63.15 184.06 73.22 205.13 90.64 219.86 113.68 226.71 140.24 225.05 167.53 214.98 193.05" style="fill: none;stroke: #111026;stroke-miterlimit: 10"/>
  <polygon points="214.98 191.35 197.66 212.41 174.52 227.14 148.06 233.99 120.67 232.33 95.25 222.27 74.09 204.84 59.46 181.8 52.51 155.35 54.27 127.95 64.23 102.54 81.66 81.37 104.8 66.64 131.25 59.79 158.54 61.45 184.06 71.51 205.13 88.94 219.86 111.98 226.71 138.54 225.05 165.82 214.98 191.35" style="fill: none;stroke: #111026;stroke-miterlimit: 10"/>
  <polygon points="214.98 189.65 197.66 210.71 174.52 225.44 148.06 232.29 120.67 230.63 95.25 220.57 74.09 203.14 59.46 180.1 52.51 153.65 54.27 126.25 64.23 100.83 81.66 79.67 104.8 64.94 131.25 58.09 158.54 59.75 184.06 69.81 205.13 87.24 219.86 110.28 226.71 136.84 225.05 164.13 214.98 189.65" style="fill: none;stroke: #111026;stroke-miterlimit: 10"/>
  <polygon points="214.98 187.95 197.66 209.01 174.52 223.74 148.06 230.59 120.67 228.93 95.25 218.87 74.09 201.44 59.46 178.4 52.51 151.94 54.27 124.55 64.23 99.13 81.66 77.97 104.8 63.24 131.25 56.39 158.54 58.05 184.06 68.11 205.13 85.54 219.86 108.58 226.71 135.14 225.05 162.42 214.98 187.95" style="fill: none;stroke: #111026;stroke-miterlimit: 10"/>
  <polygon points="214.98 186.25 197.66 207.31 174.52 222.04 148.06 228.89 120.67 227.23 95.25 217.16 74.09 199.73 59.46 176.7 52.51 150.24 54.27 122.85 64.23 97.43 81.66 76.27 104.8 61.53 131.25 54.69 158.54 56.35 184.06 66.41 205.13 83.84 219.86 106.88 226.71 133.44 225.05 160.72 214.98 186.25" style="fill: none;stroke: #111026;stroke-miterlimit: 10"/>
  <polygon points="214.98 184.54 197.66 205.61 174.52 220.34 148.06 227.19 120.67 225.53 95.25 215.46 74.09 198.03 59.46 175 52.51 148.54 54.27 121.15 64.23 95.73 81.66 74.57 104.8 59.83 131.25 52.99 158.54 54.65 184.06 64.71 205.13 82.14 219.86 105.17 226.71 131.74 225.05 159.02 214.98 184.54" style="fill: none;stroke: #111026;stroke-miterlimit: 10"/>
  <polygon points="214.98 182.84 197.66 203.91 174.52 218.64 148.06 225.49 120.67 223.83 95.25 213.76 74.09 196.33 59.46 173.3 52.51 146.84 54.27 119.45 64.23 94.03 81.66 72.87 104.8 58.13 131.25 51.29 158.54 52.95 184.06 63.01 205.13 80.44 219.86 103.47 226.71 130.03 225.05 157.32 214.98 182.84" style="fill: none;stroke: #111026;stroke-miterlimit: 10"/>
  <polygon points="214.98 181.14 197.66 202.21 174.52 216.94 148.06 223.79 120.67 222.13 95.25 212.06 74.09 194.63 59.46 171.6 52.51 145.14 54.27 117.75 64.23 92.33 81.66 71.17 104.8 56.43 131.25 49.59 158.54 51.24 184.06 61.31 205.13 78.74 219.86 101.77 226.71 128.33 225.05 155.62 214.98 181.14" style="fill: none;stroke: #111026;stroke-miterlimit: 10"/>
  <polygon points="214.98 179.44 197.66 200.5 174.52 215.24 148.06 222.09 120.67 220.43 95.25 210.36 74.09 192.93 59.46 169.9 52.51 143.44 54.27 116.05 64.23 90.63 81.66 69.47 104.8 54.73 131.25 47.88 158.54 49.54 184.06 59.61 205.13 77.04 219.86 100.07 226.71 126.63 225.05 153.92 214.98 179.44" style="fill: none;stroke: #111026;stroke-miterlimit: 10"/>
  <polygon points="214.98 177.74 197.66 198.8 174.52 213.54 148.06 220.38 120.67 218.72 95.25 208.66 74.09 191.23 59.46 168.2 52.51 141.74 54.27 114.35 64.23 88.93 81.66 67.76 104.8 53.03 131.25 46.18 158.54 47.84 184.06 57.91 205.13 75.34 219.86 98.37 226.71 124.93 225.05 152.22 214.98 177.74" style="fill: none;stroke: #111026;stroke-miterlimit: 10"/>
  <polygon points="214.98 176.04 197.66 197.1 174.52 211.84 148.06 218.68 120.67 217.02 95.25 206.96 74.09 189.53 59.46 166.5 52.51 140.04 54.27 112.65 64.23 87.23 81.66 66.06 104.8 51.33 131.25 44.48 158.54 46.14 184.06 56.21 205.13 73.64 219.86 96.67 226.71 123.23 225.05 150.52 214.98 176.04" style="fill: none;stroke: #111026;stroke-miterlimit: 10"/>
  <polygon points="214.98 174.34 197.66 195.4 174.52 210.14 148.06 216.98 120.67 215.32 95.25 205.26 74.09 187.83 59.46 164.79 52.51 138.34 54.27 110.95 64.23 85.53 81.66 64.36 104.8 49.63 131.25 42.78 158.54 44.44 184.06 54.51 205.13 71.94 219.86 94.97 226.71 121.53 225.05 148.82 214.98 174.34" style="fill: none;stroke: #111026;stroke-miterlimit: 10"/>
  <polygon points="214.98 172.64 197.66 193.7 174.52 208.44 148.06 215.28 120.67 213.62 95.25 203.56 74.09 186.13 59.46 163.09 52.51 136.64 54.27 109.25 64.23 83.83 81.66 62.66 104.8 47.93 131.25 41.08 158.54 42.74 184.06 52.8 205.13 70.24 219.86 93.27 226.71 119.83 225.05 147.12 214.98 172.64" style="fill: none;stroke: #111026;stroke-miterlimit: 10"/>
  <polygon points="214.98 170.94 197.66 192 174.52 206.73 148.06 213.58 120.67 211.92 95.25 201.86 74.09 184.43 59.46 161.39 52.51 134.94 54.27 107.55 64.23 82.13 81.66 60.96 104.8 46.23 131.25 39.38 158.54 41.04 184.06 51.1 205.13 68.53 219.86 91.57 226.71 118.13 225.05 145.42 214.98 170.94" style="fill: none;stroke: #111026;stroke-miterlimit: 10"/>
  <polygon points="214.98 169.24 197.66 190.3 174.52 205.03 148.06 211.88 120.67 210.22 95.25 200.16 74.09 182.73 59.46 159.69 52.51 133.24 54.27 105.84 64.23 80.43 81.66 59.26 104.8 44.53 131.25 37.68 158.54 39.34 184.06 49.4 205.13 66.83 219.86 89.87 226.71 116.43 225.05 143.72 214.98 169.24" style="fill: none;stroke: #111026;stroke-miterlimit: 10"/>
  <polygon points="214.98 167.54 197.66 188.6 174.52 203.33 148.06 210.18 120.67 208.52 95.25 198.46 74.09 181.03 59.46 157.99 52.51 131.53 54.27 104.14 64.23 78.72 81.66 57.56 104.8 42.83 131.25 35.98 158.54 37.64 184.06 47.7 205.13 65.13 219.86 88.17 226.71 114.73 225.05 142.01 214.98 167.54" style="fill: none;stroke: #111026;stroke-miterlimit: 10"/>
  <polygon points="214.98 165.84 197.66 186.9 174.52 201.63 148.06 208.48 120.67 206.82 95.25 196.75 74.09 179.32 59.46 156.29 52.51 129.83 54.27 102.44 64.23 77.02 81.66 55.86 104.8 41.13 131.25 34.28 158.54 35.94 184.06 46 205.13 63.43 219.86 86.47 226.71 113.03 225.05 140.31 214.98 165.84" style="fill: none;stroke: #111026;stroke-miterlimit: 10"/>
  <polygon points="214.98 164.14 197.66 185.2 174.52 199.93 148.06 206.78 120.67 205.12 95.25 195.05 74.09 177.62 59.46 154.59 52.51 128.13 54.27 100.74 64.23 75.32 81.66 54.16 104.8 39.42 131.25 32.58 158.54 34.24 184.06 44.3 205.13 61.73 219.86 84.77 226.71 111.33 225.05 138.61 214.98 164.14" style="fill: none;stroke: #111026;stroke-miterlimit: 10"/>
</svg>
