<svg xmlns="http://www.w3.org/2000/svg" viewBox="0 0 841.89 1190.55">
  <title>circle</title>
  <polygon points="268.39 429.08 251.69 449.38 229.4 463.58 203.9 470.18 177.5 468.58 153 458.88 132.59 442.08 118.5 419.88 111.8 394.38 113.5 367.98 123.09 343.48 139.9 323.08 162.19 308.88 187.69 302.28 214 303.88 238.59 313.58 258.89 330.38 273.1 352.58 279.69 378.18 278.1 404.48 268.39 429.08" style="fill: none;stroke: #111026;stroke-miterlimit: 10"/>
  <polygon points="265.5 420.58 248.79 440.88 226.5 455.08 201 461.68 174.59 460.08 150.09 450.38 129.69 433.58 115.59 411.38 108.89 385.88 110.59 359.48 120.19 334.98 137 314.58 159.29 300.38 184.79 293.78 211.09 295.38 235.69 305.08 256 321.88 270.19 344.08 276.8 369.68 275.19 395.98 265.5 420.58" style="fill: none;stroke: #111026;stroke-miterlimit: 10"/>
  <polygon points="262.69 412.08 246 432.38 223.69 446.58 198.19 453.18 171.79 451.58 147.29 441.88 126.89 425.08 112.8 402.88 106.09 377.38 107.8 350.98 117.39 326.48 134.19 306.08 156.5 291.88 182 285.28 208.29 286.88 232.9 296.58 253.19 313.38 267.39 335.58 274 361.18 272.39 387.48 262.69 412.08" style="fill: none;stroke: #111026;stroke-miterlimit: 10"/>
  <polygon points="259.89 403.58 243.19 423.88 220.9 438.08 195.4 444.68 169 443.08 144.5 433.38 124.09 416.58 110 394.38 103.3 368.88 105 342.48 114.59 317.98 131.4 297.58 153.69 283.38 179.19 276.78 205.5 278.38 230.09 288.08 250.4 304.88 264.6 327.08 271.19 352.68 269.6 378.98 259.89 403.58" style="fill: none;stroke: #111026;stroke-miterlimit: 10"/>
  <polygon points="257 395.08 240.29 415.38 218 429.58 192.5 436.18 166.09 434.58 141.59 424.88 121.19 408.08 107.09 385.88 100.39 360.38 102.09 333.98 111.69 309.48 128.5 289.08 150.79 274.88 176.29 268.28 202.59 269.88 227.19 279.58 247.5 296.38 261.69 318.58 268.3 344.18 266.69 370.48 257 395.08" style="fill: none;stroke: #111026;stroke-miterlimit: 10"/>
  <polygon points="254.19 386.58 237.5 406.88 215.19 421.08 189.69 427.68 163.29 426.08 138.79 416.38 118.39 399.58 104.3 377.38 97.59 351.88 99.3 325.48 108.89 300.98 125.69 280.58 148 266.38 173.5 259.78 199.79 261.38 224.4 271.08 244.69 287.88 258.89 310.08 265.5 335.68 263.89 361.98 254.19 386.58" style="fill: none;stroke: #111026;stroke-miterlimit: 10"/>
  <polygon points="251.4 378.08 234.69 398.38 212.4 412.58 186.9 419.18 160.5 417.58 136 407.88 115.59 391.08 101.5 368.88 94.8 343.38 96.5 316.98 106.09 292.48 122.89 272.08 145.19 257.88 170.69 251.28 197 252.88 221.59 262.58 241.9 279.38 256.1 301.58 262.69 327.18 261.1 353.48 251.4 378.08" style="fill: none;stroke: #111026;stroke-miterlimit: 10"/>
  <polygon points="248.5 369.58 231.79 389.88 209.5 404.08 184 410.68 157.59 409.08 133.09 399.38 112.69 382.58 98.59 360.38 91.89 334.88 93.59 308.48 103.19 283.98 120 263.58 142.29 249.38 167.79 242.78 194.09 244.38 218.69 254.08 239 270.88 253.19 293.08 259.8 318.68 258.19 344.98 248.5 369.58" style="fill: none;stroke: #111026;stroke-miterlimit: 10"/>
  <polygon points="245.69 361.08 229 381.38 206.69 395.58 181.19 402.18 154.79 400.58 130.29 390.88 109.89 374.08 95.8 351.88 89.09 326.38 90.8 299.98 100.39 275.48 117.19 255.08 139.5 240.88 165 234.28 191.29 235.88 215.9 245.58 236.19 262.38 250.4 284.58 257 310.18 255.4 336.48 245.69 361.08" style="fill: none;stroke: #111026;stroke-miterlimit: 10"/>
  <polygon points="242.9 352.58 226.19 372.88 203.9 387.08 178.4 393.68 152 392.08 127.5 382.38 107.09 365.58 93 343.38 86.3 317.88 88 291.48 97.59 266.98 114.39 246.58 136.69 232.38 162.19 225.78 188.5 227.38 213.09 237.08 233.4 253.88 247.59 276.08 254.19 301.68 252.59 327.98 242.9 352.58" style="fill: none;stroke: #111026;stroke-miterlimit: 10"/>
  <polygon points="240 344.08 223.29 364.38 201 378.58 175.5 385.18 149.09 383.58 124.59 373.88 104.19 357.08 90.09 334.88 83.39 309.38 85.09 282.98 94.69 258.48 111.5 238.08 133.79 223.88 159.29 217.28 185.59 218.88 210.19 228.58 230.5 245.38 244.69 267.58 251.29 293.18 249.69 319.48 240 344.08" style="fill: none;stroke: #111026;stroke-miterlimit: 10"/>
  <polygon points="237.19 335.58 220.5 355.88 198.19 370.08 172.69 376.68 146.29 375.08 121.8 365.38 101.39 348.58 87.3 326.38 80.59 300.88 82.3 274.48 91.89 249.98 108.69 229.58 131 215.38 156.5 208.78 182.79 210.38 207.4 220.08 227.69 236.88 241.9 259.08 248.5 284.68 246.9 310.98 237.19 335.58" style="fill: none;stroke: #111026;stroke-miterlimit: 10"/>
  <polygon points="234.4 327.08 217.69 347.38 195.4 361.58 169.9 368.18 143.5 366.58 119 356.88 98.59 340.08 84.5 317.88 77.8 292.38 79.5 265.98 89.09 241.48 105.89 221.08 128.19 206.88 153.69 200.28 180 201.88 204.59 211.58 224.9 228.38 239.09 250.58 245.69 276.18 244.09 302.48 234.4 327.08" style="fill: none;stroke: #111026;stroke-miterlimit: 10"/>
  <polygon points="231.5 318.58 214.79 338.88 192.5 353.08 167 359.68 140.59 358.08 116.09 348.38 95.69 331.58 81.59 309.38 74.89 283.88 76.59 257.48 86.19 232.98 103 212.58 125.3 198.38 150.79 191.78 177.09 193.38 201.69 203.08 222 219.88 236.19 242.08 242.79 267.68 241.19 293.98 231.5 318.58" style="fill: none;stroke: #111026;stroke-miterlimit: 10"/>
  <polygon points="228.69 310.08 212 330.38 189.69 344.58 164.19 351.18 137.79 349.58 113.3 339.88 92.89 323.08 78.8 300.88 72.09 275.38 73.8 248.98 83.39 224.48 100.19 204.08 122.5 189.88 148 183.28 174.29 184.88 198.9 194.58 219.19 211.38 233.4 233.58 240 259.18 238.4 285.48 228.69 310.08" style="fill: none;stroke: #111026;stroke-miterlimit: 10"/>
  <polygon points="225.9 301.58 209.19 321.88 186.9 336.08 161.4 342.68 135 341.08 110.5 331.38 90.09 314.58 76 292.38 69.3 266.88 71 240.48 80.59 215.98 97.39 195.58 119.69 181.38 145.19 174.78 171.5 176.38 196.09 186.08 216.4 202.88 230.59 225.08 237.19 250.68 235.59 276.98 225.9 301.58" style="fill: none;stroke: #111026;stroke-miterlimit: 10"/>
  <polygon points="223 293.08 206.29 313.38 184 327.58 158.5 334.18 132.09 332.58 107.59 322.88 87.19 306.08 73.09 283.88 66.39 258.38 68.09 231.98 77.69 207.48 94.5 187.08 116.8 172.88 142.29 166.28 168.59 167.88 193.19 177.58 213.5 194.38 227.69 216.58 234.29 242.18 232.69 268.48 223 293.08" style="fill: none;stroke: #111026;stroke-miterlimit: 10"/>
  <polygon points="220.19 284.58 203.5 304.88 181.19 319.08 155.69 325.68 129.29 324.08 104.8 314.38 84.39 297.58 70.3 275.38 63.59 249.88 65.3 223.48 74.89 198.98 91.69 178.58 114 164.38 139.5 157.78 165.79 159.38 190.4 169.08 210.69 185.88 224.9 208.08 231.5 233.68 229.9 259.98 220.19 284.58" style="fill: none;stroke: #111026;stroke-miterlimit: 10"/>
  <polygon points="217.4 276.08 200.69 296.38 178.4 310.58 152.9 317.18 126.5 315.58 102 305.88 81.59 289.08 67.5 266.88 60.8 241.38 62.49 214.98 72.09 190.48 88.89 170.08 111.19 155.88 136.69 149.28 163 150.88 187.59 160.58 207.9 177.38 222.09 199.58 228.69 225.18 227.09 251.48 217.4 276.08" style="fill: none;stroke: #111026;stroke-miterlimit: 10"/>
  <polygon points="214.5 267.48 197.79 287.78 175.5 301.98 150 308.58 123.59 306.98 99.09 297.28 78.69 280.48 64.59 258.28 57.9 232.78 59.59 206.38 69.19 181.88 86 161.48 108.3 147.28 133.79 140.68 160.09 142.28 184.69 151.98 205 168.78 219.19 190.98 225.79 216.58 224.19 242.88 214.5 267.48" style="fill: none;stroke: #111026;stroke-miterlimit: 10"/>
  <polygon points="211.69 258.98 195 279.28 172.69 293.48 147.19 300.08 120.8 298.48 96.3 288.78 75.89 271.98 61.8 249.78 55.09 224.28 56.8 197.88 66.39 173.38 83.19 152.98 105.5 138.78 131 132.18 157.29 133.78 181.9 143.48 202.19 160.28 216.4 182.48 223 208.08 221.4 234.38 211.69 258.98" style="fill: none;stroke: #111026;stroke-miterlimit: 10"/>
  <polygon points="208.79 250.48 192.09 270.78 169.79 284.98 144.29 291.58 117.89 289.98 93.39 280.28 73 263.48 58.9 241.28 52.2 215.78 53.9 189.38 63.49 164.88 80.3 144.48 102.59 130.28 128.09 123.68 154.4 125.28 179 134.98 199.29 151.78 213.5 173.98 220.09 199.58 218.5 225.88 208.79 250.48" style="fill: none;stroke: #111026;stroke-miterlimit: 10"/>
  <polygon points="206 241.98 189.29 262.28 167 276.48 141.5 283.08 115.09 281.48 90.59 271.78 70.19 254.98 56.09 232.78 49.4 207.28 51.09 180.88 60.7 156.38 77.5 135.98 99.8 121.78 125.3 115.18 151.59 116.78 176.19 126.48 196.5 143.28 210.69 165.48 217.29 191.08 215.69 217.38 206 241.98" style="fill: none;stroke: #111026;stroke-miterlimit: 10"/>
  <polygon points="203.19 233.48 186.5 253.78 164.19 267.98 138.69 274.58 112.3 272.98 87.8 263.28 67.39 246.48 53.3 224.28 46.59 198.78 48.3 172.38 57.9 147.88 74.69 127.48 97 113.28 122.5 106.68 148.79 108.28 173.4 117.98 193.69 134.78 207.9 156.98 214.5 182.58 212.9 208.88 203.19 233.48" style="fill: none;stroke: #111026;stroke-miterlimit: 10"/>
  <polygon points="200.29 224.98 183.59 245.28 161.29 259.48 135.79 266.08 109.39 264.48 84.89 254.78 64.5 237.98 50.4 215.78 43.7 190.28 45.4 163.88 54.99 139.38 71.8 118.98 94.09 104.78 119.59 98.18 145.9 99.78 170.5 109.48 190.79 126.28 205 148.48 211.59 174.08 210 200.38 200.29 224.98" style="fill: none;stroke: #111026;stroke-miterlimit: 10"/>
  <polygon points="197.5 216.48 180.79 236.78 158.5 250.98 133 257.58 106.59 255.98 82.09 246.28 61.7 229.48 47.59 207.28 40.9 181.78 42.59 155.38 52.2 130.88 69 110.48 91.3 96.28 116.8 89.68 143.09 91.28 167.69 100.98 188 117.78 202.19 139.98 208.79 165.58 207.19 191.88 197.5 216.48" style="fill: none;stroke: #111026;stroke-miterlimit: 10"/>
  <polygon points="194.69 207.98 178 228.28 155.69 242.48 130.19 249.08 103.8 247.48 79.3 237.78 58.9 220.98 44.8 198.78 38.09 173.28 39.8 146.88 49.4 122.38 66.19 101.98 88.5 87.78 114 81.18 140.29 82.78 164.9 92.48 185.19 109.28 199.4 131.48 206 157.08 204.4 183.38 194.69 207.98" style="fill: none;stroke: #111026;stroke-miterlimit: 10"/>
  <polygon points="191.79 199.48 175.09 219.78 152.79 233.98 127.3 240.58 100.89 238.98 76.39 229.28 55.99 212.48 41.9 190.28 35.2 164.78 36.9 138.38 46.49 113.88 63.3 93.48 85.59 79.28 111.09 72.68 137.4 74.28 162 83.98 182.29 100.78 196.5 122.98 203.09 148.58 201.5 174.88 191.79 199.48" style="fill: none;stroke: #111026;stroke-miterlimit: 10"/>
  <polygon points="189 190.98 172.29 211.28 150 225.48 124.5 232.08 98.09 230.48 73.59 220.78 53.2 203.98 39.09 181.78 32.4 156.28 34.09 129.88 43.7 105.38 60.49 84.98 82.8 70.78 108.3 64.18 134.59 65.78 159.19 75.48 179.5 92.28 193.69 114.48 200.29 140.08 198.69 166.38 189 190.98" style="fill: none;stroke: #111026;stroke-miterlimit: 10"/>
  <polygon points="186.19 182.48 169.5 202.78 147.19 216.98 121.69 223.58 95.3 221.98 70.8 212.28 50.4 195.48 36.3 173.28 29.59 147.78 31.3 121.38 40.9 96.88 57.7 76.48 80 62.28 105.5 55.68 131.79 57.28 156.4 66.98 176.69 83.78 190.9 105.98 197.5 131.58 195.9 157.88 186.19 182.48" style="fill: none;stroke: #111026;stroke-miterlimit: 10"/>
  <polygon points="183.29 173.98 166.59 194.28 144.29 208.48 118.8 215.08 92.39 213.48 67.89 203.78 47.49 186.98 33.4 164.78 26.7 139.28 28.39 112.88 37.99 88.38 54.8 67.98 77.09 53.78 102.59 47.18 128.9 48.78 153.5 58.48 173.79 75.28 188 97.48 194.59 123.08 193 149.38 183.29 173.98" style="fill: none;stroke: #111026;stroke-miterlimit: 10"/>
  <polygon points="180.5 165.48 163.79 185.78 141.5 199.98 116 206.58 89.59 204.98 65.09 195.28 44.7 178.48 30.59 156.28 23.89 130.78 25.59 104.38 35.2 79.88 51.99 59.48 74.3 45.28 99.8 38.68 126.09 40.28 150.69 49.98 171 66.78 185.19 88.98 191.79 114.58 190.19 140.88 180.5 165.48" style="fill: none;stroke: #111026;stroke-miterlimit: 10"/>
</svg>
