<svg xmlns="http://www.w3.org/2000/svg" viewBox="0 0 300.04 407.26">
  <title>gradient-2</title>
    <polygon points="51.93 272.39 51.93 380.42 160.16 380.42 160.16 272.39 104.2 272.39 51.93 272.39" style="fill: none;stroke: #111026;stroke-linecap: round;stroke-linejoin: round"/>
    <polygon points="57.6 266.72 57.6 374.75 165.83 374.75 165.83 266.72 109.87 266.72 57.6 266.72" style="fill: none;stroke: #111026;stroke-linecap: round;stroke-linejoin: round"/>
    <polygon points="63.27 261.05 63.27 369.08 171.5 369.08 171.5 261.05 115.54 261.05 63.27 261.05" style="fill: none;stroke: #111026;stroke-linecap: round;stroke-linejoin: round"/>
    <polygon points="68.94 255.38 68.94 363.41 177.17 363.41 177.17 255.38 121.21 255.38 68.94 255.38" style="fill: none;stroke: #111026;stroke-linecap: round;stroke-linejoin: round"/>
    <polygon points="74.61 249.71 74.61 357.74 182.84 357.74 182.84 249.71 126.88 249.71 74.61 249.71" style="fill: none;stroke: #111026;stroke-linecap: round;stroke-linejoin: round"/>
    <polygon points="80.28 244.04 80.28 352.07 188.51 352.07 188.51 244.04 132.55 244.04 80.28 244.04" style="fill: none;stroke: #111026;stroke-linecap: round;stroke-linejoin: round"/>
    <polygon points="85.94 238.37 85.94 346.41 194.18 346.41 194.18 238.37 138.22 238.37 85.94 238.37" style="fill: none;stroke: #111026;stroke-linecap: round;stroke-linejoin: round"/>
    <polygon points="91.61 232.7 91.61 340.74 199.85 340.74 199.85 232.7 143.89 232.7 91.61 232.7" style="fill: none;stroke: #111026;stroke-linecap: round;stroke-linejoin: round"/>
    <polygon points="97.28 227.03 97.28 335.07 205.52 335.07 205.52 227.03 149.56 227.03 97.28 227.03" style="fill: none;stroke: #111026;stroke-linecap: round;stroke-linejoin: round"/>
    <polygon points="102.95 221.36 102.95 329.4 211.19 329.4 211.19 221.36 155.23 221.36 102.95 221.36" style="fill: none;stroke: #111026;stroke-linecap: round;stroke-linejoin: round"/>
    <polygon points="108.62 215.69 108.62 323.73 216.86 323.73 216.86 215.69 160.9 215.69 108.62 215.69" style="fill: none;stroke: #111026;stroke-linecap: round;stroke-linejoin: round"/>
    <polygon points="114.29 210.02 114.29 318.06 222.53 318.06 222.53 210.02 166.56 210.02 114.29 210.02" style="fill: none;stroke: #111026;stroke-linecap: round;stroke-linejoin: round"/>
    <polygon points="119.96 204.35 119.96 312.39 228.19 312.39 228.19 204.35 172.23 204.35 119.96 204.35" style="fill: none;stroke: #111026;stroke-linecap: round;stroke-linejoin: round"/>
    <polygon points="125.63 198.69 125.63 306.72 233.86 306.72 233.86 198.69 177.9 198.69 125.63 198.69" style="fill: none;stroke: #111026;stroke-linecap: round;stroke-linejoin: round"/>
    <polygon points="131.3 193.02 131.3 301.05 239.53 301.05 239.53 193.02 183.57 193.02 131.3 193.02" style="fill: none;stroke: #111026;stroke-linecap: round;stroke-linejoin: round"/>
    <polygon points="136.97 187.35 136.97 295.38 245.2 295.38 245.2 187.35 189.24 187.35 136.97 187.35" style="fill: none;stroke: #111026;stroke-linecap: round;stroke-linejoin: round"/>
    <polygon points="142.64 181.68 142.64 289.71 250.87 289.71 250.87 181.68 194.91 181.68 142.64 181.68" style="fill: none;stroke: #111026;stroke-linecap: round;stroke-linejoin: round"/>
    <polygon points="148.31 176.01 148.31 284.04 256.54 284.04 256.54 176.01 200.58 176.01 148.31 176.01" style="fill: none;stroke: #111026;stroke-linecap: round;stroke-linejoin: round"/>
    <polygon points="153.98 170.34 153.98 278.37 262.21 278.37 262.21 170.34 206.25 170.34 153.98 170.34" style="fill: none;stroke: #111026;stroke-linecap: round;stroke-linejoin: round"/>
    <polygon points="159.65 164.67 159.65 272.7 267.88 272.7 267.88 164.67 211.92 164.67 159.65 164.67" style="fill: none;stroke: #111026;stroke-linecap: round;stroke-linejoin: round"/>
    <polygon points="165.31 159 165.31 267.04 273.55 267.04 273.55 159 217.59 159 165.31 159" style="fill: none;stroke: #111026;stroke-linecap: round;stroke-linejoin: round"/>

    <polygon points="32.24 195.37 32.24 303.41 140.47 303.41 140.47 195.37 84.52 195.37 32.24 195.37" style="fill: none;stroke: #111026;stroke-linecap: round;stroke-linejoin: round"/>
    <polygon points="34.23 189.7 34.23 297.74 142.46 297.74 142.46 189.7 86.5 189.7 34.23 189.7" style="fill: none;stroke: #111026;stroke-linecap: round;stroke-linejoin: round"/>
    <polygon points="36.21 184.03 36.21 292.07 144.44 292.07 144.44 184.03 88.48 184.03 36.21 184.03" style="fill: none;stroke: #111026;stroke-linecap: round;stroke-linejoin: round"/>
    <polygon points="38.19 178.37 38.19 286.4 146.43 286.4 146.43 178.37 90.47 178.37 38.19 178.37" style="fill: none;stroke: #111026;stroke-linecap: round;stroke-linejoin: round"/>
    <polygon points="40.18 172.7 40.18 280.73 148.41 280.73 148.41 172.7 92.45 172.7 40.18 172.7" style="fill: none;stroke: #111026;stroke-linecap: round;stroke-linejoin: round"/>
    <polygon points="42.16 167.03 42.16 275.06 150.4 275.06 150.4 167.03 94.44 167.03 42.16 167.03" style="fill: none;stroke: #111026;stroke-linecap: round;stroke-linejoin: round"/>
    <polygon points="44.15 161.36 44.15 269.39 152.38 269.39 152.38 161.36 96.42 161.36 44.15 161.36" style="fill: none;stroke: #111026;stroke-linecap: round;stroke-linejoin: round"/>
    <polygon points="46.13 155.69 46.13 263.72 154.37 263.72 154.37 155.69 98.41 155.69 46.13 155.69" style="fill: none;stroke: #111026;stroke-linecap: round;stroke-linejoin: round"/>
    <polygon points="48.12 150.02 48.12 258.05 156.35 258.05 156.35 150.02 100.39 150.02 48.12 150.02" style="fill: none;stroke: #111026;stroke-linecap: round;stroke-linejoin: round"/>
    <polygon points="50.1 144.35 50.1 252.38 158.33 252.38 158.33 144.35 102.37 144.35 50.1 144.35" style="fill: none;stroke: #111026;stroke-linecap: round;stroke-linejoin: round"/>
    <polygon points="52.08 138.68 52.08 246.72 160.32 246.72 160.32 138.68 104.36 138.68 52.08 138.68" style="fill: none;stroke: #111026;stroke-linecap: round;stroke-linejoin: round"/>
    <polygon points="54.07 133.01 54.07 241.05 162.3 241.05 162.3 133.01 106.34 133.01 54.07 133.01" style="fill: none;stroke: #111026;stroke-linecap: round;stroke-linejoin: round"/>
    <polygon points="56.05 127.34 56.05 235.38 164.29 235.38 164.29 127.34 108.33 127.34 56.05 127.34" style="fill: none;stroke: #111026;stroke-linecap: round;stroke-linejoin: round"/>
    <polygon points="58.04 121.67 58.04 229.71 166.27 229.71 166.27 121.67 110.31 121.67 58.04 121.67" style="fill: none;stroke: #111026;stroke-linecap: round;stroke-linejoin: round"/>
    <polygon points="60.02 116 60.02 224.04 168.25 224.04 168.25 116 112.3 116 60.02 116" style="fill: none;stroke: #111026;stroke-linecap: round;stroke-linejoin: round"/>
    <polygon points="62.01 110.33 62.01 218.37 170.24 218.37 170.24 110.33 114.28 110.33 62.01 110.33" style="fill: none;stroke: #111026;stroke-linecap: round;stroke-linejoin: round"/>
    <polygon points="63.99 104.66 63.99 212.7 172.22 212.7 172.22 104.66 116.26 104.66 63.99 104.66" style="fill: none;stroke: #111026;stroke-linecap: round;stroke-linejoin: round"/>
    <polygon points="65.97 99 65.97 207.03 174.21 207.03 174.21 99 118.25 99 65.97 99" style="fill: none;stroke: #111026;stroke-linecap: round;stroke-linejoin: round"/>
    <polygon points="67.96 93.33 67.96 201.36 176.19 201.36 176.19 93.33 120.23 93.33 67.96 93.33" style="fill: none;stroke: #111026;stroke-linecap: round;stroke-linejoin: round"/>
    <polygon points="69.94 87.66 69.94 195.69 178.18 195.69 178.18 87.66 122.22 87.66 69.94 87.66" style="fill: none;stroke: #111026;stroke-linecap: round;stroke-linejoin: round"/>
    <polygon points="71.93 81.99 71.93 190.02 180.16 190.02 180.16 81.99 124.2 81.99 71.93 81.99" style="fill: none;stroke: #111026;stroke-linecap: round;stroke-linejoin: round"/>
    <polygon points="73.91 76.32 73.91 184.35 182.15 184.35 182.15 76.32 126.19 76.32 73.91 76.32" style="fill: none;stroke: #111026;stroke-linecap: round;stroke-linejoin: round"/>
    <polygon points="75.89 70.65 75.89 178.68 184.13 178.68 184.13 70.65 128.17 70.65 75.89 70.65" style="fill: none;stroke: #111026;stroke-linecap: round;stroke-linejoin: round"/>
    <polygon points="77.88 64.98 77.88 173.01 186.11 173.01 186.11 64.98 130.15 64.98 77.88 64.98" style="fill: none;stroke: #111026;stroke-linecap: round;stroke-linejoin: round"/>
    <polygon points="79.86 59.31 79.86 167.34 188.1 167.34 188.1 59.31 132.14 59.31 79.86 59.31" style="fill: none;stroke: #111026;stroke-linecap: round;stroke-linejoin: round"/>
    <polygon points="81.85 53.64 81.85 161.68 190.08 161.68 190.08 53.64 134.12 53.64 81.85 53.64" style="fill: none;stroke: #111026;stroke-linecap: round;stroke-linejoin: round"/>
</svg>
