<svg xmlns="http://www.w3.org/2000/svg" viewBox="0 0 300.04 407.26">
  <title>gradient</title>
     <polygon points="18.43 136.35 18.43 244.39 126.66 244.39 126.66 136.35 70.7 136.35 18.43 136.35" style="fill: none;stroke: #111026;stroke-linecap: round;stroke-linejoin: round"/>
    <polygon points="24.1 130.68 24.1 238.72 132.33 238.72 132.33 130.68 76.37 130.68 24.1 130.68" style="fill: none;stroke: #111026;stroke-linecap: round;stroke-linejoin: round"/>
    <polygon points="29.77 125.01 29.77 233.05 138 233.05 138 125.01 82.04 125.01 29.77 125.01" style="fill: none;stroke: #111026;stroke-linecap: round;stroke-linejoin: round"/>
    <polygon points="35.44 119.34 35.44 227.38 143.67 227.38 143.67 119.34 87.71 119.34 35.44 119.34" style="fill: none;stroke: #111026;stroke-linecap: round;stroke-linejoin: round"/>
    <polygon points="41.11 113.67 41.11 221.71 149.34 221.71 149.34 113.67 93.38 113.67 41.11 113.67" style="fill: none;stroke: #111026;stroke-linecap: round;stroke-linejoin: round"/>
    <polygon points="46.78 108 46.78 216.04 155.01 216.04 155.01 108 99.05 108 46.78 108" style="fill: none;stroke: #111026;stroke-linecap: round;stroke-linejoin: round"/>
    <polygon points="52.45 102.33 52.45 210.37 160.68 210.37 160.68 102.33 104.72 102.33 52.45 102.33" style="fill: none;stroke: #111026;stroke-linecap: round;stroke-linejoin: round"/>
    <polygon points="58.11 96.67 58.11 204.7 166.35 204.7 166.35 96.67 110.39 96.67 58.11 96.67" style="fill: none;stroke: #111026;stroke-linecap: round;stroke-linejoin: round"/>
    <polygon points="63.78 91 63.78 199.03 172.02 199.03 172.02 91 116.06 91 63.78 91" style="fill: none;stroke: #111026;stroke-linecap: round;stroke-linejoin: round"/>
    <polygon points="69.45 85.33 69.45 193.36 177.69 193.36 177.69 85.33 121.73 85.33 69.45 85.33" style="fill: none;stroke: #111026;stroke-linecap: round;stroke-linejoin: round"/>
    <polygon points="75.12 79.66 75.12 187.69 183.36 187.69 183.36 79.66 127.4 79.66 75.12 79.66" style="fill: none;stroke: #111026;stroke-linecap: round;stroke-linejoin: round"/>
    <polygon points="80.79 73.99 80.79 182.02 189.03 182.02 189.03 73.99 133.07 73.99 80.79 73.99" style="fill: none;stroke: #111026;stroke-linecap: round;stroke-linejoin: round"/>
    <polygon points="86.46 68.32 86.46 176.35 194.69 176.35 194.69 68.32 138.74 68.32 86.46 68.32" style="fill: none;stroke: #111026;stroke-linecap: round;stroke-linejoin: round"/>
    <polygon points="92.13 62.65 92.13 170.69 200.36 170.69 200.36 62.65 144.4 62.65 92.13 62.65" style="fill: none;stroke: #111026;stroke-linecap: round;stroke-linejoin: round"/>
    <polygon points="97.8 56.98 97.8 165.02 206.03 165.02 206.03 56.98 150.07 56.98 97.8 56.98" style="fill: none;stroke: #111026;stroke-linecap: round;stroke-linejoin: round"/>
    <polygon points="103.47 51.31 103.47 159.35 211.7 159.35 211.7 51.31 155.74 51.31 103.47 51.31" style="fill: none;stroke: #111026;stroke-linecap: round;stroke-linejoin: round"/>
    <polygon points="109.14 45.64 109.14 153.68 217.37 153.68 217.37 45.64 161.41 45.64 109.14 45.64" style="fill: none;stroke: #111026;stroke-linecap: round;stroke-linejoin: round"/>
    <polygon points="114.81 39.97 114.81 148.01 223.04 148.01 223.04 39.97 167.08 39.97 114.81 39.97" style="fill: none;stroke: #111026;stroke-linecap: round;stroke-linejoin: round"/>
    <polygon points="120.48 34.3 120.48 142.34 228.71 142.34 228.71 34.3 172.75 34.3 120.48 34.3" style="fill: none;stroke: #111026;stroke-linecap: round;stroke-linejoin: round"/>
    <polygon points="126.15 28.63 126.15 136.67 234.38 136.67 234.38 28.63 178.42 28.63 126.15 28.63" style="fill: none;stroke: #111026;stroke-linecap: round;stroke-linejoin: round"/>
    <polygon points="131.81 22.96 131.81 131 240.05 131 240.05 22.96 184.09 22.96 131.81 22.96" style="fill: none;stroke: #111026;stroke-linecap: round;stroke-linejoin: round"/>
    <polygon points="92.82 244.9 92.82 352.93 201.05 352.93 201.05 244.9 145.09 244.9 92.82 244.9" style="fill: none;stroke: #111026;stroke-linecap: round;stroke-linejoin: round"/>
    <polygon points="95.65 239.23 95.65 347.26 203.88 347.26 203.88 239.23 147.93 239.23 95.65 239.23" style="fill: none;stroke: #111026;stroke-linecap: round;stroke-linejoin: round"/>
    <polygon points="98.49 233.56 98.49 341.59 206.72 341.59 206.72 233.56 150.76 233.56 98.49 233.56" style="fill: none;stroke: #111026;stroke-linecap: round;stroke-linejoin: round"/>
    <polygon points="101.32 227.89 101.32 335.92 209.55 335.92 209.55 227.89 153.59 227.89 101.32 227.89" style="fill: none;stroke: #111026;stroke-linecap: round;stroke-linejoin: round"/>
    <polygon points="104.16 222.22 104.16 330.25 212.39 330.25 212.39 222.22 156.43 222.22 104.16 222.22" style="fill: none;stroke: #111026;stroke-linecap: round;stroke-linejoin: round"/>
    <polygon points="106.99 216.55 106.99 324.59 215.22 324.59 215.22 216.55 159.26 216.55 106.99 216.55" style="fill: none;stroke: #111026;stroke-linecap: round;stroke-linejoin: round"/>
    <polygon points="109.82 210.88 109.82 318.92 218.06 318.92 218.06 210.88 162.1 210.88 109.82 210.88" style="fill: none;stroke: #111026;stroke-linecap: round;stroke-linejoin: round"/>
    <polygon points="112.66 205.21 112.66 313.25 220.89 313.25 220.89 205.21 164.93 205.21 112.66 205.21" style="fill: none;stroke: #111026;stroke-linecap: round;stroke-linejoin: round"/>
    <polygon points="115.49 199.54 115.49 307.58 223.73 307.58 223.73 199.54 167.77 199.54 115.49 199.54" style="fill: none;stroke: #111026;stroke-linecap: round;stroke-linejoin: round"/>
    <polygon points="118.33 193.87 118.33 301.91 226.56 301.91 226.56 193.87 170.6 193.87 118.33 193.87" style="fill: none;stroke: #111026;stroke-linecap: round;stroke-linejoin: round"/>
    <polygon points="121.16 188.2 121.16 296.24 229.4 296.24 229.4 188.2 173.44 188.2 121.16 188.2" style="fill: none;stroke: #111026;stroke-linecap: round;stroke-linejoin: round"/>
    <polygon points="124 182.53 124 290.57 232.23 290.57 232.23 182.53 176.27 182.53 124 182.53" style="fill: none;stroke: #111026;stroke-linecap: round;stroke-linejoin: round"/>
    <polygon points="126.83 176.87 126.83 284.9 235.07 284.9 235.07 176.87 179.11 176.87 126.83 176.87" style="fill: none;stroke: #111026;stroke-linecap: round;stroke-linejoin: round"/>
    <polygon points="129.67 171.2 129.67 279.23 237.9 279.23 237.9 171.2 181.94 171.2 129.67 171.2" style="fill: none;stroke: #111026;stroke-linecap: round;stroke-linejoin: round"/>
    <polygon points="132.5 165.53 132.5 273.56 240.74 273.56 240.74 165.53 184.78 165.53 132.5 165.53" style="fill: none;stroke: #111026;stroke-linecap: round;stroke-linejoin: round"/>
    <polygon points="135.34 159.86 135.34 267.89 243.57 267.89 243.57 159.86 187.61 159.86 135.34 159.86" style="fill: none;stroke: #111026;stroke-linecap: round;stroke-linejoin: round"/>
    <polygon points="138.17 154.19 138.17 262.22 246.41 262.22 246.41 154.19 190.44 154.19 138.17 154.19" style="fill: none;stroke: #111026;stroke-linecap: round;stroke-linejoin: round"/>
    <polygon points="141 148.52 141 256.55 249.24 256.55 249.24 148.52 193.28 148.52 141 148.52" style="fill: none;stroke: #111026;stroke-linecap: round;stroke-linejoin: round"/>
    <polygon points="143.84 142.85 143.84 250.88 252.07 250.88 252.07 142.85 196.11 142.85 143.84 142.85" style="fill: none;stroke: #111026;stroke-linecap: round;stroke-linejoin: round"/>
    <polygon points="146.68 137.18 146.68 245.22 254.91 245.22 254.91 137.18 198.95 137.18 146.68 137.18" style="fill: none;stroke: #111026;stroke-linecap: round;stroke-linejoin: round"/>
    <polygon points="149.51 131.51 149.51 239.55 257.74 239.55 257.74 131.51 201.78 131.51 149.51 131.51" style="fill: none;stroke: #111026;stroke-linecap: round;stroke-linejoin: round"/>
    <polygon points="152.34 125.84 152.34 233.88 260.58 233.88 260.58 125.84 204.62 125.84 152.34 125.84" style="fill: none;stroke: #111026;stroke-linecap: round;stroke-linejoin: round"/>
    <polygon points="155.18 120.17 155.18 228.21 263.41 228.21 263.41 120.17 207.45 120.17 155.18 120.17" style="fill: none;stroke: #111026;stroke-linecap: round;stroke-linejoin: round"/>
    <polygon points="158.01 114.5 158.01 222.54 266.25 222.54 266.25 114.5 210.29 114.5 158.01 114.5" style="fill: none;stroke: #111026;stroke-linecap: round;stroke-linejoin: round"/>
    <polygon points="160.85 108.83 160.85 216.87 269.08 216.87 269.08 108.83 213.12 108.83 160.85 108.83" style="fill: none;stroke: #111026;stroke-linecap: round;stroke-linejoin: round"/>
</svg>
