<svg xmlns="http://www.w3.org/2000/svg" viewBox="0 0 300.04 407.26">
  <title>rings</title>

    <polygon points="186.45 157.25 178.08 167.43 166.9 174.56 154.11 177.87 140.87 177.06 128.58 172.2 118.35 163.77 111.28 152.64 107.92 139.85 108.77 126.61 113.59 114.33 122.01 104.09 133.19 96.97 145.98 93.66 159.17 94.47 171.51 99.33 181.69 107.76 188.81 118.89 192.12 131.73 191.32 144.92 186.45 157.25" style="fill: none;stroke: #111026;stroke-miterlimit: 10"/>
    <polygon points="188.37 158.38 179.56 169.1 167.78 176.6 154.32 180.08 140.39 179.24 127.45 174.12 116.68 165.25 109.24 153.53 105.7 140.07 106.6 126.13 111.67 113.2 120.54 102.43 132.31 94.93 145.77 91.45 159.65 92.29 172.64 97.41 183.36 106.28 190.85 118 194.34 131.51 193.49 145.4 188.37 158.38" style="fill: none;stroke: #111026;stroke-miterlimit: 10"/>
    <polygon points="190.39 159.57 181.11 170.85 168.72 178.75 154.55 182.41 139.88 181.53 126.27 176.13 114.93 166.8 107.09 154.46 103.37 140.29 104.31 125.62 109.65 112.01 118.98 100.67 131.38 92.78 145.55 89.11 160.16 90 173.83 95.39 185.11 104.73 193 117.07 196.67 131.29 195.78 145.91 190.39 159.57" style="fill: none;stroke: #111026;stroke-miterlimit: 10"/>
    <polygon points="192.51 160.83 182.75 172.7 169.7 181.01 154.79 184.87 139.34 183.93 125.01 178.26 113.08 168.43 104.83 155.45 100.92 140.53 101.91 125.09 107.53 110.76 117.35 98.83 130.4 90.52 145.31 86.66 160.69 87.6 175.08 93.27 186.96 103.1 195.26 116.08 199.12 131.06 198.19 146.44 192.51 160.83" style="fill: none;stroke: #111026;stroke-miterlimit: 10"/>
    <polygon points="194.75 162.15 184.47 174.65 170.74 183.39 155.04 187.45 138.78 186.47 123.7 180.5 111.14 170.15 102.46 156.48 98.33 140.78 99.38 124.53 105.29 109.44 115.63 96.88 129.36 88.14 145.06 84.08 161.26 85.06 176.4 91.03 188.9 101.38 197.65 115.05 201.71 130.81 200.72 147 194.75 162.15" style="fill: none;stroke: #111026;stroke-miterlimit: 10"/>
    <polygon points="197.11 163.54 186.28 176.69 171.83 185.9 155.3 190.17 138.19 189.14 122.31 182.85 109.09 171.96 99.95 157.57 95.61 141.05 96.71 123.94 102.93 108.06 113.82 94.84 128.28 85.63 144.8 81.36 161.85 82.39 177.79 88.68 190.95 99.57 200.15 113.95 204.43 130.55 203.39 147.59 197.11 163.54" style="fill: none;stroke: #111026;stroke-miterlimit: 10"/>
    <polygon points="199.58 165 188.19 178.85 172.98 188.53 155.58 193.04 137.57 191.95 120.86 185.33 106.94 173.87 97.32 158.72 92.75 141.32 93.91 123.31 100.46 106.6 111.92 92.68 127.13 82.99 144.53 78.49 162.47 79.58 179.25 86.2 193.1 97.66 202.79 112.81 207.29 130.27 206.2 148.22 199.58 165" style="fill: none;stroke: #111026;stroke-miterlimit: 10"/>
    <polygon points="202.19 166.54 190.2 181.12 174.19 191.31 155.87 196.05 136.91 194.9 119.32 187.94 104.67 175.87 94.54 159.93 89.73 141.62 90.95 122.66 97.85 105.06 109.91 90.41 125.93 80.22 144.24 75.48 163.13 76.63 180.79 83.59 195.37 95.66 205.57 111.6 210.31 129.98 209.16 148.87 202.19 166.54" style="fill: none;stroke: #111026;stroke-miterlimit: 10"/>
    <polygon points="204.94 168.16 192.31 183.5 175.46 194.24 156.18 199.22 136.22 198.01 117.7 190.68 102.28 177.98 91.62 161.2 86.56 141.93 87.84 121.97 95.1 103.45 107.8 88.03 124.66 77.29 143.94 72.3 163.82 73.51 182.41 80.85 197.76 93.55 208.49 110.33 213.48 129.68 212.27 149.56 204.94 168.16" style="fill: none;stroke: #111026;stroke-miterlimit: 10"/>
    <polygon points="207.83 169.86 194.54 186.01 176.8 197.31 156.5 202.56 135.5 201.29 116 193.57 99.77 180.21 88.55 162.54 83.22 142.25 84.57 121.24 92.21 101.75 105.58 85.52 123.32 74.22 143.61 68.96 164.54 70.24 184.12 77.96 200.27 91.32 211.57 108.99 216.82 129.36 215.55 150.29 207.83 169.86" style="fill: none;stroke: #111026;stroke-miterlimit: 10"/>
    <polygon points="210.87 171.66 196.88 188.66 178.21 200.55 156.85 206.08 134.73 204.74 114.21 196.62 97.13 182.54 85.32 163.95 79.7 142.59 81.13 120.48 89.17 99.96 103.24 82.87 121.92 70.98 143.28 65.45 165.31 66.79 185.91 74.91 202.91 88.98 214.81 107.58 220.34 129.02 219 151.05 210.87 171.66" style="fill: none;stroke: #111026;stroke-miterlimit: 10"/>
    <polygon points="214.07 173.54 199.35 191.44 179.69 203.96 157.21 209.78 133.93 208.37 112.33 199.82 94.34 185.01 81.91 165.43 76 142.95 77.5 119.67 85.97 98.07 100.78 80.09 120.44 67.57 142.92 61.75 166.11 63.16 187.8 71.71 205.7 86.52 218.22 106.1 224.04 128.67 222.63 151.85 214.07 173.54" style="fill: none;stroke: #111026;stroke-miterlimit: 10"/>
    <polygon points="217.44 175.53 201.95 194.37 181.25 207.55 157.58 213.68 133.08 212.19 110.34 203.19 91.41 187.6 78.33 166.99 72.11 143.33 73.69 118.83 82.59 96.09 98.19 77.16 118.88 63.98 142.55 57.85 166.96 59.34 189.79 68.34 208.63 83.93 221.81 104.53 227.93 128.29 226.45 152.7 217.44 175.53" style="fill: none;stroke: #111026;stroke-miterlimit: 10"/>
    <polygon points="220.99 177.63 204.68 197.46 182.89 211.33 157.98 217.78 132.19 216.22 108.26 206.74 88.33 190.33 74.55 168.64 68.01 143.73 69.67 117.94 79.05 94 95.46 74.07 117.24 60.2 142.16 53.75 167.85 55.31 191.88 64.79 211.71 81.2 225.59 102.89 232.03 127.9 230.47 153.59 220.99 177.63" style="fill: none;stroke: #111026;stroke-miterlimit: 10"/>
    <polygon points="224.73 179.83 207.56 200.71 184.62 215.31 158.4 222.09 131.25 220.45 106.06 210.47 85.08 193.2 70.58 170.37 63.69 144.15 65.44 117 75.31 91.8 92.59 70.82 115.52 56.22 141.74 49.43 168.79 51.08 194.09 61.05 214.96 78.33 229.56 101.16 236.35 127.49 234.71 154.53 224.73 179.83" style="fill: none;stroke: #111026;stroke-miterlimit: 10"/>
    <polygon points="228.66 182.15 210.58 204.12 186.44 219.49 158.84 226.64 130.26 224.91 103.74 214.41 81.66 196.22 66.4 172.19 59.15 144.59 60.99 116.01 71.38 89.49 89.56 67.41 113.7 52.03 141.31 44.89 169.78 46.62 196.4 57.12 218.38 75.31 233.75 99.34 240.89 127.05 239.16 155.52 228.66 182.15" style="fill: none;stroke: #111026;stroke-miterlimit: 10"/>
    <polygon points="232.8 184.59 213.77 207.72 188.36 223.9 159.31 231.42 129.22 229.6 101.31 218.54 78.06 199.4 62 174.11 54.36 145.05 56.3 114.97 67.24 87.05 86.38 63.81 111.79 47.63 140.85 40.11 170.81 41.93 198.84 52.98 221.98 72.13 238.16 97.42 245.68 126.59 243.85 156.56 232.8 184.59" style="fill: none;stroke: #111026;stroke-miterlimit: 10"/>
    <polygon points="237.16 187.16 217.13 211.51 190.38 228.54 159.79 236.46 128.13 234.54 98.75 222.9 74.28 202.75 57.37 176.13 49.33 145.54 51.37 113.88 62.88 84.49 83.03 60.02 109.78 42.99 140.37 35.07 171.91 36.99 201.41 48.63 225.76 68.78 242.79 95.4 250.71 126.11 248.79 157.65 237.16 187.16" style="fill: none;stroke: #111026;stroke-miterlimit: 10"/>
    <polygon points="241.74 189.86 220.66 215.49 192.5 233.42 160.31 241.75 126.98 239.74 96.05 227.49 70.29 206.28 52.49 178.25 44.03 146.05 46.18 112.72 58.3 81.79 79.51 56.03 107.66 38.11 139.86 29.77 173.06 31.79 204.12 44.04 229.75 65.25 247.68 93.28 256.01 125.6 253.99 158.81 241.74 189.86" style="fill: none;stroke: #111026;stroke-miterlimit: 10"/>
    <polygon points="246.57 192.71 224.38 219.69 194.74 238.56 160.85 247.33 125.77 245.21 93.21 232.32 66.09 209.99 47.35 180.49 38.45 146.6 40.71 111.51 53.47 78.95 75.8 51.84 105.43 32.97 139.32 24.2 174.27 26.32 206.97 39.21 233.95 61.54 252.82 91.04 261.59 125.07 259.46 160.02 246.57 192.71" style="fill: none;stroke: #111026;stroke-miterlimit: 10"/>

    <polygon points="186.45 282.59 178.08 292.77 166.9 299.89 154.11 303.2 140.87 302.4 128.58 297.53 118.35 289.11 111.28 277.97 107.92 265.19 108.77 251.94 113.59 239.66 122.01 229.43 133.19 222.31 145.98 219 159.17 219.8 171.51 224.66 181.69 233.09 188.81 244.22 192.12 257.06 191.32 270.25 186.45 282.59" style="fill: none;stroke: #111026;stroke-miterlimit: 10"/>
    <polygon points="188.37 283.72 179.56 294.43 167.78 301.93 154.32 305.41 140.39 304.57 127.45 299.45 116.68 290.58 109.24 278.86 105.7 265.4 106.6 251.46 111.67 238.53 120.54 227.76 132.31 220.26 145.77 216.78 159.65 217.63 172.64 222.75 183.36 231.62 190.85 243.33 194.34 256.85 193.49 270.73 188.37 283.72" style="fill: none;stroke: #111026;stroke-miterlimit: 10"/>
    <polygon points="190.39 284.91 181.11 296.19 168.72 304.08 154.55 307.75 139.88 306.86 126.27 301.47 114.93 292.13 107.09 279.8 103.37 265.63 104.31 250.96 109.65 237.34 118.98 226.01 131.38 218.12 145.55 214.45 160.16 215.34 173.83 220.73 185.11 230.06 193 242.4 196.67 256.62 195.78 271.24 190.39 284.91" style="fill: none;stroke: #111026;stroke-miterlimit: 10"/>
    <polygon points="192.51 286.16 182.75 298.04 169.7 306.34 154.79 310.2 139.34 309.27 125.01 303.59 113.08 293.77 104.83 280.78 100.92 265.87 101.91 250.42 107.53 236.09 117.35 224.16 130.4 215.85 145.31 211.99 160.69 212.93 175.08 218.6 186.96 228.43 195.26 241.41 199.12 256.39 198.19 271.77 192.51 286.16" style="fill: none;stroke: #111026;stroke-miterlimit: 10"/>
    <polygon points="194.75 287.48 184.47 299.98 170.74 308.72 155.04 312.79 138.78 311.8 123.7 305.83 111.14 295.49 102.46 281.82 98.33 266.12 99.38 249.86 105.29 234.78 115.63 222.22 129.36 213.47 145.06 209.41 161.26 210.39 176.4 216.37 188.9 226.71 197.65 240.38 201.71 256.14 200.72 272.33 194.75 287.48" style="fill: none;stroke: #111026;stroke-miterlimit: 10"/>
    <polygon points="197.11 288.87 186.28 302.03 171.83 311.23 155.3 315.51 138.19 314.47 122.31 308.18 109.09 297.3 99.95 282.91 95.61 266.38 96.71 249.27 102.93 233.39 113.82 220.17 128.28 210.97 144.8 206.69 161.85 207.72 177.79 214.01 190.95 224.9 200.15 239.29 204.43 255.88 203.39 272.93 197.11 288.87" style="fill: none;stroke: #111026;stroke-miterlimit: 10"/>
    <polygon points="199.58 290.33 188.19 304.18 172.98 313.87 155.58 318.37 137.57 317.28 120.86 310.66 106.94 299.2 97.32 284.06 92.75 266.66 93.91 248.65 100.46 231.93 111.92 218.01 127.13 208.33 144.53 203.82 162.47 204.92 179.25 211.53 193.1 223 202.79 238.14 207.29 255.61 206.2 273.55 199.58 290.33" style="fill: none;stroke: #111026;stroke-miterlimit: 10"/>
    <polygon points="202.19 291.87 190.2 306.45 174.19 316.64 155.87 321.38 136.91 320.24 119.32 313.27 104.67 301.21 94.54 285.26 89.73 266.95 90.95 247.99 97.85 230.4 109.91 215.75 125.93 205.55 144.24 200.81 163.13 201.96 180.79 208.93 195.37 220.99 205.57 236.93 210.31 255.32 209.16 274.2 202.19 291.87" style="fill: none;stroke: #111026;stroke-miterlimit: 10"/>
    <polygon points="204.94 293.49 192.31 308.83 175.46 319.57 156.18 324.56 136.22 323.35 117.7 316.02 102.28 303.32 91.62 286.54 86.56 267.26 87.84 247.3 95.1 228.78 107.8 213.36 124.66 202.63 143.94 197.64 163.82 198.85 182.41 206.18 197.76 218.88 208.49 235.66 213.48 255.01 212.27 274.89 204.94 293.49" style="fill: none;stroke: #111026;stroke-miterlimit: 10"/>
    <polygon points="207.83 295.19 194.54 311.35 176.8 322.65 156.5 327.9 135.5 326.63 116 318.91 99.77 305.54 88.55 287.87 83.22 267.58 84.57 246.58 92.21 227.08 105.58 210.85 123.32 199.55 143.61 194.3 164.54 195.57 184.12 203.29 200.27 216.66 211.57 234.32 216.82 254.69 215.55 275.62 207.83 295.19" style="fill: none;stroke: #111026;stroke-miterlimit: 10"/>
    <polygon points="210.87 296.99 196.88 313.99 178.21 325.89 156.85 331.41 134.73 330.07 114.21 321.95 97.13 307.88 85.32 289.28 79.7 267.92 81.13 245.81 89.17 225.29 103.24 208.2 121.92 196.31 143.28 190.78 165.31 192.12 185.91 200.25 202.91 214.32 214.81 232.91 220.34 254.35 219 276.38 210.87 296.99" style="fill: none;stroke: #111026;stroke-miterlimit: 10"/>
    <polygon points="214.07 298.88 199.35 316.78 179.69 329.3 157.21 335.12 133.93 333.7 112.33 325.15 94.34 310.34 81.91 290.77 76 268.28 77.5 245.01 85.97 223.41 100.78 205.42 120.44 192.9 142.92 187.08 166.11 188.49 187.8 197.04 205.7 211.86 218.22 231.43 224.04 254 222.63 277.19 214.07 298.88" style="fill: none;stroke: #111026;stroke-miterlimit: 10"/>
    <polygon points="217.44 300.87 201.95 319.71 181.25 332.88 157.58 339.01 133.08 337.53 110.34 328.52 91.41 312.93 78.33 292.33 72.11 268.66 73.69 244.16 82.59 221.42 98.19 202.49 118.88 189.31 142.55 183.19 166.96 184.67 189.79 193.67 208.63 209.26 221.81 229.87 227.93 253.63 226.45 278.04 217.44 300.87" style="fill: none;stroke: #111026;stroke-miterlimit: 10"/>
    <polygon points="220.99 302.96 204.68 322.79 182.89 336.66 157.98 343.11 132.19 341.55 108.26 332.07 88.33 315.66 74.55 293.97 68.01 269.06 69.67 243.27 79.05 219.33 95.46 199.4 117.24 185.53 142.16 179.08 167.85 180.65 191.88 190.12 211.71 206.54 225.59 228.22 232.03 253.23 230.47 278.93 220.99 302.96" style="fill: none;stroke: #111026;stroke-miterlimit: 10"/>
    <polygon points="224.73 305.16 207.56 326.04 184.62 340.64 158.4 347.43 131.25 345.78 106.06 335.81 85.08 318.53 70.58 295.7 63.69 269.48 65.44 242.33 75.31 217.14 92.59 196.16 115.52 181.56 141.74 174.77 168.79 176.41 194.09 186.39 214.96 203.66 229.56 226.49 236.35 252.82 234.71 279.87 224.73 305.16" style="fill: none;stroke: #111026;stroke-miterlimit: 10"/>
    <polygon points="228.66 307.48 210.58 329.46 186.44 344.83 158.84 351.97 130.26 350.24 103.74 339.74 81.66 321.55 66.4 297.52 59.15 269.92 60.99 241.34 71.38 214.82 89.56 192.74 113.7 177.37 141.31 170.22 169.78 171.96 196.4 182.46 218.38 200.64 233.75 224.67 240.89 252.38 239.16 280.85 228.66 307.48" style="fill: none;stroke: #111026;stroke-miterlimit: 10"/>
    <polygon points="232.8 309.92 213.77 333.05 188.36 349.23 159.31 356.75 129.22 354.93 101.31 343.88 78.06 324.74 62 299.44 54.36 270.38 56.3 240.3 67.24 212.39 86.38 189.14 111.79 172.96 140.85 165.44 170.81 167.26 198.84 178.32 221.98 197.46 238.16 222.75 245.68 251.93 243.85 281.89 232.8 309.92" style="fill: none;stroke: #111026;stroke-miterlimit: 10"/>
    <polygon points="237.16 312.49 217.13 336.84 190.38 353.87 159.79 361.79 128.13 359.87 98.75 348.24 74.28 328.08 57.37 301.46 49.33 270.87 51.37 239.21 62.88 209.82 83.03 185.35 109.78 168.32 140.37 160.41 171.91 162.33 201.41 173.96 225.76 194.11 242.79 220.74 250.71 251.44 248.79 282.99 237.16 312.49" style="fill: none;stroke: #111026;stroke-miterlimit: 10"/>
    <polygon points="241.74 315.2 220.66 340.83 192.5 358.75 160.31 367.09 126.98 365.07 96.05 352.82 70.29 331.61 52.49 303.58 44.03 271.39 46.18 238.06 58.3 207.12 79.51 181.37 107.66 163.44 139.86 155.11 173.06 157.13 204.12 169.37 229.75 190.59 247.68 218.61 256.01 250.93 253.99 284.14 241.74 315.2" style="fill: none;stroke: #111026;stroke-miterlimit: 10"/>
    <polygon points="246.57 318.05 224.38 345.02 194.74 363.89 160.85 372.67 125.77 370.54 93.21 357.65 66.09 335.32 47.35 305.82 38.45 271.93 40.71 236.84 53.47 204.28 75.8 177.17 105.43 158.3 139.32 149.53 174.27 151.66 206.97 164.55 233.95 186.87 252.82 216.38 261.59 250.4 259.46 285.35 246.57 318.05" style="fill: none;stroke: #111026;stroke-miterlimit: 10"/>
</svg>
