<svg xmlns="http://www.w3.org/2000/svg" viewBox="0 0 300.04 407.26">
  <title>sausage-2</title>
  
    <polygon points="217.65 342.96 192.42 355.02 164.54 358.69 136.99 353.59 112.26 340.18 93 319.81 80.89 294.45 77.28 266.71 82.28 239.11 95.79 214.43 116.06 195.13 141.42 183.01 169.3 179.35 196.85 184.45 221.49 197.81 240.84 218.22 252.86 243.54 256.57 271.33 251.42 298.97 238.06 323.61 217.65 342.96" style="fill: none;stroke: #111026;stroke-miterlimit: 10"/>
    <polygon points="218.65 335.73 193.64 348.23 165.82 352.38 138.19 347.76 113.23 334.79 93.62 314.76 81.06 289.61 76.97 261.94 81.49 234.26 94.56 209.34 114.49 189.69 139.64 177.14 167.45 172.99 195.09 177.6 219.95 190.54 239.66 210.61 252.12 235.71 256.31 263.43 251.65 291.16 238.72 316.02 218.65 335.73" style="fill: none;stroke: #111026;stroke-miterlimit: 10"/>
    <polygon points="219.52 328.49 194.73 341.42 167 346.06 139.29 341.92 114.1 329.38 94.14 309.7 81.15 284.77 76.57 257.18 80.61 229.43 93.25 204.28 112.83 184.28 137.76 171.29 165.5 166.66 193.21 170.79 218.29 183.29 238.35 203.01 251.24 227.9 255.92 255.54 251.74 283.35 239.24 308.43 219.52 328.49" style="fill: none;stroke: #111026;stroke-miterlimit: 10"/>
    <polygon points="220.27 321.23 195.71 334.59 168.06 339.71 140.28 336.06 114.88 323.96 94.58 304.63 81.16 279.94 76.1 252.42 79.65 224.6 91.85 199.25 111.08 178.91 135.77 165.48 163.43 160.37 191.2 164.02 216.5 176.07 236.9 195.44 250.23 220.1 255.38 247.65 251.69 275.53 239.64 300.83 220.27 321.23" style="fill: none;stroke: #111026;stroke-miterlimit: 10"/>
    <polygon points="220.89 313.95 196.56 327.75 169.01 333.35 141.17 330.18 115.56 318.53 94.93 299.56 81.08 275.1 75.54 247.68 78.61 219.8 90.36 194.23 109.23 173.56 133.69 159.71 161.25 154.11 189.08 157.28 214.59 168.89 235.32 187.9 249.08 212.32 254.72 239.78 251.51 267.72 239.9 293.22 220.89 313.95" style="fill: none;stroke: #111026;stroke-miterlimit: 10"/>
    <polygon points="221.38 306.67 197.3 320.89 169.85 326.97 141.96 324.29 116.15 313.08 95.19 294.48 80.91 270.26 74.9 242.94 77.48 215.02 88.78 189.25 107.29 168.25 131.5 153.97 158.96 147.89 186.85 150.57 212.55 161.74 233.61 180.39 247.79 204.56 253.91 231.92 251.19 259.91 240.03 285.61 221.38 306.67" style="fill: none;stroke: #111026;stroke-miterlimit: 10"/>
    <polygon points="221.75 299.38 197.92 314.02 170.57 320.57 142.64 318.38 116.65 307.63 95.36 289.39 80.67 265.43 74.17 238.22 76.27 210.25 87.12 184.29 105.26 162.98 129.22 148.28 156.56 141.72 184.49 143.91 210.39 154.63 231.77 172.9 246.37 196.83 252.96 224.07 250.74 252.1 240.02 278 221.75 299.38" style="fill: none;stroke: #111026;stroke-miterlimit: 10"/>
    <polygon points="221.98 292.09 198.42 307.14 171.19 314.17 143.22 312.47 117.04 302.17 95.45 284.3 80.33 260.6 73.37 233.51 74.97 205.51 85.37 179.37 103.13 157.74 126.83 142.62 154.06 135.59 182.03 137.29 208.1 147.55 229.8 165.45 244.81 189.12 251.88 216.25 250.15 244.31 239.88 270.39 221.98 292.09" style="fill: none;stroke: #111026;stroke-miterlimit: 10"/>
    <polygon points="222.09 284.79 198.79 300.25 171.69 307.76 143.7 306.54 117.35 296.7 95.44 279.22 79.92 255.78 72.48 228.82 73.59 200.79 83.53 174.47 100.92 152.53 124.35 137.01 151.45 129.5 179.44 130.71 205.69 140.52 227.7 158.04 243.13 181.44 250.67 208.44 249.42 236.53 239.61 262.79 222.09 284.79" style="fill: none;stroke: #111026;stroke-miterlimit: 10"/>
    <polygon points="222.08 277.49 199.05 293.35 172.09 301.33 144.08 300.61 117.56 291.23 95.35 274.13 79.42 250.97 71.51 224.14 72.13 196.1 81.61 169.6 98.61 147.37 121.77 131.44 148.73 123.46 176.74 124.18 203.16 133.53 225.47 150.66 241.3 173.79 249.31 200.65 248.56 228.76 239.21 255.19 222.08 277.49" style="fill: none;stroke: #111026;stroke-miterlimit: 10"/>
    <polygon points="221.94 270.2 199.19 286.46 172.37 294.91 144.35 294.67 117.67 285.75 95.17 269.05 78.83 246.17 70.45 219.48 70.59 191.43 79.61 164.78 96.21 142.25 119.09 125.91 145.91 117.46 173.93 117.7 200.51 126.59 223.11 143.32 239.35 166.17 247.82 192.89 247.56 221.01 238.67 247.59 221.94 270.2" style="fill: none;stroke: #111026;stroke-miterlimit: 10"/>
    <polygon points="221.66 262.9 199.2 279.56 172.53 288.47 144.52 288.72 117.68 280.28 94.89 263.96 78.16 241.38 69.32 214.84 68.97 186.79 77.52 159.98 93.73 137.17 116.32 120.44 142.99 111.52 171 111.27 197.74 119.69 220.63 136.03 237.26 158.59 246.2 185.16 246.42 213.28 238 240.01 221.66 262.9" style="fill: none;stroke: #111026;stroke-miterlimit: 10"/>
    <polygon points="221.26 255.62 199.1 272.66 172.59 282.04 144.58 282.78 117.6 274.8 94.53 258.89 77.41 236.6 68.11 210.21 67.27 182.18 75.34 155.23 91.16 132.13 113.45 115.01 139.96 105.63 167.97 104.89 194.84 112.84 218.02 128.78 235.04 151.05 244.44 177.46 245.16 205.57 237.21 232.44 221.26 255.62" style="fill: none;stroke: #111026;stroke-miterlimit: 10"/>
    <polygon points="220.74 248.34 198.88 265.76 172.53 275.61 144.54 276.83 117.43 269.33 94.08 253.82 76.57 231.83 66.81 205.61 65.48 177.6 73.09 150.51 88.5 127.14 110.49 109.63 136.83 99.79 164.82 98.56 191.83 106.04 215.28 121.58 232.68 143.54 242.55 169.78 243.75 197.88 236.27 224.89 220.74 248.34" style="fill: none;stroke: #111026;stroke-miterlimit: 10"/>
    <polygon points="220.09 241.07 198.53 258.87 172.36 269.18 144.4 270.89 117.16 263.86 93.55 248.76 75.66 227.08 65.44 201.04 63.62 173.05 70.75 145.83 85.75 122.2 107.43 104.31 133.6 94.01 161.56 92.29 188.7 99.3 212.41 114.42 230.2 136.08 240.52 162.15 242.22 190.22 235.21 217.35 220.09 241.07" style="fill: none;stroke: #111026;stroke-miterlimit: 10"/>
    <polygon points="219.31 233.81 198.06 251.99 172.08 262.75 144.15 264.95 116.79 258.4 92.92 243.71 74.65 222.35 63.98 196.49 61.68 168.54 68.33 141.2 82.92 117.31 104.28 99.04 130.26 88.28 158.19 86.08 185.45 92.61 209.43 107.32 227.59 128.67 238.36 154.54 240.55 182.58 234.01 209.83 219.31 233.81" style="fill: none;stroke: #111026;stroke-miterlimit: 10"/>
    <polygon points="218.4 226.57 197.48 245.12 171.69 256.32 143.8 259.02 116.33 252.94 92.21 238.67 73.57 217.63 62.45 191.96 59.66 164.06 65.83 136.6 80 112.46 101.04 93.83 126.83 82.62 154.72 79.93 182.08 85.98 206.31 100.27 224.84 121.3 236.07 146.98 238.74 174.97 232.69 202.34 218.4 226.57" style="fill: none;stroke: #111026;stroke-miterlimit: 10"/>
    <polygon points="217.37 219.34 196.78 238.25 171.18 249.91 143.35 253.09 115.78 247.49 91.41 233.65 72.4 212.93 60.84 187.46 57.56 159.61 63.26 132.06 76.99 107.67 97.71 88.67 123.3 77.01 151.14 73.84 178.6 79.42 203.08 93.27 221.97 113.97 233.65 139.46 236.81 167.4 231.23 194.87 217.37 219.34" style="fill: none;stroke: #111026;stroke-miterlimit: 10"/>
    <polygon points="216.21 212.14 195.95 231.41 170.57 243.51 142.79 247.17 115.13 242.06 90.52 228.64 71.16 208.26 59.15 182.99 55.38 155.2 60.6 127.55 73.91 102.93 94.29 83.57 119.67 71.47 147.45 67.81 175.01 72.91 199.72 86.34 218.98 106.7 231.09 131.98 234.74 159.87 229.64 187.42 216.21 212.14" style="fill: none;stroke: #111026;stroke-miterlimit: 10"/>
    <polygon points="214.93 204.95 195.01 224.57 169.84 237.11 142.13 241.26 114.38 236.63 89.54 223.65 69.83 203.61 57.38 178.56 53.13 150.84 57.86 123.1 70.74 98.25 90.78 78.53 115.95 65.99 143.66 61.85 171.3 66.46 196.25 79.46 215.85 99.49 228.41 124.55 232.54 152.37 227.93 180.01 214.93 204.95" style="fill: none;stroke: #111026;stroke-miterlimit: 10"/>
    <polygon points="213.52 197.79 193.94 217.75 169 230.74 141.36 235.36 113.54 231.22 88.48 218.67 68.42 198.98 55.53 174.15 50.8 146.51 55.05 118.69 67.49 93.62 87.19 73.56 112.13 60.58 139.76 55.95 167.48 60.08 192.65 72.64 212.6 92.33 225.59 117.17 230.21 144.91 226.08 172.63 213.52 197.79" style="fill: none;stroke: #111026;stroke-miterlimit: 10"/>
    <polygon points="211.99 190.66 192.76 210.96 168.04 224.37 140.5 229.48 112.6 225.83 87.33 213.72 66.93 194.38 53.61 169.77 48.4 142.22 52.16 114.33 64.16 89.05 83.5 68.65 108.22 55.23 135.77 50.12 163.55 53.77 188.94 65.89 209.23 85.22 222.65 109.83 227.75 137.49 224.1 165.28 211.99 190.66" style="fill: none;stroke: #111026;stroke-miterlimit: 10"/>
    <polygon points="210.33 183.55 191.46 204.18 166.98 218.03 139.53 223.62 111.58 220.45 86.09 208.78 65.36 189.8 51.62 165.43 45.92 137.97 49.19 110.03 60.75 84.53 79.73 63.8 104.21 49.96 131.67 44.37 159.51 47.53 185.1 59.2 205.73 78.18 219.58 102.55 225.17 130.11 222 157.96 210.33 183.55" style="fill: none;stroke: #111026;stroke-miterlimit: 10"/>
    <polygon points="208.55 176.47 190.04 197.43 165.81 211.7 138.46 217.77 110.45 215.09 84.77 203.87 63.71 185.25 49.54 161.13 43.37 133.77 46.15 105.77 57.27 80.08 75.88 59.02 100.12 44.75 127.47 38.69 155.37 41.36 181.16 52.59 202.11 71.2 216.38 95.33 222.45 122.78 219.77 150.68 208.55 176.47" style="fill: none;stroke: #111026;stroke-miterlimit: 10"/>
    <polygon points="206.64 169.43 188.51 190.71 164.53 205.4 137.28 211.94 109.24 209.75 83.36 198.98 61.98 180.73 47.39 156.86 40.74 129.62 43.04 101.57 53.7 75.69 71.95 54.31 95.93 39.62 123.17 33.08 151.11 35.27 177.09 46.04 198.37 64.28 213.06 88.16 219.61 115.5 217.42 143.44 206.64 169.43" style="fill: none;stroke: #111026;stroke-miterlimit: 10"/>
    <polygon points="204.62 162.42 186.85 184.01 163.13 199.11 136.01 206.13 107.93 204.43 81.87 194.11 60.17 176.24 45.17 152.63 38.04 125.51 39.85 97.43 50.06 71.36 67.93 49.67 91.65 34.56 118.78 27.54 146.75 29.24 172.92 39.56 194.51 57.43 209.62 81.05 216.63 108.28 214.93 136.25 204.62 162.42" style="fill: none;stroke: #111026;stroke-miterlimit: 10"/>
</svg>
