<svg xmlns="http://www.w3.org/2000/svg" viewBox="0 0 300.04 407.26">
  <title>sausage</title>
    <path d="M273.47,23s-46.67,32.67-32,56,20.67,29.33,10,54.67-50,63.33-18.67,86,50,14,27.31,46-6.52,41.45-34.1,68.67c-13.21,13,16.79,37.33,16.79,37.33" style="fill: none;stroke: #111026;stroke-miterlimit: 10;stroke-width: 0.5px"/>
    <path d="M270.64,23s-46.67,32.67-32,56,20.67,29.33,10,54.67-50,63.33-18.67,86,50,14,27.31,46-6.52,41.45-34.1,68.67C210,347.33,240,371.63,240,371.63" style="fill: none;stroke: #111026;stroke-miterlimit: 10;stroke-width: 0.5px"/>
    <path d="M267.8,23s-46.67,32.67-32,56,20.67,29.33,10,54.67-50,63.33-18.67,86,50,14,27.31,46-6.52,41.45-34.1,68.67c-13.21,13,16.79,37.33,16.79,37.33" style="fill: none;stroke: #111026;stroke-miterlimit: 10;stroke-width: 0.5px"/>
    <path d="M265,23S218.3,55.63,233,79s20.67,29.33,10,54.67-50,63.33-18.67,86,50,14,27.31,46-6.52,41.45-34.1,68.67c-13.21,13,16.79,37.33,16.79,37.33" style="fill: none;stroke: #111026;stroke-miterlimit: 10;stroke-width: 0.5px"/>
    <path d="M262.14,23s-46.67,32.67-32,56,20.67,29.33,10,54.67-50,63.33-18.67,86,50,14,27.31,46-6.52,41.45-34.1,68.67c-13.21,13,16.79,37.33,16.79,37.33" style="fill: none;stroke: #111026;stroke-miterlimit: 10;stroke-width: 0.5px"/>
    <path d="M259.3,23s-46.67,32.67-32,56,20.67,29.33,10,54.67-50,63.33-18.67,86,50,14,27.31,46-6.52,41.45-34.1,68.67c-13.21,13,16.79,37.33,16.79,37.33" style="fill: none;stroke: #111026;stroke-miterlimit: 10;stroke-width: 0.5px"/>
    <path d="M256.47,23s-46.67,32.67-32,56,20.67,29.33,10,54.67-50,63.33-18.67,86,50,14,27.31,46-6.52,41.45-34.1,68.67c-13.21,13,16.79,37.33,16.79,37.33" style="fill: none;stroke: #111026;stroke-miterlimit: 10;stroke-width: 0.5px"/>
    <path d="M253.63,23s-46.67,32.67-32,56,20.67,29.33,10,54.67-50,63.33-18.67,86,50,14,27.31,46-6.52,41.45-34.1,68.67C193,347.33,223,371.63,223,371.63" style="fill: none;stroke: #111026;stroke-miterlimit: 10;stroke-width: 0.5px"/>
    <path d="M250.8,23s-46.67,32.67-32,56,20.67,29.33,10,54.67-50,63.33-18.67,86,50,14,27.31,46-6.52,41.45-34.1,68.67c-13.21,13,16.79,37.33,16.79,37.33" style="fill: none;stroke: #111026;stroke-miterlimit: 10;stroke-width: 0.5px"/>
    <path d="M248,23S201.3,55.63,216,79s20.67,29.33,10,54.67-50,63.33-18.67,86,50,14,27.31,46-6.52,41.45-34.1,68.67c-13.21,13,16.79,37.33,16.79,37.33" style="fill: none;stroke: #111026;stroke-miterlimit: 10;stroke-width: 0.5px"/>
    <path d="M245.13,23s-46.67,32.67-32,56,20.67,29.33,10,54.67-50,63.33-18.67,86,50,14,27.31,46-6.52,41.45-34.1,68.67c-13.21,13,16.79,37.33,16.79,37.33" style="fill: none;stroke: #111026;stroke-miterlimit: 10;stroke-width: 0.5px"/>
    <path d="M242.29,23s-46.67,32.67-32,56,20.67,29.33,10,54.67-50,63.33-18.67,86,50,14,27.31,46-6.52,41.45-34.1,68.67c-13.21,13,16.79,37.33,16.79,37.33" style="fill: none;stroke: #111026;stroke-miterlimit: 10;stroke-width: 0.5px"/>
    <path d="M239.46,23s-46.67,32.67-32,56,20.67,29.33,10,54.67-50,63.33-18.67,86,50,14,27.31,46-6.52,41.45-34.1,68.67c-13.21,13,16.79,37.33,16.79,37.33" style="fill: none;stroke: #111026;stroke-miterlimit: 10;stroke-width: 0.5px"/>
    <path d="M236.62,23s-46.67,32.67-32,56,20.67,29.33,10,54.67-50,63.33-18.67,86,50,14,27.31,46-6.52,41.45-34.1,68.67C176,347.33,206,371.63,206,371.63" style="fill: none;stroke: #111026;stroke-miterlimit: 10;stroke-width: 0.5px"/>
    <path d="M233.79,23s-46.67,32.67-32,56,20.67,29.33,10,54.67-50,63.33-18.67,86,50,14,27.31,46-6.52,41.45-34.1,68.67c-13.21,13,16.79,37.33,16.79,37.33" style="fill: none;stroke: #111026;stroke-miterlimit: 10;stroke-width: 0.5px"/>
    <path d="M231,23s-46.67,32.67-32,56,20.67,29.33,10,54.67-50,63.33-18.67,86,50,14,27.31,46-6.52,41.45-34.1,68.67c-13.21,13,16.79,37.33,16.79,37.33" style="fill: none;stroke: #111026;stroke-miterlimit: 10;stroke-width: 0.5px"/>
    <path d="M228.12,23s-46.67,32.67-32,56,20.67,29.33,10,54.67-50,63.33-18.67,86,50,14,27.31,46-6.52,41.45-34.1,68.67c-13.21,13,16.79,37.33,16.79,37.33" style="fill: none;stroke: #111026;stroke-miterlimit: 10;stroke-width: 0.5px"/>
    <path d="M225.29,23s-46.67,32.67-32,56,20.67,29.33,10,54.67-50,63.33-18.67,86,50,14,27.31,46-6.52,41.45-34.1,68.67c-13.21,13,16.79,37.33,16.79,37.33" style="fill: none;stroke: #111026;stroke-miterlimit: 10;stroke-width: 0.5px"/>
    <path d="M222.45,23s-46.67,32.67-32,56,20.67,29.33,10,54.67-50,63.33-18.67,86,50,14,27.31,46-6.52,41.45-34.1,68.67c-13.21,13,16.79,37.33,16.79,37.33" style="fill: none;stroke: #111026;stroke-miterlimit: 10;stroke-width: 0.5px"/>
    <path d="M219.62,23s-46.67,32.67-32,56,20.67,29.33,10,54.67-50,63.33-18.67,86,50,14,27.31,46-6.52,41.45-34.1,68.67c-13.21,13,16.79,37.33,16.79,37.33" style="fill: none;stroke: #111026;stroke-miterlimit: 10;stroke-width: 0.5px"/>
    <path d="M216.78,23s-46.67,32.67-32,56,20.67,29.33,10,54.67-50,63.33-18.67,86,50,14,27.31,46-6.52,41.45-34.1,68.67c-13.21,13,16.79,37.33,16.79,37.33" style="fill: none;stroke: #111026;stroke-miterlimit: 10;stroke-width: 0.5px"/>
    <path d="M213.95,23s-46.67,32.67-32,56,20.67,29.33,10,54.67-50,63.33-18.67,86,50,14,27.31,46-6.52,41.45-34.1,68.67c-13.21,13,16.79,37.33,16.79,37.33" style="fill: none;stroke: #111026;stroke-miterlimit: 10;stroke-width: 0.5px"/>
    <path d="M211.11,23s-46.67,32.67-32,56,20.67,29.33,10,54.67-50,63.33-18.67,86,50,14,27.31,46-6.52,41.45-34.1,68.67c-13.21,13,16.79,37.33,16.79,37.33" style="fill: none;stroke: #111026;stroke-miterlimit: 10;stroke-width: 0.5px"/>
    <path d="M208.28,23s-46.67,32.67-32,56,20.67,29.33,10,54.67-50,63.33-18.67,86,50,14,27.31,46-6.52,41.45-34.1,68.67c-13.21,13,16.79,37.33,16.79,37.33" style="fill: none;stroke: #111026;stroke-miterlimit: 10;stroke-width: 0.5px"/>
    <path d="M205.44,23s-46.67,32.67-32,56,20.67,29.33,10,54.67-50,63.33-18.67,86,50,14,27.31,46-6.52,41.45-34.1,68.67c-13.21,13,16.79,37.33,16.79,37.33" style="fill: none;stroke: #111026;stroke-miterlimit: 10;stroke-width: 0.5px"/>
    <path d="M202.61,23s-46.67,32.67-32,56,20.67,29.33,10,54.67-50,63.33-18.67,86,50,14,27.31,46-6.52,41.45-34.1,68.67c-13.21,13,16.79,37.33,16.79,37.33" style="fill: none;stroke: #111026;stroke-miterlimit: 10;stroke-width: 0.5px"/>
    <path d="M199.77,23s-46.67,32.67-32,56,20.67,29.33,10,54.67-50,63.33-18.67,86,50,14,27.31,46-6.52,41.45-34.1,68.67c-13.21,13,16.79,37.33,16.79,37.33" style="fill: none;stroke: #111026;stroke-miterlimit: 10;stroke-width: 0.5px"/>
    <path d="M196.94,23s-46.67,32.67-32,56,20.67,29.33,10,54.67-50,63.33-18.67,86,50,14,27.31,46-6.52,41.45-34.1,68.67c-13.21,13,16.79,37.33,16.79,37.33" style="fill: none;stroke: #111026;stroke-miterlimit: 10;stroke-width: 0.5px"/>
    <path d="M194.1,23s-46.67,32.67-32,56,20.67,29.33,10,54.67-50,63.33-18.67,86,50,14,27.31,46-6.52,41.45-34.1,68.67c-13.21,13,16.79,37.33,16.79,37.33" style="fill: none;stroke: #111026;stroke-miterlimit: 10;stroke-width: 0.5px"/>
    <path d="M191.27,23s-46.67,32.67-32,56,20.67,29.33,10,54.67-50,63.33-18.67,86,50,14,27.31,46-6.52,41.45-34.1,68.67c-13.21,13,16.79,37.33,16.79,37.33" style="fill: none;stroke: #111026;stroke-miterlimit: 10;stroke-width: 0.5px"/>
    <path d="M188.43,23s-46.67,32.67-32,56,20.67,29.33,10,54.67-50,63.33-18.67,86,50,14,27.31,46-6.52,41.45-34.1,68.67c-13.21,13,16.79,37.33,16.79,37.33" style="fill: none;stroke: #111026;stroke-miterlimit: 10;stroke-width: 0.5px"/>
    <path d="M185.6,23s-46.67,32.67-32,56,20.67,29.33,10,54.67-50,63.33-18.67,86,50,14,27.31,46-6.52,41.45-34.1,68.67c-13.21,13,16.79,37.33,16.79,37.33" style="fill: none;stroke: #111026;stroke-miterlimit: 10;stroke-width: 0.5px"/>
    <path d="M182.77,23s-46.67,32.67-32,56,20.67,29.33,10,54.67-50,63.33-18.67,86,50,14,27.31,46-6.52,41.45-34.1,68.67c-13.21,13,16.79,37.33,16.79,37.33" style="fill: none;stroke: #111026;stroke-miterlimit: 10;stroke-width: 0.5px"/>
    <path d="M179.93,23s-46.67,32.67-32,56,20.67,29.33,10,54.67-50,63.33-18.67,86,50,14,27.31,46-6.52,41.45-34.1,68.67c-13.21,13,16.79,37.33,16.79,37.33" style="fill: none;stroke: #111026;stroke-miterlimit: 10;stroke-width: 0.5px"/>
    <path d="M177.1,23s-46.67,32.67-32,56,20.67,29.33,10,54.67-50,63.33-18.67,86,50,14,27.31,46-6.52,41.45-34.1,68.67c-13.21,13,16.79,37.33,16.79,37.33" style="fill: none;stroke: #111026;stroke-miterlimit: 10;stroke-width: 0.5px"/>
    <path d="M174.26,23s-46.67,32.67-32,56,20.67,29.33,10,54.67-50,63.33-18.67,86,50,14,27.31,46-6.52,41.45-34.1,68.67c-13.21,13,16.79,37.33,16.79,37.33" style="fill: none;stroke: #111026;stroke-miterlimit: 10;stroke-width: 0.5px"/>
    <path d="M171.43,23s-46.67,32.67-32,56,20.67,29.33,10,54.67-50,63.33-18.67,86,50,14,27.31,46-6.52,41.45-34.1,68.67c-13.21,13,16.79,37.33,16.79,37.33" style="fill: none;stroke: #111026;stroke-miterlimit: 10;stroke-width: 0.5px"/>
    <path d="M168.59,23s-46.67,32.67-32,56,20.67,29.33,10,54.67-50,63.33-18.67,86,50,14,27.31,46-6.52,41.45-34.1,68.67c-13.21,13,16.79,37.33,16.79,37.33" style="fill: none;stroke: #111026;stroke-miterlimit: 10;stroke-width: 0.5px"/>
    <path d="M165.76,23s-46.67,32.67-32,56,20.67,29.33,10,54.67-50,63.33-18.67,86,50,14,27.31,46-6.52,41.45-34.1,68.67c-13.21,13,16.79,37.33,16.79,37.33" style="fill: none;stroke: #111026;stroke-miterlimit: 10;stroke-width: 0.5px"/>
    <path d="M162.92,23s-46.67,32.67-32,56,20.67,29.33,10,54.67-50,63.33-18.67,86,50,14,27.31,46-6.52,41.45-34.1,68.67c-13.21,13,16.79,37.33,16.79,37.33" style="fill: none;stroke: #111026;stroke-miterlimit: 10;stroke-width: 0.5px"/>
    <path d="M160.09,23s-46.67,32.67-32,56,20.67,29.33,10,54.67-50,63.33-18.67,86,50,14,27.31,46-6.52,41.45-34.1,68.67c-13.21,13,16.79,37.33,16.79,37.33" style="fill: none;stroke: #111026;stroke-miterlimit: 10;stroke-width: 0.5px"/>
    <path d="M157.25,23s-46.67,32.67-32,56,20.67,29.33,10,54.67-50,63.33-18.67,86,50,14,27.31,46-6.52,41.45-34.1,68.67c-13.21,13,16.79,37.33,16.79,37.33" style="fill: none;stroke: #111026;stroke-miterlimit: 10;stroke-width: 0.5px"/>
    <path d="M154.42,23s-46.67,32.67-32,56,20.67,29.33,10,54.67-50,63.33-18.67,86,50,14,27.31,46-6.52,41.45-34.1,68.67c-13.21,13,16.79,37.33,16.79,37.33" style="fill: none;stroke: #111026;stroke-miterlimit: 10;stroke-width: 0.5px"/>
    <path d="M151.58,23s-46.67,32.67-32,56,20.67,29.33,10,54.67-50,63.33-18.67,86,50,14,27.31,46-6.52,41.45-34.1,68.67c-13.21,13,16.79,37.33,16.79,37.33" style="fill: none;stroke: #111026;stroke-miterlimit: 10;stroke-width: 0.5px"/>
    <path d="M148.75,23s-46.67,32.67-32,56,20.67,29.33,10,54.67-50,63.33-18.67,86,50,14,27.31,46-6.52,41.45-34.1,68.67c-13.21,13,16.79,37.33,16.79,37.33" style="fill: none;stroke: #111026;stroke-miterlimit: 10;stroke-width: 0.5px"/>
    <path d="M145.92,23s-46.67,32.67-32,56,20.67,29.33,10,54.67-50,63.33-18.67,86,50,14,27.31,46S126,307.09,98.46,334.3c-13.21,13,16.79,37.33,16.79,37.33" style="fill: none;stroke: #111026;stroke-miterlimit: 10;stroke-width: 0.5px"/>
    <path d="M143.08,23s-46.67,32.67-32,56,20.67,29.33,10,54.67-50,63.33-18.67,86,50,14,27.31,46-6.52,41.45-34.1,68.67c-13.21,13,16.79,37.33,16.79,37.33" style="fill: none;stroke: #111026;stroke-miterlimit: 10;stroke-width: 0.5px"/>
    <path d="M140.25,23s-46.67,32.67-32,56,20.67,29.33,10,54.67-50,63.33-18.67,86,50,14,27.31,46-6.52,41.45-34.1,68.67c-13.21,13,16.79,37.33,16.79,37.33" style="fill: none;stroke: #111026;stroke-miterlimit: 10;stroke-width: 0.5px"/>
    <path d="M137.41,23s-46.67,32.67-32,56,20.67,29.33,10,54.67-50,63.33-18.67,86,50,14,27.31,46S117.53,307.09,90,334.3c-13.21,13,16.79,37.33,16.79,37.33" style="fill: none;stroke: #111026;stroke-miterlimit: 10;stroke-width: 0.5px"/>
    <path d="M134.58,23s-46.67,32.67-32,56,20.67,29.33,10,54.67-50,63.33-18.67,86,50,14,27.31,46-6.52,41.45-34.1,68.67c-13.21,13,16.79,37.33,16.79,37.33" style="fill: none;stroke: #111026;stroke-miterlimit: 10;stroke-width: 0.5px"/>
    <path d="M131.74,23s-46.67,32.67-32,56,20.67,29.33,10,54.67-50,63.33-18.67,86,50,14,27.31,46-6.52,41.45-34.1,68.67c-13.21,13,16.79,37.33,16.79,37.33" style="fill: none;stroke: #111026;stroke-miterlimit: 10;stroke-width: 0.5px"/>
    <path d="M128.91,23s-46.67,32.67-32,56,20.67,29.33,10,54.67-50,63.33-18.67,86,50,14,27.31,46S109,307.09,81.45,334.3c-13.21,13,16.79,37.33,16.79,37.33" style="fill: none;stroke: #111026;stroke-miterlimit: 10;stroke-width: 0.5px"/>
    <path d="M126.07,23s-46.67,32.67-32,56,20.67,29.33,10,54.67-50,63.33-18.67,86,50,14,27.31,46-6.52,41.45-34.1,68.67c-13.21,13,16.79,37.33,16.79,37.33" style="fill: none;stroke: #111026;stroke-miterlimit: 10;stroke-width: 0.5px"/>
    <path d="M123.24,23s-46.67,32.67-32,56,20.67,29.33,10,54.67-50,63.33-18.67,86,50,14,27.31,46-6.52,41.45-34.1,68.67c-13.21,13,16.79,37.33,16.79,37.33" style="fill: none;stroke: #111026;stroke-miterlimit: 10;stroke-width: 0.5px"/>
    <path d="M120.4,23s-46.67,32.67-32,56,20.67,29.33,10,54.67-50,63.33-18.67,86,50,14,27.31,46-6.52,41.45-34.1,68.67c-13.21,13,16.79,37.33,16.79,37.33" style="fill: none;stroke: #111026;stroke-miterlimit: 10;stroke-width: 0.5px"/>
    <path d="M117.57,23s-46.67,32.67-32,56,20.67,29.33,10,54.67-50,63.33-18.67,86,50,14,27.31,46-6.52,41.45-34.1,68.67c-13.21,13,16.79,37.33,16.79,37.33" style="fill: none;stroke: #111026;stroke-miterlimit: 10;stroke-width: 0.5px"/>
    <path d="M114.73,23s-46.67,32.67-32,56,20.67,29.33,10,54.67-50,63.33-18.67,86,50,14,27.31,46-6.52,41.45-34.1,68.67c-13.21,13,16.79,37.33,16.79,37.33" style="fill: none;stroke: #111026;stroke-miterlimit: 10;stroke-width: 0.5px"/>
    <path d="M111.9,23s-46.67,32.67-32,56,20.67,29.33,10,54.67-50,63.33-18.67,86,50,14,27.31,46S92,307.09,64.44,334.3c-13.21,13,16.79,37.33,16.79,37.33" style="fill: none;stroke: #111026;stroke-miterlimit: 10;stroke-width: 0.5px"/>
    <path d="M109.06,23s-46.67,32.67-32,56,20.67,29.33,10,54.67-50,63.33-18.67,86,50,14,27.31,46-6.52,41.45-34.1,68.67c-13.21,13,16.79,37.33,16.79,37.33" style="fill: none;stroke: #111026;stroke-miterlimit: 10;stroke-width: 0.5px"/>
    <path d="M106.23,23s-46.67,32.67-32,56,20.67,29.33,10,54.67-50,63.33-18.67,86,50,14,27.31,46-6.52,41.45-34.1,68.67c-13.21,13,16.79,37.33,16.79,37.33" style="fill: none;stroke: #111026;stroke-miterlimit: 10;stroke-width: 0.5px"/>
    <path d="M103.4,23s-46.67,32.67-32,56,20.67,29.33,10,54.67-50,63.33-18.67,86,50,14,27.31,46-6.52,41.45-34.1,68.67c-13.21,13,16.79,37.33,16.79,37.33" style="fill: none;stroke: #111026;stroke-miterlimit: 10;stroke-width: 0.5px"/>
    <path d="M100.56,23s-46.67,32.67-32,56,20.67,29.33,10,54.67-50,63.33-18.67,86,50,14,27.31,46-6.52,41.45-34.1,68.67c-13.21,13,16.79,37.33,16.79,37.33" style="fill: none;stroke: #111026;stroke-miterlimit: 10;stroke-width: 0.5px"/>
    <path d="M97.73,23s-46.67,32.67-32,56,20.67,29.33,10,54.67-50,63.33-18.67,86,50,14,27.31,46-6.52,41.45-34.1,68.67c-13.21,13,16.79,37.33,16.79,37.33" style="fill: none;stroke: #111026;stroke-miterlimit: 10;stroke-width: 0.5px"/>
    <path d="M94.89,23s-46.67,32.67-32,56,20.67,29.33,10,54.67-50,63.33-18.67,86,50,14,27.31,46S75,307.09,47.43,334.3c-13.21,13,16.79,37.33,16.79,37.33" style="fill: none;stroke: #111026;stroke-miterlimit: 10;stroke-width: 0.5px"/>
    <path d="M92.06,23s-46.67,32.67-32,56,20.67,29.33,10,54.67-50,63.33-18.67,86,50,14,27.31,46-6.52,41.45-34.1,68.67c-13.21,13,16.79,37.33,16.79,37.33" style="fill: none;stroke: #111026;stroke-miterlimit: 10;stroke-width: 0.5px"/>
    <path d="M89.22,23s-46.67,32.67-32,56,20.67,29.33,10,54.67-50,63.33-18.67,86,50,14,27.31,46-6.52,41.45-34.1,68.67c-13.21,13,16.79,37.33,16.79,37.33" style="fill: none;stroke: #111026;stroke-miterlimit: 10;stroke-width: 0.5px"/>
    <path d="M86.39,23s-46.67,32.67-32,56,20.67,29.33,10,54.67-50,63.33-18.67,86,50,14,27.31,46-6.52,41.45-34.1,68.67c-13.21,13,16.79,37.33,16.79,37.33" style="fill: none;stroke: #111026;stroke-miterlimit: 10;stroke-width: 0.5px"/>
    <path d="M83.55,23s-46.67,32.67-32,56,20.67,29.33,10,54.67-50,63.33-18.67,86,50,14,27.31,46-6.52,41.45-34.1,68.67c-13.21,13,16.79,37.33,16.79,37.33" style="fill: none;stroke: #111026;stroke-miterlimit: 10;stroke-width: 0.5px"/>
    <path d="M80.72,23s-46.67,32.67-32,56,20.67,29.33,10,54.67-50,63.33-18.67,86,50,14,27.31,46-6.52,41.45-34.1,68.67c-13.21,13,16.79,37.33,16.79,37.33" style="fill: none;stroke: #111026;stroke-miterlimit: 10;stroke-width: 0.5px"/>
    <path d="M77.88,23s-46.67,32.67-32,56,20.67,29.33,10,54.67-50,63.33-18.67,86,50,14,27.31,46S58,307.09,30.43,334.3c-13.21,13,16.79,37.33,16.79,37.33" style="fill: none;stroke: #111026;stroke-miterlimit: 10;stroke-width: 0.5px"/>
    <path d="M75,23S28.38,55.63,43,79s20.67,29.33,10,54.67S3,197,34.38,219.63s50,14,27.31,46-6.52,41.45-34.1,68.67c-13.21,13,16.79,37.33,16.79,37.33" style="fill: none;stroke: #111026;stroke-miterlimit: 10;stroke-width: 0.5px"/>
</svg>
