<svg xmlns="http://www.w3.org/2000/svg" viewBox="0 0 300.04 407.26">
  <title>scribble</title>
  <polyline points="52.15 106.7 202.98 19.62 51.12 108.94 202.32 21.64 50.11 111.16 201.35 23.84 49.09 113.38 200.38 26.03 48.08 115.6 199.41 28.23 47.07 117.82 198.44 30.43 36.99 125.27 191.09 36.31 26.49 132.98 180.61 43.99 17.37 139.88 170.02 51.75 16.4 142.07 167.74 54.7 15.43 144.27 166.73 56.91 14.46 146.47 165.73 59.13 13.49 148.66 164.72 61.35 12.52 150.86 163.72 63.56 13.65 151.84 164.68 64.65 14.94 152.74 165.98 65.53 16.22 153.63 167.28 66.42 17.5 154.53 168.57 67.31 18.79 155.43 169.87 68.19 20.07 156.32 171.17 69.08 21.35 157.22 172.47 69.97 22.64 158.11 173.88 70.79 25.03 158.37 176.34 71.01 27.48 158.59 178.8 71.22 29.94 158.81 181.26 71.44 32.39 159.03 183.72 71.66 34.84 159.25 186.17 71.88 37.3 159.47 188.63 72.09 39.75 159.69 191.09 72.31 42.2 159.91 193.54 72.53 44.66 160.12 196 72.75 47.12 160.34 198.45 72.97 49.58 160.56 200.9 73.19 52.04 160.78 203.36 73.41 54.5 160.99 205.81 73.63 56.95 161.21 208.26 73.85 59.27 161.51 210.4 74.26 60.57 162.4 211.68 75.15 61.87 163.28 212.97 76.05 63.16 164.17 214.25 76.94 64.46 165.06 215.53 77.84 65.76 165.94 216.81 78.73 67.06 166.83 218.1 79.63 68.36 167.72 219.38 80.53 68.8 169.1 220.01 81.8 67.8 171.32 219.04 84 66.79 173.53 218.07 86.19 65.79 175.75 217.1 88.39 64.78 177.97 216.13 90.58 60.37 182.15 214.38 93.23 49.79 189.9 203.94 100.9 39.34 197.56 193.41 108.62 34.09 202.23 185.46 114.84 33.13 204.43 184.45 117.06 32.16 206.62 183.45 119.28 31.19 208.82 182.44 121.49 30.22 211.01 181.44 123.71 30.01 212.77 181.03 125.58 31.3 213.66 182.33 126.47 32.58 214.56 183.63 127.35 33.86 215.46 184.93 128.24 35.15 216.35 186.22 129.13 36.43 217.25 187.52 130.01 37.71 218.14 188.82 130.9 38.99 219.04 190.12 131.79 40.7 219.69 192 132.34 43.15 219.91 194.46 132.55 45.6 220.13 196.92 132.77 48.06 220.35 199.38 132.99 50.51 220.57 201.84 133.21 52.96 220.79 204.29 133.42 55.42 221.01 206.75 133.64 57.87 221.24 209.21 133.86 60.33 221.45 211.66 134.08 62.78 221.67 214.12 134.3 65.24 221.89 216.57 134.52 67.7 222.11 219.02 134.74 70.16 222.32 221.47 134.96 72.62 222.54 223.93 135.18 75.07 222.76 226.38 135.4 76.92 223.33 228.04 136.08 78.22 224.22 229.32 136.97 79.52 225.1 230.61 137.87 80.81 225.99 231.89 138.77 82.11 226.88 233.17 139.66 83.41 227.77 234.46 140.56 84.71 228.65 235.74 141.45 86 229.54 237.02 142.35 85.52 231.46 236.74 144.15 84.52 233.67 235.77 146.34 83.51 235.89 234.8 148.54 82.51 238.11 233.84 150.74 81.5 240.32 232.87 152.93 73.24 246.73 227.3 157.78 62.71 254.45 216.85 165.45 52.27 262.11 206.27 173.2 50.83 264.58 202.18 177.2 49.86 266.77 201.17 179.41 48.89 268.97 200.17 181.63 47.92 271.17 199.16 183.85 46.95 273.36 198.16 186.06 47.65 274.6 198.68 187.4 48.94 275.49 199.98 188.29 50.22 276.39 201.27 189.18 51.5 277.28 202.57 190.06 52.78 278.18 203.87 190.95 54.07 279.07 205.17 191.84 55.35 279.97 206.47 192.72 56.63 280.87 207.76 193.61 58.81 281.25 210.11 193.89 61.26 281.47 212.57 194.11 63.71 281.69 215.03 194.33 66.16 281.91 217.49 194.54 68.62 282.13 219.94 194.76 71.07 282.35 222.4 194.98 73.52 282.57 224.86 195.2 75.98 282.79 227.32 195.41 78.44 283.01 229.77 195.63 80.89 283.23 232.22 195.86 83.35 283.44 234.67 196.08 85.81 283.66 237.13 196.3 88.27 283.88 239.58 196.52 90.72 284.1 242.03 196.74 93.18 284.31 244.4 197.01 94.56 285.15 245.68 197.91 95.86 286.04 246.96 198.8 97.16 286.93 248.25 199.7 98.46 287.81 249.53 200.59 99.75 288.7 250.81 201.49 101.05 289.59 252.09 202.38 102.35 290.48 253.38 203.28 103.25 291.59 254.45 204.3 102.24 293.81 253.48 206.49 101.24 296.03 252.51 208.69 100.24 298.24 251.54 210.89 99.23 300.46 250.57 213.08 96.72 303.55 249.6 215.28 86.13 311.3 240.26 222.31 75.67 318.98 229.75 230.01 68.54 324.73 219.91 237.34 67.57 326.92 218.9 239.55 66.6 329.12 217.9 241.77 65.63 331.32 216.89 243.98 64.66 333.51 215.89 246.2 64.01 335.52 215.02 248.34 65.29 336.42 216.32 249.22 66.57 337.32 217.62 250.11 67.86 338.21 218.92 251 69.14 339.11 220.22 251.88 70.42 340 221.51 252.77 71.71 340.9 222.81 253.66 72.99 341.8 224.11 254.55 74.46 342.58 225.76 255.23 76.91 342.81 228.22 255.45 79.36 343.03 230.68 255.66 81.81 343.25 233.13 255.88 84.27 343.47 235.59 256.1 86.72 343.69 238.05 256.32 89.17 343.91 240.51 256.53 91.63 344.13 242.97 256.75 94.08 344.35 245.42 256.97 96.54 344.56 247.87 257.19 99 344.78 250.32 257.41 101.45 345 252.78 257.63 103.91 345.22 255.23 257.86 106.37 345.44 257.68 258.08 108.83 345.65 260.13 258.3 110.91 346.09 262.03 258.84 112.21 346.98 263.32 259.73 113.5 347.86 264.6 260.63 114.8 348.75 265.88 261.52 116.1 349.64 267.17 262.42 117.4 350.52 268.45 263.32 118.69 351.41 269.73 264.21 119.99 352.3 271.01 265.11 119.98 353.95 271.19 266.64 118.97 356.16 270.22 268.84 117.97 358.38 269.25 271.03 116.97 360.59 268.29 273.23 115.96 362.81 267.31 275.43 109.65 368.09 263.68 279.16 99.1 375.82 253.25 286.82 88.67 383.48 242.7 294.55 85.28 387.07 236.63 299.69 84.31 389.26 235.62 301.91 83.34 391.46 234.61 304.13 82.38 393.66 233.6 306.35 81.41 395.85 232.59 308.57" style="fill: none;stroke: #111026;stroke-linecap: round;stroke-linejoin: round;stroke-width: 0.283464580774307px"/>
</svg>
