<svg xmlns="http://www.w3.org/2000/svg" viewBox="0 0 300.04 407.26">
  <title>square-1</title>
  <rect x="201.34" y="126.78" width="81.88" height="84.13" transform="translate(-37.36 73.94) rotate(-16.13)" style="fill: none;stroke: #111026;stroke-linecap: round;stroke-linejoin: round;stroke-width: 0.28346458077430725px"/>
  <rect x="198.4" y="125.98" width="81.88" height="84.13" transform="translate(-35.56 68.28) rotate(-15.13)" style="fill: none;stroke: #111026;stroke-linecap: round;stroke-linejoin: round;stroke-width: 0.28346458077430725px"/>
  <rect x="195.47" y="125.13" width="81.88" height="84.13" transform="translate(-33.66 62.75) rotate(-14.13)" style="fill: none;stroke: #111026;stroke-linecap: round;stroke-linejoin: round;stroke-width: 0.28346458077430725px"/>
  <rect x="192.55" y="124.23" width="81.88" height="84.13" transform="translate(-31.66 57.37) rotate(-13.13)" style="fill: none;stroke: #111026;stroke-linecap: round;stroke-linejoin: round;stroke-width: 0.28346458077430725px"/>
  <rect x="189.65" y="123.28" width="81.88" height="84.13" transform="translate(-29.59 52.13) rotate(-12.13)" style="fill: none;stroke: #111026;stroke-linecap: round;stroke-linejoin: round;stroke-width: 0.28346458077430725px"/>
  <rect x="186.77" y="122.27" width="81.88" height="84.13" transform="translate(-27.43 47.03) rotate(-11.13)" style="fill: none;stroke: #111026;stroke-linecap: round;stroke-linejoin: round;stroke-width: 0.28346458077430725px"/>
  <rect x="183.9" y="121.22" width="81.88" height="84.13" transform="translate(-25.21 42.07) rotate(-10.13)" style="fill: none;stroke: #111026;stroke-linecap: round;stroke-linejoin: round;stroke-width: 0.28346458077430725px"/>
  <rect x="181.05" y="120.11" width="81.88" height="84.13" transform="translate(-22.91 37.26) rotate(-9.13)" style="fill: none;stroke: #111026;stroke-linecap: round;stroke-linejoin: round;stroke-width: 0.28346458077430725px"/>
  <rect x="178.23" y="118.96" width="81.88" height="84.13" transform="translate(-20.56 32.6) rotate(-8.13)" style="fill: none;stroke: #111026;stroke-linecap: round;stroke-linejoin: round;stroke-width: 0.28346458077430725px"/>
  <rect x="175.42" y="117.76" width="81.88" height="84.13" transform="translate(-18.16 28.08) rotate(-7.13)" style="fill: none;stroke: #111026;stroke-linecap: round;stroke-linejoin: round;stroke-width: 0.28346458077430725px"/>
  <rect x="172.64" y="116.51" width="81.88" height="84.13" transform="translate(-15.7 23.7) rotate(-6.13)" style="fill: none;stroke: #111026;stroke-linecap: round;stroke-linejoin: round;stroke-width: 0.28346458077430725px"/>
  <rect x="169.87" y="115.21" width="81.88" height="84.13" transform="translate(-13.21 19.47) rotate(-5.13)" style="fill: none;stroke: #111026;stroke-linecap: round;stroke-linejoin: round;stroke-width: 0.28346458077430725px"/>
  <rect x="167.14" y="113.86" width="81.88" height="84.13" transform="translate(-10.68 15.38) rotate(-4.13)" style="fill: none;stroke: #111026;stroke-linecap: round;stroke-linejoin: round;stroke-width: 0.28346458077430725px"/>
  <rect x="164.42" y="112.46" width="81.88" height="84.13" transform="translate(-8.12 11.43) rotate(-3.13)" style="fill: none;stroke: #111026;stroke-linecap: round;stroke-linejoin: round;stroke-width: 0.28346458077430725px"/>
  <rect x="161.73" y="111.02" width="81.88" height="84.13" transform="translate(-5.54 7.62) rotate(-2.13)" style="fill: none;stroke: #111026;stroke-linecap: round;stroke-linejoin: round;stroke-width: 0.28346458077430725px"/>
  <rect x="159.06" y="109.53" width="81.88" height="84.13" transform="translate(-2.94 3.96) rotate(-1.13)" style="fill: none;stroke: #111026;stroke-linecap: round;stroke-linejoin: round;stroke-width: 0.28346458077430725px"/>
  <rect x="156.43" y="108" width="81.88" height="84.13" transform="translate(-0.33 0.44) rotate(-0.13)" style="fill: none;stroke: #111026;stroke-linecap: round;stroke-linejoin: round;stroke-width: 0.28346458077430725px"/>
  <rect x="152.69" y="107.54" width="84.13" height="81.88" transform="translate(43.32 340.94) rotate(-89.13)" style="fill: none;stroke: #111026;stroke-linecap: round;stroke-linejoin: round;stroke-width: 0.28346458077430725px"/>
  <rect x="150.11" y="105.91" width="84.13" height="81.88" transform="translate(39.11 334.12) rotate(-88.13)" style="fill: none;stroke: #111026;stroke-linecap: round;stroke-linejoin: round;stroke-width: 0.28346458077430725px"/>
  <rect x="147.55" y="104.24" width="84.13" height="81.88" transform="translate(35.11 327.28) rotate(-87.13)" style="fill: none;stroke: #111026;stroke-linecap: round;stroke-linejoin: round;stroke-width: 0.28346458077430725px"/>
  <rect x="145.03" y="102.52" width="84.13" height="81.88" transform="translate(31.32 320.43) rotate(-86.13)" style="fill: none;stroke: #111026;stroke-linecap: round;stroke-linejoin: round;stroke-width: 0.28346458077430725px"/>
  <rect x="142.53" y="100.76" width="84.13" height="81.88" transform="translate(27.72 313.59) rotate(-85.13)" style="fill: none;stroke: #111026;stroke-linecap: round;stroke-linejoin: round;stroke-width: 0.28346458077430725px"/>
  <rect x="140.07" y="98.96" width="84.13" height="81.88" transform="translate(24.33 306.76) rotate(-84.13)" style="fill: none;stroke: #111026;stroke-linecap: round;stroke-linejoin: round;stroke-width: 0.28346458077430725px"/>
  <rect x="137.64" y="97.11" width="84.13" height="81.88" transform="translate(21.13 299.94) rotate(-83.13)" style="fill: none;stroke: #111026;stroke-linecap: round;stroke-linejoin: round;stroke-width: 0.28346458077430725px"/>
  <rect x="135.24" y="95.23" width="84.13" height="81.88" transform="translate(18.13 293.14) rotate(-82.13)" style="fill: none;stroke: #111026;stroke-linecap: round;stroke-linejoin: round;stroke-width: 0.28346458077430725px"/>
  <rect x="132.87" y="93.3" width="84.13" height="81.88" transform="translate(15.32 286.37) rotate(-81.13)" style="fill: none;stroke: #111026;stroke-linecap: round;stroke-linejoin: round;stroke-width: 0.28346458077430725px"/>
  <rect x="130.54" y="91.33" width="84.13" height="81.88" transform="translate(12.7 279.63) rotate(-80.13)" style="fill: none;stroke: #111026;stroke-linecap: round;stroke-linejoin: round;stroke-width: 0.28346458077430725px"/>
  <rect x="128.24" y="89.32" width="84.13" height="81.88" transform="translate(10.26 272.93) rotate(-79.13)" style="fill: none;stroke: #111026;stroke-linecap: round;stroke-linejoin: round;stroke-width: 0.28346458077430725px"/>
  <rect x="125.98" y="87.27" width="84.13" height="81.88" transform="translate(8.01 266.27) rotate(-78.13)" style="fill: none;stroke: #111026;stroke-linecap: round;stroke-linejoin: round;stroke-width: 0.28346458077430725px"/>
  <rect x="123.75" y="85.18" width="84.13" height="81.88" transform="translate(5.93 259.67) rotate(-77.13)" style="fill: none;stroke: #111026;stroke-linecap: round;stroke-linejoin: round;stroke-width: 0.28346458077430725px"/>
  <rect x="121.57" y="83.05" width="84.13" height="81.88" transform="translate(4.02 253.11) rotate(-76.13)" style="fill: none;stroke: #111026;stroke-linecap: round;stroke-linejoin: round;stroke-width: 0.28346458077430725px"/>
  <rect x="119.41" y="80.88" width="84.13" height="81.88" transform="translate(2.29 246.62) rotate(-75.13)" style="fill: none;stroke: #111026;stroke-linecap: round;stroke-linejoin: round;stroke-width: 0.28346458077430725px"/>
  <rect x="117.3" y="78.68" width="84.13" height="81.88" transform="translate(0.72 240.19) rotate(-74.13)" style="fill: none;stroke: #111026;stroke-linecap: round;stroke-linejoin: round;stroke-width: 0.28346458077430725px"/>
  <rect x="115.23" y="76.44" width="84.13" height="81.88" transform="translate(-0.69 233.83) rotate(-73.13)" style="fill: none;stroke: #111026;stroke-linecap: round;stroke-linejoin: round;stroke-width: 0.28346458077430725px"/>
  <rect x="113.19" y="74.16" width="84.13" height="81.88" transform="translate(-1.94 227.54) rotate(-72.13)" style="fill: none;stroke: #111026;stroke-linecap: round;stroke-linejoin: round;stroke-width: 0.28346458077430725px"/>
  <rect x="111.2" y="71.85" width="84.13" height="81.88" transform="translate(-3.04 221.32) rotate(-71.13)" style="fill: none;stroke: #111026;stroke-linecap: round;stroke-linejoin: round;stroke-width: 0.28346458077430725px"/>
  <rect x="109.24" y="69.5" width="84.13" height="81.88" transform="translate(-4 215.19) rotate(-70.13)" style="fill: none;stroke: #111026;stroke-linecap: round;stroke-linejoin: round;stroke-width: 0.28346458077430725px"/>
  <rect x="107.33" y="67.13" width="84.13" height="81.88" transform="translate(-4.81 209.15) rotate(-69.13)" style="fill: none;stroke: #111026;stroke-linecap: round;stroke-linejoin: round;stroke-width: 0.28346458077430725px"/>
  <rect x="105.46" y="64.71" width="84.13" height="81.88" transform="translate(-5.49 203.19) rotate(-68.13)" style="fill: none;stroke: #111026;stroke-linecap: round;stroke-linejoin: round;stroke-width: 0.28346458077430725px"/>
  <rect x="103.63" y="62.27" width="84.13" height="81.88" transform="translate(-6.03 197.33) rotate(-67.13)" style="fill: none;stroke: #111026;stroke-linecap: round;stroke-linejoin: round;stroke-width: 0.28346458077430725px"/>
  <rect x="101.84" y="59.79" width="84.13" height="81.88" transform="translate(-6.45 191.56) rotate(-66.13)" style="fill: none;stroke: #111026;stroke-linecap: round;stroke-linejoin: round;stroke-width: 0.28346458077430725px"/>
  <rect x="100.1" y="57.29" width="84.13" height="81.88" transform="translate(-6.75 185.89) rotate(-65.13)" style="fill: none;stroke: #111026;stroke-linecap: round;stroke-linejoin: round;stroke-width: 0.28346458077430725px"/>
  <rect x="98.4" y="54.75" width="84.13" height="81.88" transform="translate(-6.93 180.32) rotate(-64.13)" style="fill: none;stroke: #111026;stroke-linecap: round;stroke-linejoin: round;stroke-width: 0.28346458077430725px"/>
  <rect x="96.75" y="52.18" width="84.13" height="81.88" transform="translate(-7 174.85) rotate(-63.13)" style="fill: none;stroke: #111026;stroke-linecap: round;stroke-linejoin: round;stroke-width: 0.28346458077430725px"/>
  <rect x="95.14" y="49.59" width="84.13" height="81.88" transform="translate(-6.97 169.49) rotate(-62.13)" style="fill: none;stroke: #111026;stroke-linecap: round;stroke-linejoin: round;stroke-width: 0.28346458077430725px"/>
  <rect x="93.58" y="46.97" width="84.13" height="81.88" transform="translate(-6.84 164.24) rotate(-61.13)" style="fill: none;stroke: #111026;stroke-linecap: round;stroke-linejoin: round;stroke-width: 0.28346458077430725px"/>
  <rect x="92.06" y="44.32" width="84.13" height="81.88" transform="translate(-6.61 159.09) rotate(-60.13)" style="fill: none;stroke: #111026;stroke-linecap: round;stroke-linejoin: round;stroke-width: 0.28346458077430725px"/>
  <rect x="90.59" y="41.64" width="84.13" height="81.88" transform="translate(-6.3 154.06) rotate(-59.13)" style="fill: none;stroke: #111026;stroke-linecap: round;stroke-linejoin: round;stroke-width: 0.28346458077430725px"/>
  <rect x="89.16" y="38.94" width="84.13" height="81.88" transform="translate(-5.9 149.14) rotate(-58.13)" style="fill: none;stroke: #111026;stroke-linecap: round;stroke-linejoin: round;stroke-width: 0.28346458077430725px"/>
  <rect x="87.79" y="36.22" width="84.13" height="81.88" transform="translate(-5.43 144.33) rotate(-57.13)" style="fill: none;stroke: #111026;stroke-linecap: round;stroke-linejoin: round;stroke-width: 0.28346458077430725px"/>
  <rect x="86.46" y="33.47" width="84.13" height="81.88" transform="translate(-4.89 139.64) rotate(-56.13)" style="fill: none;stroke: #111026;stroke-linecap: round;stroke-linejoin: round;stroke-width: 0.28346458077430725px"/>
  <rect x="85.18" y="30.69" width="84.13" height="81.88" transform="translate(-4.28 135.07) rotate(-55.13)" style="fill: none;stroke: #111026;stroke-linecap: round;stroke-linejoin: round;stroke-width: 0.28346458077430725px"/>
  <rect x="83.95" y="27.9" width="84.13" height="81.88" transform="translate(-3.61 130.61) rotate(-54.13)" style="fill: none;stroke: #111026;stroke-linecap: round;stroke-linejoin: round;stroke-width: 0.28346458077430725px"/>
  <rect x="82.76" y="25.09" width="84.13" height="81.88" transform="translate(-2.89 126.26) rotate(-53.13)" style="fill: none;stroke: #111026;stroke-linecap: round;stroke-linejoin: round;stroke-width: 0.28346458077430725px"/>
  <rect x="81.63" y="22.25" width="84.13" height="81.88" transform="translate(-2.13 122.04) rotate(-52.13)" style="fill: none;stroke: #111026;stroke-linecap: round;stroke-linejoin: round;stroke-width: 0.28346458077430725px"/>
  <rect x="60.17" y="287.61" width="84.13" height="81.88" transform="translate(-191.47 149.3) rotate(-41.32)" style="fill: none;stroke: #111026;stroke-linecap: round;stroke-linejoin: round;stroke-width: 0.28346458077430725px"/>
  <rect x="60.29" y="284.15" width="84.13" height="81.88" transform="translate(-192.19 153.63) rotate(-42.32)" style="fill: none;stroke: #111026;stroke-linecap: round;stroke-linejoin: round;stroke-width: 0.28346458077430725px"/>
  <rect x="60.35" y="280.69" width="84.13" height="81.88" transform="translate(-192.75 157.89) rotate(-43.32)" style="fill: none;stroke: #111026;stroke-linecap: round;stroke-linejoin: round;stroke-width: 0.28346458077430725px"/>
  <rect x="60.35" y="277.23" width="84.13" height="81.88" transform="translate(-193.15 162.09) rotate(-44.32)" style="fill: none;stroke: #111026;stroke-linecap: round;stroke-linejoin: round;stroke-width: 0.28346458077430725px"/>
  <rect x="60.29" y="273.77" width="84.13" height="81.88" transform="translate(-193.38 166.2) rotate(-45.32)" style="fill: none;stroke: #111026;stroke-linecap: round;stroke-linejoin: round;stroke-width: 0.28346458077430725px"/>
  <rect x="60.17" y="270.31" width="84.13" height="81.88" transform="translate(-193.47 170.23) rotate(-46.32)" style="fill: none;stroke: #111026;stroke-linecap: round;stroke-linejoin: round;stroke-width: 0.28346458077430725px"/>
  <rect x="59.99" y="266.85" width="84.13" height="81.88" transform="translate(-193.4 174.16) rotate(-47.32)" style="fill: none;stroke: #111026;stroke-linecap: round;stroke-linejoin: round;stroke-width: 0.28346458077430725px"/>
  <rect x="59.75" y="263.4" width="84.13" height="81.88" transform="translate(-193.19 178) rotate(-48.32)" style="fill: none;stroke: #111026;stroke-linecap: round;stroke-linejoin: round;stroke-width: 0.28346458077430725px"/>
  <rect x="59.45" y="259.96" width="84.13" height="81.88" transform="translate(-192.84 181.74) rotate(-49.32)" style="fill: none;stroke: #111026;stroke-linecap: round;stroke-linejoin: round;stroke-width: 0.28346458077430725px"/>
  <rect x="59.09" y="256.51" width="84.13" height="81.88" transform="translate(-192.36 185.38) rotate(-50.32)" style="fill: none;stroke: #111026;stroke-linecap: round;stroke-linejoin: round;stroke-width: 0.28346458077430725px"/>
  <rect x="58.67" y="253.08" width="84.13" height="81.88" transform="translate(-191.75 188.9) rotate(-51.32)" style="fill: none;stroke: #111026;stroke-linecap: round;stroke-linejoin: round;stroke-width: 0.28346458077430725px"/>
  <rect x="58.19" y="249.65" width="84.13" height="81.88" transform="translate(-191.01 192.31) rotate(-52.32)" style="fill: none;stroke: #111026;stroke-linecap: round;stroke-linejoin: round;stroke-width: 0.28346458077430725px"/>
  <rect x="57.65" y="246.24" width="84.13" height="81.88" transform="translate(-190.16 195.6) rotate(-53.32)" style="fill: none;stroke: #111026;stroke-linecap: round;stroke-linejoin: round;stroke-width: 0.28346458077430725px"/>
  <rect x="57.05" y="242.83" width="84.13" height="81.88" transform="translate(-189.2 198.76) rotate(-54.32)" style="fill: none;stroke: #111026;stroke-linecap: round;stroke-linejoin: round;stroke-width: 0.28346458077430725px"/>
  <rect x="56.39" y="239.43" width="84.13" height="81.88" transform="translate(-188.13 201.8) rotate(-55.32)" style="fill: none;stroke: #111026;stroke-linecap: round;stroke-linejoin: round;stroke-width: 0.28346458077430725px"/>
  <rect x="55.67" y="236.05" width="84.13" height="81.88" transform="translate(-186.96 204.71) rotate(-56.32)" style="fill: none;stroke: #111026;stroke-linecap: round;stroke-linejoin: round;stroke-width: 0.28346458077430725px"/>
  <rect x="54.89" y="232.68" width="84.13" height="81.88" transform="translate(-185.7 207.48) rotate(-57.32)" style="fill: none;stroke: #111026;stroke-linecap: round;stroke-linejoin: round;stroke-width: 0.28346458077430725px"/>
  <rect x="54.05" y="229.32" width="84.13" height="81.88" transform="translate(-184.35 210.12) rotate(-58.32)" style="fill: none;stroke: #111026;stroke-linecap: round;stroke-linejoin: round;stroke-width: 0.28346458077430725px"/>
  <rect x="53.16" y="225.98" width="84.13" height="81.88" transform="translate(-182.92 212.61) rotate(-59.32)" style="fill: none;stroke: #111026;stroke-linecap: round;stroke-linejoin: round;stroke-width: 0.28346458077430725px"/>
  <rect x="52.21" y="222.65" width="84.13" height="81.88" transform="translate(-181.42 214.97) rotate(-60.32)" style="fill: none;stroke: #111026;stroke-linecap: round;stroke-linejoin: round;stroke-width: 0.28346458077430725px"/>
  <rect x="51.19" y="219.34" width="84.13" height="81.88" transform="translate(-179.85 217.18) rotate(-61.32)" style="fill: none;stroke: #111026;stroke-linecap: round;stroke-linejoin: round;stroke-width: 0.28346458077430725px"/>
  <rect x="50.13" y="216.05" width="84.13" height="81.88" transform="translate(-178.21 219.24) rotate(-62.32)" style="fill: none;stroke: #111026;stroke-linecap: round;stroke-linejoin: round;stroke-width: 0.28346458077430725px"/>
  <rect x="49" y="212.78" width="84.13" height="81.88" transform="translate(-176.53 221.16) rotate(-63.32)" style="fill: none;stroke: #111026;stroke-linecap: round;stroke-linejoin: round;stroke-width: 0.28346458077430725px"/>
  <rect x="47.82" y="209.53" width="84.13" height="81.88" transform="translate(-174.8 222.93) rotate(-64.32)" style="fill: none;stroke: #111026;stroke-linecap: round;stroke-linejoin: round;stroke-width: 0.28346458077430725px"/>
  <rect x="46.58" y="206.3" width="84.13" height="81.88" transform="translate(-173.02 224.54) rotate(-65.32)" style="fill: none;stroke: #111026;stroke-linecap: round;stroke-linejoin: round;stroke-width: 0.28346458077430725px"/>
  <rect x="45.28" y="203.09" width="84.13" height="81.88" transform="translate(-171.22 226.01) rotate(-66.32)" style="fill: none;stroke: #111026;stroke-linecap: round;stroke-linejoin: round;stroke-width: 0.28346458077430725px"/>
  <rect x="43.93" y="199.9" width="84.13" height="81.88" transform="translate(-169.38 227.32) rotate(-67.32)" style="fill: none;stroke: #111026;stroke-linecap: round;stroke-linejoin: round;stroke-width: 0.28346458077430725px"/>
  <rect x="42.52" y="196.74" width="84.13" height="81.88" transform="translate(-167.53 228.48) rotate(-68.32)" style="fill: none;stroke: #111026;stroke-linecap: round;stroke-linejoin: round;stroke-width: 0.28346458077430725px"/>
  <rect x="41.06" y="193.61" width="84.13" height="81.88" transform="translate(-165.66 229.48) rotate(-69.32)" style="fill: none;stroke: #111026;stroke-linecap: round;stroke-linejoin: round;stroke-width: 0.28346458077430725px"/>
  <rect x="39.54" y="190.5" width="84.13" height="81.88" transform="translate(-163.79 230.33) rotate(-70.32)" style="fill: none;stroke: #111026;stroke-linecap: round;stroke-linejoin: round;stroke-width: 0.28346458077430725px"/>
  <rect x="37.97" y="187.41" width="84.13" height="81.88" transform="translate(-161.92 231.03) rotate(-71.32)" style="fill: none;stroke: #111026;stroke-linecap: round;stroke-linejoin: round;stroke-width: 0.28346458077430725px"/>
  <rect x="36.35" y="184.36" width="84.13" height="81.88" transform="translate(-160.06 231.58) rotate(-72.32)" style="fill: none;stroke: #111026;stroke-linecap: round;stroke-linejoin: round;stroke-width: 0.28346458077430725px"/>
  <rect x="34.67" y="181.33" width="84.13" height="81.88" transform="translate(-158.21 231.98) rotate(-73.32)" style="fill: none;stroke: #111026;stroke-linecap: round;stroke-linejoin: round;stroke-width: 0.28346458077430725px"/>
  <rect x="32.94" y="178.33" width="84.13" height="81.88" transform="translate(-156.38 232.22) rotate(-74.32)" style="fill: none;stroke: #111026;stroke-linecap: round;stroke-linejoin: round;stroke-width: 0.28346458077430725px"/>
  <rect x="31.16" y="175.37" width="84.13" height="81.88" transform="matrix(0.25, -0.97, 0.97, 0.25, -154.58, 232.32)" style="fill: none;stroke: #111026;stroke-linecap: round;stroke-linejoin: round;stroke-width: 0.28346458077430725px"/>
  <rect x="29.33" y="172.43" width="84.13" height="81.88" transform="translate(-152.81 232.27) rotate(-76.32)" style="fill: none;stroke: #111026;stroke-linecap: round;stroke-linejoin: round;stroke-width: 0.28346458077430725px"/>
  <rect x="27.44" y="169.53" width="84.13" height="81.88" transform="translate(-151.09 232.08) rotate(-77.32)" style="fill: none;stroke: #111026;stroke-linecap: round;stroke-linejoin: round;stroke-width: 0.28346458077430725px"/>
  <rect x="25.51" y="166.66" width="84.13" height="81.88" transform="translate(-149.41 231.74) rotate(-78.32)" style="fill: none;stroke: #111026;stroke-linecap: round;stroke-linejoin: round;stroke-width: 0.28346458077430725px"/>
  <rect x="23.53" y="163.83" width="84.13" height="81.88" transform="translate(-147.79 231.27) rotate(-79.32)" style="fill: none;stroke: #111026;stroke-linecap: round;stroke-linejoin: round;stroke-width: 0.28346458077430725px"/>
</svg>
