<svg xmlns="http://www.w3.org/2000/svg" viewBox="0 0 300.04 407.26">
  <title>square-2</title>
  
    <polygon points="132.42 232.53 132.42 351.47 257.54 351.47 257.54 232.53 192.85 232.53 132.42 232.53" style="fill: none;stroke: #111026;stroke-linecap: round;stroke-linejoin: round;stroke-width: 0.28346458077430725px"/>
    <polygon points="131.85 231.4 131.85 350.33 256.98 350.33 256.98 231.4 192.28 231.4 131.85 231.4" style="fill: none;stroke: #111026;stroke-linecap: round;stroke-linejoin: round;stroke-width: 0.28346458077430725px"/>
    <polygon points="131.29 230.26 131.29 349.2 256.41 349.2 256.41 230.26 191.72 230.26 131.29 230.26" style="fill: none;stroke: #111026;stroke-linecap: round;stroke-linejoin: round;stroke-width: 0.28346458077430725px"/>
    <polygon points="130.72 229.13 130.72 348.06 255.84 348.06 255.84 229.13 191.15 229.13 130.72 229.13" style="fill: none;stroke: #111026;stroke-linecap: round;stroke-linejoin: round;stroke-width: 0.28346458077430725px"/>
    <polygon points="130.15 228 130.15 346.93 255.27 346.93 255.27 228 190.58 228 130.15 228" style="fill: none;stroke: #111026;stroke-linecap: round;stroke-linejoin: round;stroke-width: 0.28346458077430725px"/>
    <polygon points="129.59 226.86 129.59 345.8 254.71 345.8 254.71 226.86 190.02 226.86 129.59 226.86" style="fill: none;stroke: #111026;stroke-linecap: round;stroke-linejoin: round;stroke-width: 0.28346458077430725px"/>
    <polygon points="129.02 225.73 129.02 344.66 254.14 344.66 254.14 225.73 189.45 225.73 129.02 225.73" style="fill: none;stroke: #111026;stroke-linecap: round;stroke-linejoin: round;stroke-width: 0.28346458077430725px"/>
    <polygon points="128.45 224.59 128.45 343.53 253.57 343.53 253.57 224.59 188.88 224.59 128.45 224.59" style="fill: none;stroke: #111026;stroke-linecap: round;stroke-linejoin: round;stroke-width: 0.28346458077430725px"/>
    <polygon points="127.89 223.46 127.89 342.4 253.01 342.4 253.01 223.46 188.31 223.46 127.89 223.46" style="fill: none;stroke: #111026;stroke-linecap: round;stroke-linejoin: round;stroke-width: 0.28346458077430725px"/>
    <polygon points="127.32 222.33 127.32 341.26 252.44 341.26 252.44 222.33 187.75 222.33 127.32 222.33" style="fill: none;stroke: #111026;stroke-linecap: round;stroke-linejoin: round;stroke-width: 0.28346458077430725px"/>
    <polygon points="126.75 221.19 126.75 340.13 251.87 340.13 251.87 221.19 187.18 221.19 126.75 221.19" style="fill: none;stroke: #111026;stroke-linecap: round;stroke-linejoin: round;stroke-width: 0.28346458077430725px"/>
    <polygon points="126.18 220.06 126.18 338.99 251.31 338.99 251.31 220.06 186.61 220.06 126.18 220.06" style="fill: none;stroke: #111026;stroke-linecap: round;stroke-linejoin: round;stroke-width: 0.28346458077430725px"/>
    <polygon points="125.62 218.93 125.62 337.86 250.74 337.86 250.74 218.93 186.05 218.93 125.62 218.93" style="fill: none;stroke: #111026;stroke-linecap: round;stroke-linejoin: round;stroke-width: 0.28346458077430725px"/>
    <polygon points="125.05 217.79 125.05 336.73 250.17 336.73 250.17 217.79 185.48 217.79 125.05 217.79" style="fill: none;stroke: #111026;stroke-linecap: round;stroke-linejoin: round;stroke-width: 0.28346458077430725px"/>
    <polygon points="124.48 216.66 124.48 335.59 249.6 335.59 249.6 216.66 184.91 216.66 124.48 216.66" style="fill: none;stroke: #111026;stroke-linecap: round;stroke-linejoin: round;stroke-width: 0.28346458077430725px"/>
    <polygon points="123.92 215.52 123.92 334.46 249.04 334.46 249.04 215.52 184.35 215.52 123.92 215.52" style="fill: none;stroke: #111026;stroke-linecap: round;stroke-linejoin: round;stroke-width: 0.28346458077430725px"/>
    <polygon points="123.35 214.39 123.35 333.32 248.47 333.32 248.47 214.39 183.78 214.39 123.35 214.39" style="fill: none;stroke: #111026;stroke-linecap: round;stroke-linejoin: round;stroke-width: 0.28346458077430725px"/>
    <polygon points="122.78 213.26 122.78 332.19 247.9 332.19 247.9 213.26 183.21 213.26 122.78 213.26" style="fill: none;stroke: #111026;stroke-linecap: round;stroke-linejoin: round;stroke-width: 0.28346458077430725px"/>
    <polygon points="122.22 212.12 122.22 331.06 247.34 331.06 247.34 212.12 182.65 212.12 122.22 212.12" style="fill: none;stroke: #111026;stroke-linecap: round;stroke-linejoin: round;stroke-width: 0.28346458077430725px"/>
    <polygon points="121.65 210.99 121.65 329.92 246.77 329.92 246.77 210.99 182.08 210.99 121.65 210.99" style="fill: none;stroke: #111026;stroke-linecap: round;stroke-linejoin: round;stroke-width: 0.28346458077430725px"/>
    <polygon points="121.08 209.85 121.08 328.79 246.2 328.79 246.2 209.85 181.51 209.85 121.08 209.85" style="fill: none;stroke: #111026;stroke-linecap: round;stroke-linejoin: round;stroke-width: 0.28346458077430725px"/>
    <polygon points="120.52 208.72 120.52 327.66 245.64 327.66 245.64 208.72 180.94 208.72 120.52 208.72" style="fill: none;stroke: #111026;stroke-linecap: round;stroke-linejoin: round;stroke-width: 0.28346458077430725px"/>
    <polygon points="119.95 207.59 119.95 326.52 245.07 326.52 245.07 207.59 180.38 207.59 119.95 207.59" style="fill: none;stroke: #111026;stroke-linecap: round;stroke-linejoin: round;stroke-width: 0.28346458077430725px"/>
    <polygon points="119.38 206.45 119.38 325.39 244.5 325.39 244.5 206.45 179.81 206.45 119.38 206.45" style="fill: none;stroke: #111026;stroke-linecap: round;stroke-linejoin: round;stroke-width: 0.28346458077430725px"/>
    <polygon points="118.81 205.32 118.81 324.25 243.94 324.25 243.94 205.32 179.24 205.32 118.81 205.32" style="fill: none;stroke: #111026;stroke-linecap: round;stroke-linejoin: round;stroke-width: 0.28346458077430725px"/>
    <polygon points="118.25 204.19 118.25 323.12 243.37 323.12 243.37 204.19 178.68 204.19 118.25 204.19" style="fill: none;stroke: #111026;stroke-linecap: round;stroke-linejoin: round;stroke-width: 0.28346458077430725px"/>
    <polygon points="117.68 203.05 117.68 321.99 242.8 321.99 242.8 203.05 178.11 203.05 117.68 203.05" style="fill: none;stroke: #111026;stroke-linecap: round;stroke-linejoin: round;stroke-width: 0.28346458077430725px"/>
    <polygon points="117.11 201.92 117.11 320.85 242.23 320.85 242.23 201.92 177.54 201.92 117.11 201.92" style="fill: none;stroke: #111026;stroke-linecap: round;stroke-linejoin: round;stroke-width: 0.28346458077430725px"/>
    <polygon points="116.55 200.78 116.55 319.72 241.67 319.72 241.67 200.78 176.98 200.78 116.55 200.78" style="fill: none;stroke: #111026;stroke-linecap: round;stroke-linejoin: round;stroke-width: 0.28346458077430725px"/>
    <polygon points="115.98 199.65 115.98 318.58 241.1 318.58 241.1 199.65 176.41 199.65 115.98 199.65" style="fill: none;stroke: #111026;stroke-linecap: round;stroke-linejoin: round;stroke-width: 0.28346458077430725px"/>
    <polygon points="115.41 198.52 115.41 317.45 240.53 317.45 240.53 198.52 175.84 198.52 115.41 198.52" style="fill: none;stroke: #111026;stroke-linecap: round;stroke-linejoin: round;stroke-width: 0.28346458077430725px"/>
    <polygon points="114.84 197.38 114.84 316.32 239.97 316.32 239.97 197.38 175.28 197.38 114.84 197.38" style="fill: none;stroke: #111026;stroke-linecap: round;stroke-linejoin: round;stroke-width: 0.28346458077430725px"/>
    <polygon points="114.28 196.25 114.28 315.18 239.4 315.18 239.4 196.25 174.71 196.25 114.28 196.25" style="fill: none;stroke: #111026;stroke-linecap: round;stroke-linejoin: round;stroke-width: 0.28346458077430725px"/>
    <polygon points="113.71 195.12 113.71 314.05 238.83 314.05 238.83 195.12 174.14 195.12 113.71 195.12" style="fill: none;stroke: #111026;stroke-linecap: round;stroke-linejoin: round;stroke-width: 0.28346458077430725px"/>
    <polygon points="113.14 193.98 113.14 312.92 238.27 312.92 238.27 193.98 173.57 193.98 113.14 193.98" style="fill: none;stroke: #111026;stroke-linecap: round;stroke-linejoin: round;stroke-width: 0.28346458077430725px"/>
    <polygon points="112.58 192.85 112.58 311.78 237.7 311.78 237.7 192.85 173.01 192.85 112.58 192.85" style="fill: none;stroke: #111026;stroke-linecap: round;stroke-linejoin: round;stroke-width: 0.28346458077430725px"/>
    <polygon points="112.01 191.71 112.01 310.65 237.13 310.65 237.13 191.71 172.44 191.71 112.01 191.71" style="fill: none;stroke: #111026;stroke-linecap: round;stroke-linejoin: round;stroke-width: 0.28346458077430725px"/>
    <polygon points="111.44 190.58 111.44 309.51 236.56 309.51 236.56 190.58 171.87 190.58 111.44 190.58" style="fill: none;stroke: #111026;stroke-linecap: round;stroke-linejoin: round;stroke-width: 0.28346458077430725px"/>
    <polygon points="110.88 189.44 110.88 308.38 236 308.38 236 189.44 171.31 189.44 110.88 189.44" style="fill: none;stroke: #111026;stroke-linecap: round;stroke-linejoin: round;stroke-width: 0.28346458077430725px"/>
    <polygon points="110.31 188.31 110.31 307.25 235.43 307.25 235.43 188.31 170.74 188.31 110.31 188.31" style="fill: none;stroke: #111026;stroke-linecap: round;stroke-linejoin: round;stroke-width: 0.28346458077430725px"/>
    <polygon points="109.74 187.18 109.74 306.11 234.86 306.11 234.86 187.18 170.17 187.18 109.74 187.18" style="fill: none;stroke: #111026;stroke-linecap: round;stroke-linejoin: round;stroke-width: 0.28346458077430725px"/>
    <polygon points="109.18 186.04 109.18 304.98 234.3 304.98 234.3 186.04 169.61 186.04 109.18 186.04" style="fill: none;stroke: #111026;stroke-linecap: round;stroke-linejoin: round;stroke-width: 0.28346458077430725px"/>
    <polygon points="108.61 184.91 108.61 303.85 233.73 303.85 233.73 184.91 169.04 184.91 108.61 184.91" style="fill: none;stroke: #111026;stroke-linecap: round;stroke-linejoin: round;stroke-width: 0.28346458077430725px"/>
    <polygon points="108.04 183.78 108.04 302.71 233.16 302.71 233.16 183.78 168.47 183.78 108.04 183.78" style="fill: none;stroke: #111026;stroke-linecap: round;stroke-linejoin: round;stroke-width: 0.28346458077430725px"/>
    <polygon points="107.47 182.64 107.47 301.58 232.6 301.58 232.6 182.64 167.91 182.64 107.47 182.64" style="fill: none;stroke: #111026;stroke-linecap: round;stroke-linejoin: round;stroke-width: 0.28346458077430725px"/>
    <polygon points="106.91 181.51 106.91 300.44 232.03 300.44 232.03 181.51 167.34 181.51 106.91 181.51" style="fill: none;stroke: #111026;stroke-linecap: round;stroke-linejoin: round;stroke-width: 0.28346458077430725px"/>
    <polygon points="106.34 180.37 106.34 299.31 231.46 299.31 231.46 180.37 166.77 180.37 106.34 180.37" style="fill: none;stroke: #111026;stroke-linecap: round;stroke-linejoin: round;stroke-width: 0.28346458077430725px"/>
    <polygon points="105.78 179.24 105.78 298.18 230.9 298.18 230.9 179.24 166.21 179.24 105.78 179.24" style="fill: none;stroke: #111026;stroke-linecap: round;stroke-linejoin: round;stroke-width: 0.28346458077430725px"/>
    <polygon points="105.21 178.11 105.21 297.04 230.33 297.04 230.33 178.11 165.64 178.11 105.21 178.11" style="fill: none;stroke: #111026;stroke-linecap: round;stroke-linejoin: round;stroke-width: 0.28346458077430725px"/>
    <polygon points="104.64 176.97 104.64 295.91 229.76 295.91 229.76 176.97 165.07 176.97 104.64 176.97" style="fill: none;stroke: #111026;stroke-linecap: round;stroke-linejoin: round;stroke-width: 0.28346458077430725px"/>
    <polygon points="104.07 175.84 104.07 294.77 229.19 294.77 229.19 175.84 164.5 175.84 104.07 175.84" style="fill: none;stroke: #111026;stroke-linecap: round;stroke-linejoin: round;stroke-width: 0.28346458077430725px"/>
    <polygon points="103.51 174.71 103.51 293.64 228.63 293.64 228.63 174.71 163.94 174.71 103.51 174.71" style="fill: none;stroke: #111026;stroke-linecap: round;stroke-linejoin: round;stroke-width: 0.28346458077430725px"/>
    <polygon points="102.94 173.57 102.94 292.51 228.06 292.51 228.06 173.57 163.37 173.57 102.94 173.57" style="fill: none;stroke: #111026;stroke-linecap: round;stroke-linejoin: round;stroke-width: 0.28346458077430725px"/>
    <polygon points="102.37 172.44 102.37 291.37 227.49 291.37 227.49 172.44 162.8 172.44 102.37 172.44" style="fill: none;stroke: #111026;stroke-linecap: round;stroke-linejoin: round;stroke-width: 0.28346458077430725px"/>
    <polygon points="101.81 171.3 101.81 290.24 226.93 290.24 226.93 171.3 162.24 171.3 101.81 171.3" style="fill: none;stroke: #111026;stroke-linecap: round;stroke-linejoin: round;stroke-width: 0.28346458077430725px"/>
    <polygon points="101.24 170.17 101.24 289.11 226.36 289.11 226.36 170.17 161.67 170.17 101.24 170.17" style="fill: none;stroke: #111026;stroke-linecap: round;stroke-linejoin: round;stroke-width: 0.28346458077430725px"/>
    <polygon points="100.67 169.04 100.67 287.97 225.79 287.97 225.79 169.04 161.1 169.04 100.67 169.04" style="fill: none;stroke: #111026;stroke-linecap: round;stroke-linejoin: round;stroke-width: 0.28346458077430725px"/>
    <polygon points="100.11 167.9 100.11 286.84 225.23 286.84 225.23 167.9 160.54 167.9 100.11 167.9" style="fill: none;stroke: #111026;stroke-linecap: round;stroke-linejoin: round;stroke-width: 0.28346458077430725px"/>
    <polygon points="99.54 166.77 99.54 285.7 224.66 285.7 224.66 166.77 159.97 166.77 99.54 166.77" style="fill: none;stroke: #111026;stroke-linecap: round;stroke-linejoin: round;stroke-width: 0.28346458077430725px"/>
    <polygon points="98.97 165.63 98.97 284.57 224.09 284.57 224.09 165.63 159.4 165.63 98.97 165.63" style="fill: none;stroke: #111026;stroke-linecap: round;stroke-linejoin: round;stroke-width: 0.28346458077430725px"/>
    <polygon points="98.4 164.5 98.4 283.44 223.53 283.44 223.53 164.5 158.84 164.5 98.4 164.5" style="fill: none;stroke: #111026;stroke-linecap: round;stroke-linejoin: round;stroke-width: 0.28346458077430725px"/>
    <polygon points="97.84 163.37 97.84 282.3 222.96 282.3 222.96 163.37 158.27 163.37 97.84 163.37" style="fill: none;stroke: #111026;stroke-linecap: round;stroke-linejoin: round;stroke-width: 0.28346458077430725px"/>
    <polygon points="97.27 162.23 97.27 281.17 222.39 281.17 222.39 162.23 157.7 162.23 97.27 162.23" style="fill: none;stroke: #111026;stroke-linecap: round;stroke-linejoin: round;stroke-width: 0.28346458077430725px"/>
    <polygon points="96.7 161.1 96.7 280.03 221.82 280.03 221.82 161.1 157.13 161.1 96.7 161.1" style="fill: none;stroke: #111026;stroke-linecap: round;stroke-linejoin: round;stroke-width: 0.28346458077430725px"/>
    <polygon points="96.14 159.97 96.14 278.9 221.26 278.9 221.26 159.97 156.57 159.97 96.14 159.97" style="fill: none;stroke: #111026;stroke-linecap: round;stroke-linejoin: round;stroke-width: 0.28346458077430725px"/>
    <polygon points="95.57 158.83 95.57 277.77 220.69 277.77 220.69 158.83 156 158.83 95.57 158.83" style="fill: none;stroke: #111026;stroke-linecap: round;stroke-linejoin: round;stroke-width: 0.28346458077430725px"/>
    <polygon points="95 157.7 95 276.63 220.12 276.63 220.12 157.7 155.43 157.7 95 157.7" style="fill: none;stroke: #111026;stroke-linecap: round;stroke-linejoin: round;stroke-width: 0.28346458077430725px"/>
    <polygon points="94.44 156.56 94.44 275.5 219.56 275.5 219.56 156.56 154.87 156.56 94.44 156.56" style="fill: none;stroke: #111026;stroke-linecap: round;stroke-linejoin: round;stroke-width: 0.28346458077430725px"/>
    <polygon points="93.87 155.43 93.87 274.36 218.99 274.36 218.99 155.43 154.3 155.43 93.87 155.43" style="fill: none;stroke: #111026;stroke-linecap: round;stroke-linejoin: round;stroke-width: 0.28346458077430725px"/>
    <polygon points="93.3 154.3 93.3 273.23 218.42 273.23 218.42 154.3 153.73 154.3 93.3 154.3" style="fill: none;stroke: #111026;stroke-linecap: round;stroke-linejoin: round;stroke-width: 0.28346458077430725px"/>
    <polygon points="92.73 153.16 92.73 272.1 217.86 272.1 217.86 153.16 153.17 153.16 92.73 153.16" style="fill: none;stroke: #111026;stroke-linecap: round;stroke-linejoin: round;stroke-width: 0.28346458077430725px"/>
    <polygon points="92.17 152.03 92.17 270.96 217.29 270.96 217.29 152.03 152.6 152.03 92.17 152.03" style="fill: none;stroke: #111026;stroke-linecap: round;stroke-linejoin: round;stroke-width: 0.28346458077430725px"/>
    <polygon points="91.6 150.89 91.6 269.83 216.72 269.83 216.72 150.89 152.03 150.89 91.6 150.89" style="fill: none;stroke: #111026;stroke-linecap: round;stroke-linejoin: round;stroke-width: 0.28346458077430725px"/>
    <polygon points="91.03 149.76 91.03 268.69 216.16 268.69 216.16 149.76 151.47 149.76 91.03 149.76" style="fill: none;stroke: #111026;stroke-linecap: round;stroke-linejoin: round;stroke-width: 0.28346458077430725px"/>
    <polygon points="90.47 148.63 90.47 267.56 215.59 267.56 215.59 148.63 150.9 148.63 90.47 148.63" style="fill: none;stroke: #111026;stroke-linecap: round;stroke-linejoin: round;stroke-width: 0.28346458077430725px"/>
    <polygon points="89.9 147.49 89.9 266.43 215.02 266.43 215.02 147.49 150.33 147.49 89.9 147.49" style="fill: none;stroke: #111026;stroke-linecap: round;stroke-linejoin: round;stroke-width: 0.28346458077430725px"/>
    <polygon points="89.33 146.36 89.33 265.29 214.46 265.29 214.46 146.36 149.76 146.36 89.33 146.36" style="fill: none;stroke: #111026;stroke-linecap: round;stroke-linejoin: round;stroke-width: 0.28346458077430725px"/>
    <polygon points="88.77 145.22 88.77 264.16 213.89 264.16 213.89 145.22 149.2 145.22 88.77 145.22" style="fill: none;stroke: #111026;stroke-linecap: round;stroke-linejoin: round;stroke-width: 0.28346458077430725px"/>
    <polygon points="88.2 144.09 88.2 263.03 213.32 263.03 213.32 144.09 148.63 144.09 88.2 144.09" style="fill: none;stroke: #111026;stroke-linecap: round;stroke-linejoin: round;stroke-width: 0.28346458077430725px"/>
    <polygon points="87.63 142.96 87.63 261.89 212.75 261.89 212.75 142.96 148.06 142.96 87.63 142.96" style="fill: none;stroke: #111026;stroke-linecap: round;stroke-linejoin: round;stroke-width: 0.28346458077430725px"/>
    <polygon points="87.07 141.82 87.07 260.76 212.19 260.76 212.19 141.82 147.5 141.82 87.07 141.82" style="fill: none;stroke: #111026;stroke-linecap: round;stroke-linejoin: round;stroke-width: 0.28346458077430725px"/>
    <polygon points="86.5 140.69 86.5 259.62 211.62 259.62 211.62 140.69 146.93 140.69 86.5 140.69" style="fill: none;stroke: #111026;stroke-linecap: round;stroke-linejoin: round;stroke-width: 0.28346458077430725px"/>
    <polygon points="85.93 139.56 85.93 258.49 211.05 258.49 211.05 139.56 146.36 139.56 85.93 139.56" style="fill: none;stroke: #111026;stroke-linecap: round;stroke-linejoin: round;stroke-width: 0.28346458077430725px"/>
    <polygon points="85.36 138.42 85.36 257.36 210.49 257.36 210.49 138.42 145.79 138.42 85.36 138.42" style="fill: none;stroke: #111026;stroke-linecap: round;stroke-linejoin: round;stroke-width: 0.28346458077430725px"/>
    <polygon points="84.8 137.29 84.8 256.22 209.92 256.22 209.92 137.29 145.23 137.29 84.8 137.29" style="fill: none;stroke: #111026;stroke-linecap: round;stroke-linejoin: round;stroke-width: 0.28346458077430725px"/>
    <polygon points="84.23 136.15 84.23 255.09 209.35 255.09 209.35 136.15 144.66 136.15 84.23 136.15" style="fill: none;stroke: #111026;stroke-linecap: round;stroke-linejoin: round;stroke-width: 0.28346458077430725px"/>
    <polygon points="83.66 135.02 83.66 253.96 208.79 253.96 208.79 135.02 144.09 135.02 83.66 135.02" style="fill: none;stroke: #111026;stroke-linecap: round;stroke-linejoin: round;stroke-width: 0.28346458077430725px"/>
    <polygon points="83.1 133.89 83.1 252.82 208.22 252.82 208.22 133.89 143.53 133.89 83.1 133.89" style="fill: none;stroke: #111026;stroke-linecap: round;stroke-linejoin: round;stroke-width: 0.28346458077430725px"/>
    <polygon points="82.53 132.75 82.53 251.69 207.65 251.69 207.65 132.75 142.96 132.75 82.53 132.75" style="fill: none;stroke: #111026;stroke-linecap: round;stroke-linejoin: round;stroke-width: 0.28346458077430725px"/>
    <polygon points="81.96 131.62 81.96 250.55 207.09 250.55 207.09 131.62 142.39 131.62 81.96 131.62" style="fill: none;stroke: #111026;stroke-linecap: round;stroke-linejoin: round;stroke-width: 0.28346458077430725px"/>
    <polygon points="81.4 130.49 81.4 249.42 206.52 249.42 206.52 130.49 141.83 130.49 81.4 130.49" style="fill: none;stroke: #111026;stroke-linecap: round;stroke-linejoin: round;stroke-width: 0.28346458077430725px"/>
    <polygon points="80.83 129.35 80.83 248.29 205.95 248.29 205.95 129.35 141.26 129.35 80.83 129.35" style="fill: none;stroke: #111026;stroke-linecap: round;stroke-linejoin: round;stroke-width: 0.28346458077430725px"/>
    <polygon points="80.26 128.22 80.26 247.15 205.38 247.15 205.38 128.22 140.69 128.22 80.26 128.22" style="fill: none;stroke: #111026;stroke-linecap: round;stroke-linejoin: round;stroke-width: 0.28346458077430725px"/>
    <polygon points="79.7 127.08 79.7 246.02 204.82 246.02 204.82 127.08 140.13 127.08 79.7 127.08" style="fill: none;stroke: #111026;stroke-linecap: round;stroke-linejoin: round;stroke-width: 0.28346458077430725px"/>
    <polygon points="79.13 125.95 79.13 244.88 204.25 244.88 204.25 125.95 139.56 125.95 79.13 125.95" style="fill: none;stroke: #111026;stroke-linecap: round;stroke-linejoin: round;stroke-width: 0.28346458077430725px"/>
    <polygon points="78.56 124.81 78.56 243.75 203.68 243.75 203.68 124.81 138.99 124.81 78.56 124.81" style="fill: none;stroke: #111026;stroke-linecap: round;stroke-linejoin: round;stroke-width: 0.28346458077430725px"/>
    <polygon points="78 123.68 78 242.62 203.12 242.62 203.12 123.68 138.43 123.68 78 123.68" style="fill: none;stroke: #111026;stroke-linecap: round;stroke-linejoin: round;stroke-width: 0.28346458077430725px"/>
    <polygon points="77.43 122.55 77.43 241.48 202.55 241.48 202.55 122.55 137.86 122.55 77.43 122.55" style="fill: none;stroke: #111026;stroke-linecap: round;stroke-linejoin: round;stroke-width: 0.28346458077430725px"/>
    <polygon points="76.86 121.41 76.86 240.35 201.98 240.35 201.98 121.41 137.29 121.41 76.86 121.41" style="fill: none;stroke: #111026;stroke-linecap: round;stroke-linejoin: round;stroke-width: 0.28346458077430725px"/>
    <polygon points="76.29 120.28 76.29 239.22 201.42 239.22 201.42 120.28 136.72 120.28 76.29 120.28" style="fill: none;stroke: #111026;stroke-linecap: round;stroke-linejoin: round;stroke-width: 0.28346458077430725px"/>
    <polygon points="75.73 119.15 75.73 238.08 200.85 238.08 200.85 119.15 136.16 119.15 75.73 119.15" style="fill: none;stroke: #111026;stroke-linecap: round;stroke-linejoin: round;stroke-width: 0.28346458077430725px"/>
    <polygon points="75.16 118.01 75.16 236.95 200.28 236.95 200.28 118.01 135.59 118.01 75.16 118.01" style="fill: none;stroke: #111026;stroke-linecap: round;stroke-linejoin: round;stroke-width: 0.28346458077430725px"/>
    <polygon points="74.59 116.88 74.59 235.81 199.72 235.81 199.72 116.88 135.02 116.88 74.59 116.88" style="fill: none;stroke: #111026;stroke-linecap: round;stroke-linejoin: round;stroke-width: 0.28346458077430725px"/>
    <polygon points="74.03 115.74 74.03 234.68 199.15 234.68 199.15 115.74 134.46 115.74 74.03 115.74" style="fill: none;stroke: #111026;stroke-linecap: round;stroke-linejoin: round;stroke-width: 0.28346458077430725px"/>
    <polygon points="73.46 114.61 73.46 233.55 198.58 233.55 198.58 114.61 133.89 114.61 73.46 114.61" style="fill: none;stroke: #111026;stroke-linecap: round;stroke-linejoin: round;stroke-width: 0.28346458077430725px"/>
    <polygon points="72.89 113.48 72.89 232.41 198.01 232.41 198.01 113.48 133.32 113.48 72.89 113.48" style="fill: none;stroke: #111026;stroke-linecap: round;stroke-linejoin: round;stroke-width: 0.28346458077430725px"/>
    <polygon points="72.33 112.34 72.33 231.28 197.45 231.28 197.45 112.34 132.76 112.34 72.33 112.34" style="fill: none;stroke: #111026;stroke-linecap: round;stroke-linejoin: round;stroke-width: 0.28346458077430725px"/>
    <polygon points="71.76 111.21 71.76 230.14 196.88 230.14 196.88 111.21 132.19 111.21 71.76 111.21" style="fill: none;stroke: #111026;stroke-linecap: round;stroke-linejoin: round;stroke-width: 0.28346458077430725px"/>
    <polygon points="71.19 110.08 71.19 229.01 196.31 229.01 196.31 110.08 131.62 110.08 71.19 110.08" style="fill: none;stroke: #111026;stroke-linecap: round;stroke-linejoin: round;stroke-width: 0.28346458077430725px"/>
    <polygon points="70.63 108.94 70.63 227.88 195.75 227.88 195.75 108.94 131.06 108.94 70.63 108.94" style="fill: none;stroke: #111026;stroke-linecap: round;stroke-linejoin: round;stroke-width: 0.28346458077430725px"/>
    <polygon points="70.06 107.81 70.06 226.74 195.18 226.74 195.18 107.81 130.49 107.81 70.06 107.81" style="fill: none;stroke: #111026;stroke-linecap: round;stroke-linejoin: round;stroke-width: 0.28346458077430725px"/>
    <polygon points="69.49 106.67 69.49 225.61 194.61 225.61 194.61 106.67 129.92 106.67 69.49 106.67" style="fill: none;stroke: #111026;stroke-linecap: round;stroke-linejoin: round;stroke-width: 0.28346458077430725px"/>
    <polygon points="68.92 105.54 68.92 224.47 194.05 224.47 194.05 105.54 129.35 105.54 68.92 105.54" style="fill: none;stroke: #111026;stroke-linecap: round;stroke-linejoin: round;stroke-width: 0.28346458077430725px"/>
    <polygon points="68.36 104.41 68.36 223.34 193.48 223.34 193.48 104.41 128.79 104.41 68.36 104.41" style="fill: none;stroke: #111026;stroke-linecap: round;stroke-linejoin: round;stroke-width: 0.28346458077430725px"/>
    <polygon points="67.79 103.27 67.79 222.21 192.91 222.21 192.91 103.27 128.22 103.27 67.79 103.27" style="fill: none;stroke: #111026;stroke-linecap: round;stroke-linejoin: round;stroke-width: 0.28346458077430725px"/>
    <polygon points="67.22 102.14 67.22 221.07 192.34 221.07 192.34 102.14 127.65 102.14 67.22 102.14" style="fill: none;stroke: #111026;stroke-linecap: round;stroke-linejoin: round;stroke-width: 0.28346458077430725px"/>
    <polygon points="66.66 101 66.66 219.94 191.78 219.94 191.78 101 127.09 101 66.66 101" style="fill: none;stroke: #111026;stroke-linecap: round;stroke-linejoin: round;stroke-width: 0.28346458077430725px"/>
    <polygon points="66.09 99.87 66.09 218.81 191.21 218.81 191.21 99.87 126.52 99.87 66.09 99.87" style="fill: none;stroke: #111026;stroke-linecap: round;stroke-linejoin: round;stroke-width: 0.28346458077430725px"/>
    <polygon points="65.52 98.74 65.52 217.67 190.64 217.67 190.64 98.74 125.95 98.74 65.52 98.74" style="fill: none;stroke: #111026;stroke-linecap: round;stroke-linejoin: round;stroke-width: 0.28346458077430725px"/>
    <polygon points="64.96 97.6 64.96 216.54 190.08 216.54 190.08 97.6 125.39 97.6 64.96 97.6" style="fill: none;stroke: #111026;stroke-linecap: round;stroke-linejoin: round;stroke-width: 0.28346458077430725px"/>
    <polygon points="64.39 96.47 64.39 215.4 189.51 215.4 189.51 96.47 124.82 96.47 64.39 96.47" style="fill: none;stroke: #111026;stroke-linecap: round;stroke-linejoin: round;stroke-width: 0.28346458077430725px"/>
    <polygon points="63.82 95.33 63.82 214.27 188.94 214.27 188.94 95.33 124.25 95.33 63.82 95.33" style="fill: none;stroke: #111026;stroke-linecap: round;stroke-linejoin: round;stroke-width: 0.28346458077430725px"/>
    <polygon points="63.26 94.2 63.26 213.14 188.38 213.14 188.38 94.2 123.69 94.2 63.26 94.2" style="fill: none;stroke: #111026;stroke-linecap: round;stroke-linejoin: round;stroke-width: 0.28346458077430725px"/>
    <polygon points="62.69 93.07 62.69 212 187.81 212 187.81 93.07 123.12 93.07 62.69 93.07" style="fill: none;stroke: #111026;stroke-linecap: round;stroke-linejoin: round;stroke-width: 0.28346458077430725px"/>
    <polygon points="62.12 91.93 62.12 210.87 187.24 210.87 187.24 91.93 122.55 91.93 62.12 91.93" style="fill: none;stroke: #111026;stroke-linecap: round;stroke-linejoin: round;stroke-width: 0.28346458077430725px"/>
    <polygon points="61.55 90.8 61.55 209.74 186.68 209.74 186.68 90.8 121.98 90.8 61.55 90.8" style="fill: none;stroke: #111026;stroke-linecap: round;stroke-linejoin: round;stroke-width: 0.28346458077430725px"/>
    <polygon points="60.99 89.67 60.99 208.6 186.11 208.6 186.11 89.67 121.42 89.67 60.99 89.67" style="fill: none;stroke: #111026;stroke-linecap: round;stroke-linejoin: round;stroke-width: 0.28346458077430725px"/>
    <polygon points="60.42 88.53 60.42 207.47 185.54 207.47 185.54 88.53 120.85 88.53 60.42 88.53" style="fill: none;stroke: #111026;stroke-linecap: round;stroke-linejoin: round;stroke-width: 0.28346458077430725px"/>
    <polygon points="59.85 87.4 59.85 206.33 184.97 206.33 184.97 87.4 120.28 87.4 59.85 87.4" style="fill: none;stroke: #111026;stroke-linecap: round;stroke-linejoin: round;stroke-width: 0.28346458077430725px"/>
    <polygon points="59.29 86.26 59.29 205.2 184.41 205.2 184.41 86.26 119.72 86.26 59.29 86.26" style="fill: none;stroke: #111026;stroke-linecap: round;stroke-linejoin: round;stroke-width: 0.28346458077430725px"/>
    <polygon points="58.72 85.13 58.72 204.06 183.84 204.06 183.84 85.13 119.15 85.13 58.72 85.13" style="fill: none;stroke: #111026;stroke-linecap: round;stroke-linejoin: round;stroke-width: 0.28346458077430725px"/>
    <polygon points="58.15 84 58.15 202.93 183.27 202.93 183.27 84 118.58 84 58.15 84" style="fill: none;stroke: #111026;stroke-linecap: round;stroke-linejoin: round;stroke-width: 0.28346458077430725px"/>
    <polygon points="57.59 82.86 57.59 201.8 182.71 201.8 182.71 82.86 118.02 82.86 57.59 82.86" style="fill: none;stroke: #111026;stroke-linecap: round;stroke-linejoin: round;stroke-width: 0.28346458077430725px"/>
    <polygon points="57.02 81.73 57.02 200.66 182.14 200.66 182.14 81.73 117.45 81.73 57.02 81.73" style="fill: none;stroke: #111026;stroke-linecap: round;stroke-linejoin: round;stroke-width: 0.28346458077430725px"/>
    <polygon points="56.45 80.59 56.45 199.53 181.57 199.53 181.57 80.59 116.88 80.59 56.45 80.59" style="fill: none;stroke: #111026;stroke-linecap: round;stroke-linejoin: round;stroke-width: 0.28346458077430725px"/>
    <polygon points="55.88 79.46 55.88 198.4 181.01 198.4 181.01 79.46 116.31 79.46 55.88 79.46" style="fill: none;stroke: #111026;stroke-linecap: round;stroke-linejoin: round;stroke-width: 0.28346458077430725px"/>
    <polygon points="55.32 78.33 55.32 197.26 180.44 197.26 180.44 78.33 115.75 78.33 55.32 78.33" style="fill: none;stroke: #111026;stroke-linecap: round;stroke-linejoin: round;stroke-width: 0.28346458077430725px"/>
    <polygon points="54.75 77.19 54.75 196.13 179.87 196.13 179.87 77.19 115.18 77.19 54.75 77.19" style="fill: none;stroke: #111026;stroke-linecap: round;stroke-linejoin: round;stroke-width: 0.28346458077430725px"/>
    <polygon points="54.18 76.06 54.18 194.99 179.31 194.99 179.31 76.06 114.61 76.06 54.18 76.06" style="fill: none;stroke: #111026;stroke-linecap: round;stroke-linejoin: round;stroke-width: 0.28346458077430725px"/>
    <polygon points="53.62 74.93 53.62 193.86 178.74 193.86 178.74 74.93 114.05 74.93 53.62 74.93" style="fill: none;stroke: #111026;stroke-linecap: round;stroke-linejoin: round;stroke-width: 0.28346458077430725px"/>
    <polygon points="53.05 73.79 53.05 192.73 178.17 192.73 178.17 73.79 113.48 73.79 53.05 73.79" style="fill: none;stroke: #111026;stroke-linecap: round;stroke-linejoin: round;stroke-width: 0.28346458077430725px"/>
    <polygon points="52.48 72.66 52.48 191.59 177.6 191.59 177.6 72.66 112.91 72.66 52.48 72.66" style="fill: none;stroke: #111026;stroke-linecap: round;stroke-linejoin: round;stroke-width: 0.28346458077430725px"/>
    <polygon points="51.92 71.52 51.92 190.46 177.04 190.46 177.04 71.52 112.35 71.52 51.92 71.52" style="fill: none;stroke: #111026;stroke-linecap: round;stroke-linejoin: round;stroke-width: 0.28346458077430725px"/>
    <polygon points="51.35 70.39 51.35 189.32 176.47 189.32 176.47 70.39 111.78 70.39 51.35 70.39" style="fill: none;stroke: #111026;stroke-linecap: round;stroke-linejoin: round;stroke-width: 0.28346458077430725px"/>
    <polygon points="50.78 69.26 50.78 188.19 175.9 188.19 175.9 69.26 111.21 69.26 50.78 69.26" style="fill: none;stroke: #111026;stroke-linecap: round;stroke-linejoin: round;stroke-width: 0.28346458077430725px"/>
    <polygon points="50.22 68.12 50.22 187.06 175.34 187.06 175.34 68.12 110.65 68.12 50.22 68.12" style="fill: none;stroke: #111026;stroke-linecap: round;stroke-linejoin: round;stroke-width: 0.28346458077430725px"/>
    <polygon points="49.65 66.99 49.65 185.92 174.77 185.92 174.77 66.99 110.08 66.99 49.65 66.99" style="fill: none;stroke: #111026;stroke-linecap: round;stroke-linejoin: round;stroke-width: 0.28346458077430725px"/>
    <polygon points="49.08 65.86 49.08 184.79 174.2 184.79 174.2 65.86 109.51 65.86 49.08 65.86" style="fill: none;stroke: #111026;stroke-linecap: round;stroke-linejoin: round;stroke-width: 0.28346458077430725px"/>
    <polygon points="48.52 64.72 48.52 183.66 173.64 183.66 173.64 64.72 108.94 64.72 48.52 64.72" style="fill: none;stroke: #111026;stroke-linecap: round;stroke-linejoin: round;stroke-width: 0.28346458077430725px"/>
    <polygon points="47.95 63.59 47.95 182.52 173.07 182.52 173.07 63.59 108.38 63.59 47.95 63.59" style="fill: none;stroke: #111026;stroke-linecap: round;stroke-linejoin: round;stroke-width: 0.28346458077430725px"/>
    <polygon points="47.38 62.45 47.38 181.39 172.5 181.39 172.5 62.45 107.81 62.45 47.38 62.45" style="fill: none;stroke: #111026;stroke-linecap: round;stroke-linejoin: round;stroke-width: 0.28346458077430725px"/>
    <polygon points="46.81 61.32 46.81 180.25 171.94 180.25 171.94 61.32 107.24 61.32 46.81 61.32" style="fill: none;stroke: #111026;stroke-linecap: round;stroke-linejoin: round;stroke-width: 0.28346458077430725px"/>
    <polygon points="46.25 60.19 46.25 179.12 171.37 179.12 171.37 60.19 106.68 60.19 46.25 60.19" style="fill: none;stroke: #111026;stroke-linecap: round;stroke-linejoin: round;stroke-width: 0.28346458077430725px"/>
    <polygon points="45.68 59.05 45.68 177.99 170.8 177.99 170.8 59.05 106.11 59.05 45.68 59.05" style="fill: none;stroke: #111026;stroke-linecap: round;stroke-linejoin: round;stroke-width: 0.28346458077430725px"/>
    <polygon points="45.11 57.92 45.11 176.85 170.23 176.85 170.23 57.92 105.54 57.92 45.11 57.92" style="fill: none;stroke: #111026;stroke-linecap: round;stroke-linejoin: round;stroke-width: 0.28346458077430725px"/>
    <polygon points="44.55 56.78 44.55 175.72 169.67 175.72 169.67 56.78 104.98 56.78 44.55 56.78" style="fill: none;stroke: #111026;stroke-linecap: round;stroke-linejoin: round;stroke-width: 0.28346458077430725px"/>
    <polygon points="43.98 55.65 43.98 174.59 169.1 174.59 169.1 55.65 104.41 55.65 43.98 55.65" style="fill: none;stroke: #111026;stroke-linecap: round;stroke-linejoin: round;stroke-width: 0.28346458077430725px"/>
    <polygon points="43.41 54.52 43.41 173.45 168.53 173.45 168.53 54.52 103.84 54.52 43.41 54.52" style="fill: none;stroke: #111026;stroke-linecap: round;stroke-linejoin: round;stroke-width: 0.28346458077430725px"/>
    <polygon points="42.84 53.38 42.84 172.32 167.97 172.32 167.97 53.38 103.28 53.38 42.84 53.38" style="fill: none;stroke: #111026;stroke-linecap: round;stroke-linejoin: round;stroke-width: 0.28346458077430725px"/>
    <polygon points="42.28 52.25 42.28 171.18 167.4 171.18 167.4 52.25 102.71 52.25 42.28 52.25" style="fill: none;stroke: #111026;stroke-linecap: round;stroke-linejoin: round;stroke-width: 0.28346458077430725px"/>
    <polygon points="41.71 51.12 41.71 170.05 166.83 170.05 166.83 51.12 102.14 51.12 41.71 51.12" style="fill: none;stroke: #111026;stroke-linecap: round;stroke-linejoin: round;stroke-width: 0.28346458077430725px"/>
    <polygon points="41.15 49.98 41.15 168.92 166.27 168.92 166.27 49.98 101.58 49.98 41.15 49.98" style="fill: none;stroke: #111026;stroke-linecap: round;stroke-linejoin: round;stroke-width: 0.28346458077430725px"/>
    <polygon points="40.58 48.85 40.58 167.78 165.7 167.78 165.7 48.85 101.01 48.85 40.58 48.85" style="fill: none;stroke: #111026;stroke-linecap: round;stroke-linejoin: round;stroke-width: 0.28346458077430725px"/>
    <polygon points="40.01 47.71 40.01 166.65 165.13 166.65 165.13 47.71 100.44 47.71 40.01 47.71" style="fill: none;stroke: #111026;stroke-linecap: round;stroke-linejoin: round;stroke-width: 0.28346458077430725px"/>
    <polygon points="39.44 46.58 39.44 165.51 164.56 165.51 164.56 46.58 99.87 46.58 39.44 46.58" style="fill: none;stroke: #111026;stroke-linecap: round;stroke-linejoin: round;stroke-width: 0.28346458077430725px"/>
    <polygon points="38.88 45.45 38.88 164.38 164 164.38 164 45.45 99.31 45.45 38.88 45.45" style="fill: none;stroke: #111026;stroke-linecap: round;stroke-linejoin: round;stroke-width: 0.28346458077430725px"/>
    <polygon points="38.31 44.31 38.31 163.25 163.43 163.25 163.43 44.31 98.74 44.31 38.31 44.31" style="fill: none;stroke: #111026;stroke-linecap: round;stroke-linejoin: round;stroke-width: 0.28346458077430725px"/>
    <polygon points="37.74 43.18 37.74 162.11 162.86 162.11 162.86 43.18 98.17 43.18 37.74 43.18" style="fill: none;stroke: #111026;stroke-linecap: round;stroke-linejoin: round;stroke-width: 0.28346458077430725px"/>
    <polygon points="37.18 42.04 37.18 160.98 162.3 160.98 162.3 42.04 97.61 42.04 37.18 42.04" style="fill: none;stroke: #111026;stroke-linecap: round;stroke-linejoin: round;stroke-width: 0.28346458077430725px"/>
    <polygon points="36.61 40.91 36.61 159.84 161.73 159.84 161.73 40.91 97.04 40.91 36.61 40.91" style="fill: none;stroke: #111026;stroke-linecap: round;stroke-linejoin: round;stroke-width: 0.28346458077430725px"/>
    <polygon points="36.04 39.78 36.04 158.71 161.16 158.71 161.16 39.78 96.47 39.78 36.04 39.78" style="fill: none;stroke: #111026;stroke-linecap: round;stroke-linejoin: round;stroke-width: 0.28346458077430725px"/>
    <polygon points="35.48 38.64 35.48 157.58 160.6 157.58 160.6 38.64 95.91 38.64 35.48 38.64" style="fill: none;stroke: #111026;stroke-linecap: round;stroke-linejoin: round;stroke-width: 0.28346458077430725px"/>
    <polygon points="34.91 37.51 34.91 156.44 160.03 156.44 160.03 37.51 95.34 37.51 34.91 37.51" style="fill: none;stroke: #111026;stroke-linecap: round;stroke-linejoin: round;stroke-width: 0.28346458077430725px"/>
    <polygon points="34.34 36.37 34.34 155.31 159.46 155.31 159.46 36.37 94.77 36.37 34.34 36.37" style="fill: none;stroke: #111026;stroke-linecap: round;stroke-linejoin: round;stroke-width: 0.28346458077430725px"/>
    <polygon points="33.77 35.24 33.77 154.18 158.9 154.18 158.9 35.24 94.2 35.24 33.77 35.24" style="fill: none;stroke: #111026;stroke-linecap: round;stroke-linejoin: round;stroke-width: 0.28346458077430725px"/>
    <polygon points="33.21 34.11 33.21 153.04 158.33 153.04 158.33 34.11 93.64 34.11 33.21 34.11" style="fill: none;stroke: #111026;stroke-linecap: round;stroke-linejoin: round;stroke-width: 0.28346458077430725px"/>
    <polygon points="32.64 32.97 32.64 151.91 157.76 151.91 157.76 32.97 93.07 32.97 32.64 32.97" style="fill: none;stroke: #111026;stroke-linecap: round;stroke-linejoin: round;stroke-width: 0.28346458077430725px"/>
    <polygon points="32.07 31.84 32.07 150.77 157.19 150.77 157.19 31.84 92.5 31.84 32.07 31.84" style="fill: none;stroke: #111026;stroke-linecap: round;stroke-linejoin: round;stroke-width: 0.28346458077430725px"/>
    <polygon points="31.51 30.7 31.51 149.64 156.63 149.64 156.63 30.7 91.94 30.7 31.51 30.7" style="fill: none;stroke: #111026;stroke-linecap: round;stroke-linejoin: round;stroke-width: 0.28346458077430725px"/>
    <polygon points="30.94 29.57 30.94 148.51 156.06 148.51 156.06 29.57 91.37 29.57 30.94 29.57" style="fill: none;stroke: #111026;stroke-linecap: round;stroke-linejoin: round;stroke-width: 0.28346458077430725px"/>
    <polygon points="30.37 28.44 30.37 147.37 155.49 147.37 155.49 28.44 90.8 28.44 30.37 28.44" style="fill: none;stroke: #111026;stroke-linecap: round;stroke-linejoin: round;stroke-width: 0.28346458077430725px"/>
  
</svg>
