<svg xmlns="http://www.w3.org/2000/svg" viewBox="0 0 300.04 407.26">
  <title>square-2_1</title>
    <polygon points="41.69 316.74 109.93 384.97 178.29 316.61 110.05 248.38 74.71 283.72 41.69 316.74" style="fill: none;stroke: #111026;stroke-linecap: round;stroke-linejoin: round"/>
    <polygon points="41.81 309.53 108.84 378.95 178.38 311.79 111.35 242.37 75.39 277.1 41.81 309.53" style="fill: none;stroke: #111026;stroke-linecap: round;stroke-linejoin: round"/>
    <polygon points="42.05 302.33 107.86 372.91 178.56 306.97 112.75 236.4 76.2 270.49 42.05 302.33" style="fill: none;stroke: #111026;stroke-linecap: round;stroke-linejoin: round"/>
    <polygon points="42.41 295.13 106.98 366.85 178.83 302.16 114.26 230.44 77.11 263.89 42.41 295.13" style="fill: none;stroke: #111026;stroke-linecap: round;stroke-linejoin: round"/>
    <polygon points="42.9 287.95 106.21 360.78 179.18 297.35 115.87 224.52 78.14 257.31 42.9 287.95" style="fill: none;stroke: #111026;stroke-linecap: round;stroke-linejoin: round"/>
    <polygon points="43.52 280.77 105.55 354.69 179.61 292.55 117.58 218.63 79.29 250.75 43.52 280.77" style="fill: none;stroke: #111026;stroke-linecap: round;stroke-linejoin: round"/>
    <polygon points="44.26 273.6 104.99 348.6 180.12 287.75 119.39 212.76 80.55 244.22 44.26 273.6" style="fill: none;stroke: #111026;stroke-linecap: round;stroke-linejoin: round"/>
    <polygon points="45.13 266.45 104.54 342.49 180.72 282.97 121.31 206.93 81.92 237.7 45.13 266.45" style="fill: none;stroke: #111026;stroke-linecap: round;stroke-linejoin: round"/>
    <polygon points="46.12 259.31 104.19 336.38 181.41 278.2 123.33 201.13 83.41 231.21 46.12 259.31" style="fill: none;stroke: #111026;stroke-linecap: round;stroke-linejoin: round"/>
    <polygon points="47.24 252.19 103.96 330.26 182.17 273.44 125.45 195.37 85.01 224.75 47.24 252.19" style="fill: none;stroke: #111026;stroke-linecap: round;stroke-linejoin: round"/>
    <polygon points="48.48 245.09 103.83 324.14 183.02 268.69 127.67 189.64 86.72 218.31 48.48 245.09" style="fill: none;stroke: #111026;stroke-linecap: round;stroke-linejoin: round"/>
    <polygon points="49.84 238.02 103.8 318.02 183.95 263.96 129.99 183.96 88.55 211.91 49.84 238.02" style="fill: none;stroke: #111026;stroke-linecap: round;stroke-linejoin: round"/>
    <polygon points="51.33 230.97 103.88 311.9 184.96 259.25 132.41 178.32 90.49 205.54 51.33 230.97" style="fill: none;stroke: #111026;stroke-linecap: round;stroke-linejoin: round"/>
    <polygon points="52.94 223.95 104.07 305.78 186.06 254.55 134.92 172.72 92.53 199.2 52.94 223.95" style="fill: none;stroke: #111026;stroke-linecap: round;stroke-linejoin: round"/>
    <polygon points="54.67 216.95 104.37 299.67 187.24 249.88 137.54 167.16 94.69 192.91 54.67 216.95" style="fill: none;stroke: #111026;stroke-linecap: round;stroke-linejoin: round"/>
    <polygon points="56.52 209.99 104.77 293.56 188.5 245.22 140.25 161.65 96.96 186.64 56.52 209.99" style="fill: none;stroke: #111026;stroke-linecap: round;stroke-linejoin: round"/>
    <polygon points="58.5 203.06 105.28 287.46 189.84 240.59 143.05 156.19 99.33 180.42 58.5 203.06" style="fill: none;stroke: #111026;stroke-linecap: round;stroke-linejoin: round"/>
    <polygon points="60.59 196.17 105.9 281.37 191.26 235.99 145.95 150.78 101.82 174.25 60.59 196.17" style="fill: none;stroke: #111026;stroke-linecap: round;stroke-linejoin: round"/>
    <polygon points="62.81 189.31 106.62 275.29 192.76 231.4 148.95 145.42 104.41 168.11 62.81 189.31" style="fill: none;stroke: #111026;stroke-linecap: round;stroke-linejoin: round"/>
    <polygon points="65.14 182.5 107.44 269.23 194.34 226.85 152.03 140.12 107.11 162.03 65.14 182.5" style="fill: none;stroke: #111026;stroke-linecap: round;stroke-linejoin: round"/>
    <polygon points="67.6 175.72 108.38 263.18 196 222.32 155.22 134.86 109.91 155.99 67.6 175.72" style="fill: none;stroke: #111026;stroke-linecap: round;stroke-linejoin: round"/>
    <polygon points="70.17 168.99 109.42 257.15 197.74 217.82 158.49 129.67 112.82 150 70.17 168.99" style="fill: none;stroke: #111026;stroke-linecap: round;stroke-linejoin: round"/>
    <polygon points="72.86 162.31 110.56 251.13 199.55 213.36 161.85 124.53 115.84 144.06 72.86 162.31" style="fill: none;stroke: #111026;stroke-linecap: round;stroke-linejoin: round"/>
    <polygon points="75.66 155.67 111.81 245.14 201.45 208.93 165.3 119.45 118.95 138.18 75.66 155.67" style="fill: none;stroke: #111026;stroke-linecap: round;stroke-linejoin: round"/>
    <polygon points="78.58 149.08 113.16 239.17 203.42 204.53 168.84 114.44 122.17 132.35 78.58 149.08" style="fill: none;stroke: #111026;stroke-linecap: round;stroke-linejoin: round"/>
    <polygon points="81.61 142.55 114.62 233.23 205.47 200.16 172.46 109.48 125.49 126.58 81.61 142.55" style="fill: none;stroke: #111026;stroke-linecap: round;stroke-linejoin: round"/>
    <polygon points="84.76 136.07 116.18 227.31 207.59 195.83 176.17 104.59 128.91 120.86 84.76 136.07" style="fill: none;stroke: #111026;stroke-linecap: round;stroke-linejoin: round"/>
    <polygon points="88.02 129.64 117.84 221.42 209.79 191.54 179.97 99.77 132.43 115.21 88.02 129.64" style="fill: none;stroke: #111026;stroke-linecap: round;stroke-linejoin: round"/>
    <polygon points="91.4 123.27 119.61 215.56 212.06 187.29 183.85 95.01 136.05 109.62 91.4 123.27" style="fill: none;stroke: #111026;stroke-linecap: round;stroke-linejoin: round"/>
    <polygon points="94.88 116.97 121.48 209.73 214.41 183.08 187.81 90.32 139.76 104.1 94.88 116.97" style="fill: none;stroke: #111026;stroke-linecap: round;stroke-linejoin: round"/>
    <polygon points="98.47 110.72 123.45 203.93 216.83 178.91 191.85 85.7 143.57 98.64 98.47 110.72" style="fill: none;stroke: #111026;stroke-linecap: round;stroke-linejoin: round"/>
    <polygon points="102.17 104.54 125.52 198.17 219.32 174.78 195.98 81.15 147.48 93.24 102.17 104.54" style="fill: none;stroke: #111026;stroke-linecap: round;stroke-linejoin: round"/>
    <polygon points="105.98 98.42 127.69 192.45 221.89 170.7 200.18 76.67 151.48 87.92 105.98 98.42" style="fill: none;stroke: #111026;stroke-linecap: round;stroke-linejoin: round"/>
    <polygon points="109.9 92.37 129.96 186.76 224.52 166.66 204.46 72.27 155.57 82.67 109.9 92.37" style="fill: none;stroke: #111026;stroke-linecap: round;stroke-linejoin: round"/>
    <polygon points="113.92 86.39 132.33 181.12 227.23 162.67 208.82 67.95 159.75 77.48 113.92 86.39" style="fill: none;stroke: #111026;stroke-linecap: round;stroke-linejoin: round"/>
    <polygon points="118.04 80.48 134.8 175.52 230 158.73 213.25 63.7 164.02 72.38 118.04 80.48" style="fill: none;stroke: #111026;stroke-linecap: round;stroke-linejoin: round"/>
    <polygon points="122.27 74.65 137.36 169.96 232.85 154.84 217.75 59.52 168.38 67.34 122.27 74.65" style="fill: none;stroke: #111026;stroke-linecap: round;stroke-linejoin: round"/>
    <polygon points="126.59 68.89 140.02 164.45 235.76 150.99 222.33 55.43 172.83 62.39 126.59 68.89" style="fill: none;stroke: #111026;stroke-linecap: round;stroke-linejoin: round"/>
    <polygon points="131.02 63.2 142.78 158.98 238.74 147.2 226.97 51.42 177.36 57.51 131.02 63.2" style="fill: none;stroke: #111026;stroke-linecap: round;stroke-linejoin: round"/>
    <polygon points="135.54 57.6 145.63 153.57 241.78 143.46 231.69 47.49 181.98 52.72 135.54 57.6" style="fill: none;stroke: #111026;stroke-linecap: round;stroke-linejoin: round"/>
    <polygon points="140.17 52.07 148.58 148.2 244.89 139.78 236.48 43.64 186.68 48 140.17 52.07" style="fill: none;stroke: #111026;stroke-linecap: round;stroke-linejoin: round"/>
    <polygon points="144.88 46.62 151.62 142.89 248.06 136.15 241.33 39.88 191.46 43.37 144.88 46.62" style="fill: none;stroke: #111026;stroke-linecap: round;stroke-linejoin: round"/>
    <polygon points="149.7 41.26 154.75 137.63 251.29 132.57 246.24 36.2 196.33 38.82 149.7 41.26" style="fill: none;stroke: #111026;stroke-linecap: round;stroke-linejoin: round"/>
    <polygon points="154.6 35.98 157.97 132.43 254.59 129.05 251.22 32.61 201.27 34.35 154.6 35.98" style="fill: none;stroke: #111026;stroke-linecap: round;stroke-linejoin: round"/>
    <polygon points="159.6 30.79 161.28 127.28 257.95 125.59 256.26 29.11 206.29 29.98 159.6 30.79" style="fill: none;stroke: #111026;stroke-linecap: round;stroke-linejoin: round"/>
    <polygon points="164.69 25.69 164.69 122.19 261.36 122.19 261.36 25.69 211.38 25.69 164.69 25.69" style="fill: none;stroke: #111026;stroke-linecap: round;stroke-linejoin: round"/>
</svg>
