<svg xmlns="http://www.w3.org/2000/svg" viewBox="0 0 333.36 1221.76">
  <title>tower-2</title>
    <polygon points="55.88 1212.33 108.02 1217.13 277.49 1215.51 225.34 1210.71 137.72 1211.55 55.88 1212.33" style="fill: none;stroke: #111026;stroke-linecap: round;stroke-linejoin: round;stroke-width: 0.5px"/>
    <polygon points="55.88 1212.06 108.02 1216.91 277.49 1215.27 225.34 1210.42 137.72 1211.27 55.88 1212.06" style="fill: none;stroke: #111026;stroke-linecap: round;stroke-linejoin: round;stroke-width: 0.5px"/>
    <polygon points="55.88 1211.78 108.02 1216.68 277.49 1215.03 225.34 1210.13 137.72 1210.99 55.88 1211.78" style="fill: none;stroke: #111026;stroke-linecap: round;stroke-linejoin: round;stroke-width: 0.5px"/>
    <polygon points="55.88 1211.51 108.02 1216.46 277.49 1214.79 225.34 1209.84 137.72 1210.7 55.88 1211.51" style="fill: none;stroke: #111026;stroke-linecap: round;stroke-linejoin: round;stroke-width: 0.5px"/>
    <polygon points="55.88 1211.23 108.02 1216.23 277.49 1214.54 225.34 1209.54 137.72 1210.41 55.88 1211.23" style="fill: none;stroke: #111026;stroke-linecap: round;stroke-linejoin: round;stroke-width: 0.5px"/>
    <polygon points="55.88 1210.95 108.02 1216 277.49 1214.29 225.34 1209.24 137.72 1210.12 55.88 1210.95" style="fill: none;stroke: #111026;stroke-linecap: round;stroke-linejoin: round;stroke-width: 0.5px"/>
    <polygon points="55.88 1210.66 108.02 1215.76 277.49 1214.04 225.34 1208.94 137.72 1209.83 55.88 1210.66" style="fill: none;stroke: #111026;stroke-linecap: round;stroke-linejoin: round;stroke-width: 0.5px"/>
    <polygon points="55.88 1210.37 108.02 1215.53 277.49 1213.79 225.34 1208.64 137.72 1209.53 55.88 1210.37" style="fill: none;stroke: #111026;stroke-linecap: round;stroke-linejoin: round;stroke-width: 0.5px"/>
    <polygon points="55.88 1210.08 108.02 1215.29 277.49 1213.53 225.34 1208.33 137.72 1209.23 55.88 1210.08" style="fill: none;stroke: #111026;stroke-linecap: round;stroke-linejoin: round;stroke-width: 0.5px"/>
    <polygon points="55.88 1209.79 108.02 1215.05 277.49 1213.27 225.34 1208.02 137.72 1208.93 55.88 1209.79" style="fill: none;stroke: #111026;stroke-linecap: round;stroke-linejoin: round;stroke-width: 0.5px"/>
    <polygon points="55.88 1209.49 108.02 1214.8 277.49 1213.01 225.34 1207.7 137.72 1208.63 55.88 1209.49" style="fill: none;stroke: #111026;stroke-linecap: round;stroke-linejoin: round;stroke-width: 0.5px"/>
    <polygon points="55.88 1209.19 108.02 1214.56 277.49 1212.75 225.34 1207.38 137.72 1208.32 55.88 1209.19" style="fill: none;stroke: #111026;stroke-linecap: round;stroke-linejoin: round;stroke-width: 0.5px"/>
    <polygon points="55.88 1208.89 108.02 1214.31 277.49 1212.48 225.34 1207.06 137.72 1208.01 55.88 1208.89" style="fill: none;stroke: #111026;stroke-linecap: round;stroke-linejoin: round;stroke-width: 0.5px"/>
    <polygon points="55.88 1208.59 108.02 1214.06 277.49 1212.21 225.34 1206.74 137.72 1207.69 55.88 1208.59" style="fill: none;stroke: #111026;stroke-linecap: round;stroke-linejoin: round;stroke-width: 0.5px"/>
    <polygon points="55.88 1208.28 108.02 1213.8 277.49 1211.94 225.34 1206.41 137.72 1207.38 55.88 1208.28" style="fill: none;stroke: #111026;stroke-linecap: round;stroke-linejoin: round;stroke-width: 0.5px"/>
    <polygon points="55.88 1207.96 108.02 1213.55 277.49 1211.66 225.34 1206.08 137.72 1207.06 55.88 1207.96" style="fill: none;stroke: #111026;stroke-linecap: round;stroke-linejoin: round;stroke-width: 0.5px"/>
    <polygon points="55.88 1207.65 108.02 1213.29 277.49 1211.39 225.34 1205.75 137.72 1206.73 55.88 1207.65" style="fill: none;stroke: #111026;stroke-linecap: round;stroke-linejoin: round;stroke-width: 0.5px"/>
    <polygon points="55.88 1207.33 108.02 1213.03 277.49 1211.11 225.34 1205.41 137.72 1206.4 55.88 1207.33" style="fill: none;stroke: #111026;stroke-linecap: round;stroke-linejoin: round;stroke-width: 0.5px"/>
    <polygon points="55.88 1207.01 108.02 1212.76 277.49 1210.82 225.34 1205.07 137.72 1206.07 55.88 1207.01" style="fill: none;stroke: #111026;stroke-linecap: round;stroke-linejoin: round;stroke-width: 0.5px"/>
    <polygon points="55.88 1206.68 108.02 1212.5 277.49 1210.54 225.34 1204.72 137.72 1205.74 55.88 1206.68" style="fill: none;stroke: #111026;stroke-linecap: round;stroke-linejoin: round;stroke-width: 0.5px"/>
    <polygon points="55.88 1206.36 108.02 1212.23 277.49 1210.25 225.34 1204.38 137.72 1205.4 55.88 1206.36" style="fill: none;stroke: #111026;stroke-linecap: round;stroke-linejoin: round;stroke-width: 0.5px"/>
    <polygon points="55.88 1206.03 108.02 1211.96 277.49 1209.96 225.34 1204.03 137.72 1205.06 55.88 1206.03" style="fill: none;stroke: #111026;stroke-linecap: round;stroke-linejoin: round;stroke-width: 0.5px"/>
    <polygon points="55.88 1205.69 108.02 1211.68 277.49 1209.66 225.34 1203.67 137.72 1204.71 55.88 1205.69" style="fill: none;stroke: #111026;stroke-linecap: round;stroke-linejoin: round;stroke-width: 0.5px"/>
    <polygon points="55.88 1205.35 108.02 1211.4 277.49 1209.36 225.34 1203.31 137.72 1204.37 55.88 1205.35" style="fill: none;stroke: #111026;stroke-linecap: round;stroke-linejoin: round;stroke-width: 0.5px"/>
    <polygon points="55.88 1205.01 108.02 1211.12 277.49 1209.06 225.34 1202.95 137.72 1204.02 55.88 1205.01" style="fill: none;stroke: #111026;stroke-linecap: round;stroke-linejoin: round;stroke-width: 0.5px"/>
    <polygon points="55.88 1204.67 108.02 1210.84 277.49 1208.76 225.34 1202.58 137.72 1203.66 55.88 1204.67" style="fill: none;stroke: #111026;stroke-linecap: round;stroke-linejoin: round;stroke-width: 0.5px"/>
    <polygon points="55.88 1204.32 108.02 1210.56 277.49 1208.45 225.34 1202.21 137.72 1203.3 55.88 1204.32" style="fill: none;stroke: #111026;stroke-linecap: round;stroke-linejoin: round;stroke-width: 0.5px"/>
    <polygon points="55.88 1203.97 108.02 1210.27 277.49 1208.14 225.34 1201.84 137.72 1202.94 55.88 1203.97" style="fill: none;stroke: #111026;stroke-linecap: round;stroke-linejoin: round;stroke-width: 0.5px"/>
    <polygon points="55.88 1203.61 108.02 1209.97 277.49 1207.83 225.34 1201.46 137.72 1202.58 55.88 1203.61" style="fill: none;stroke: #111026;stroke-linecap: round;stroke-linejoin: round;stroke-width: 0.5px"/>
    <polygon points="55.88 1203.25 108.02 1209.68 277.49 1207.51 225.34 1201.08 137.72 1202.2 55.88 1203.25" style="fill: none;stroke: #111026;stroke-linecap: round;stroke-linejoin: round;stroke-width: 0.5px"/>
    <polygon points="55.88 1202.89 108.02 1209.38 277.49 1207.19 225.34 1200.7 137.72 1201.83 55.88 1202.89" style="fill: none;stroke: #111026;stroke-linecap: round;stroke-linejoin: round;stroke-width: 0.5px"/>
    <polygon points="55.88 1202.52 108.02 1209.08 277.49 1206.87 225.34 1200.31 137.72 1201.45 55.88 1202.52" style="fill: none;stroke: #111026;stroke-linecap: round;stroke-linejoin: round;stroke-width: 0.5px"/>
    <polygon points="55.88 1202.15 108.02 1208.78 277.49 1206.54 225.34 1199.92 137.72 1201.08 55.88 1202.15" style="fill: none;stroke: #111026;stroke-linecap: round;stroke-linejoin: round;stroke-width: 0.5px"/>
    <polygon points="55.88 1201.78 108.02 1208.47 277.49 1206.21 225.34 1199.52 137.72 1200.69 55.88 1201.78" style="fill: none;stroke: #111026;stroke-linecap: round;stroke-linejoin: round;stroke-width: 0.5px"/>
    <polygon points="55.88 1201.4 108.02 1208.16 277.49 1205.88 225.34 1199.12 137.72 1200.3 55.88 1201.4" style="fill: none;stroke: #111026;stroke-linecap: round;stroke-linejoin: round;stroke-width: 0.5px"/>
    <polygon points="55.88 1201.02 108.02 1207.85 277.49 1205.55 225.34 1198.72 137.72 1199.91 55.88 1201.02" style="fill: none;stroke: #111026;stroke-linecap: round;stroke-linejoin: round;stroke-width: 0.5px"/>
    <polygon points="55.88 1200.64 108.02 1207.53 277.49 1205.2 225.34 1198.31 137.72 1199.51 55.88 1200.64" style="fill: none;stroke: #111026;stroke-linecap: round;stroke-linejoin: round;stroke-width: 0.5px"/>
    <polygon points="55.88 1200.25 108.02 1207.21 277.49 1204.86 225.34 1197.9 137.72 1199.11 55.88 1200.25" style="fill: none;stroke: #111026;stroke-linecap: round;stroke-linejoin: round;stroke-width: 0.5px"/>
    <polygon points="55.88 1199.85 108.02 1206.89 277.49 1204.52 225.34 1197.48 137.72 1198.71 55.88 1199.85" style="fill: none;stroke: #111026;stroke-linecap: round;stroke-linejoin: round;stroke-width: 0.5px"/>
    <polygon points="55.88 1199.46 108.02 1206.56 277.49 1204.17 225.34 1197.06 137.72 1198.3 55.88 1199.46" style="fill: none;stroke: #111026;stroke-linecap: round;stroke-linejoin: round;stroke-width: 0.5px"/>
    <polygon points="55.88 1199.06 108.02 1206.23 277.49 1203.81 225.34 1196.63 137.72 1197.89 55.88 1199.06" style="fill: none;stroke: #111026;stroke-linecap: round;stroke-linejoin: round;stroke-width: 0.5px"/>
    <polygon points="55.88 1198.65 108.02 1205.9 277.49 1203.46 225.34 1196.2 137.72 1197.47 55.88 1198.65" style="fill: none;stroke: #111026;stroke-linecap: round;stroke-linejoin: round;stroke-width: 0.5px"/>
    <polygon points="55.88 1198.24 108.02 1205.57 277.49 1203.1 225.34 1195.77 137.72 1197.05 55.88 1198.24" style="fill: none;stroke: #111026;stroke-linecap: round;stroke-linejoin: round;stroke-width: 0.5px"/>
    <polygon points="55.88 1197.83 108.02 1205.23 277.49 1202.73 225.34 1195.33 137.72 1196.62 55.88 1197.83" style="fill: none;stroke: #111026;stroke-linecap: round;stroke-linejoin: round;stroke-width: 0.5px"/>
    <polygon points="55.88 1197.41 108.02 1204.88 277.49 1202.36 225.34 1194.89 137.72 1196.19 55.88 1197.41" style="fill: none;stroke: #111026;stroke-linecap: round;stroke-linejoin: round;stroke-width: 0.5px"/>
    <polygon points="55.88 1196.99 108.02 1204.54 277.49 1201.99 225.34 1194.44 137.72 1195.76 55.88 1196.99" style="fill: none;stroke: #111026;stroke-linecap: round;stroke-linejoin: round;stroke-width: 0.5px"/>
    <polygon points="55.88 1196.56 108.02 1204.19 277.49 1201.62 225.34 1193.99 137.72 1195.32 55.88 1196.56" style="fill: none;stroke: #111026;stroke-linecap: round;stroke-linejoin: round;stroke-width: 0.5px"/>
    <polygon points="55.88 1196.13 108.02 1203.84 277.49 1201.24 225.34 1193.54 137.72 1194.88 55.88 1196.13" style="fill: none;stroke: #111026;stroke-linecap: round;stroke-linejoin: round;stroke-width: 0.5px"/>
    <polygon points="55.88 1195.7 108.02 1203.48 277.49 1200.85 225.34 1193.08 137.72 1194.43 55.88 1195.7" style="fill: none;stroke: #111026;stroke-linecap: round;stroke-linejoin: round;stroke-width: 0.5px"/>
    <polygon points="55.88 1195.26 108.02 1203.12 277.49 1200.47 225.34 1192.61 137.72 1193.98 55.88 1195.26" style="fill: none;stroke: #111026;stroke-linecap: round;stroke-linejoin: round;stroke-width: 0.5px"/>
    <polygon points="55.88 1194.82 108.02 1202.75 277.49 1200.08 225.34 1192.14 137.72 1193.52 55.88 1194.82" style="fill: none;stroke: #111026;stroke-linecap: round;stroke-linejoin: round;stroke-width: 0.5px"/>
    <polygon points="55.88 1194.37 108.02 1202.39 277.49 1199.68 225.34 1191.66 137.72 1193.06 55.88 1194.37" style="fill: none;stroke: #111026;stroke-linecap: round;stroke-linejoin: round;stroke-width: 0.5px"/>
    <polygon points="55.88 1193.92 108.02 1202.02 277.49 1199.28 225.34 1191.18 137.72 1192.6 55.88 1193.92" style="fill: none;stroke: #111026;stroke-linecap: round;stroke-linejoin: round;stroke-width: 0.5px"/>
    <polygon points="55.88 1193.46 108.02 1201.64 277.49 1198.88 225.34 1190.7 137.72 1192.13 55.88 1193.46" style="fill: none;stroke: #111026;stroke-linecap: round;stroke-linejoin: round;stroke-width: 0.5px"/>
    <polygon points="55.88 1193 108.02 1201.26 277.49 1198.47 225.34 1190.21 137.72 1191.65 55.88 1193" style="fill: none;stroke: #111026;stroke-linecap: round;stroke-linejoin: round;stroke-width: 0.5px"/>
    <polygon points="55.88 1192.53 108.02 1200.88 277.49 1198.06 225.34 1189.72 137.72 1191.17 55.88 1192.53" style="fill: none;stroke: #111026;stroke-linecap: round;stroke-linejoin: round;stroke-width: 0.5px"/>
    <polygon points="55.88 1192.06 108.02 1200.49 277.49 1197.65 225.34 1189.22 137.72 1190.69 55.88 1192.06" style="fill: none;stroke: #111026;stroke-linecap: round;stroke-linejoin: round;stroke-width: 0.5px"/>
    <polygon points="55.88 1191.59 108.02 1200.1 277.49 1197.23 225.34 1188.71 137.72 1190.2 55.88 1191.59" style="fill: none;stroke: #111026;stroke-linecap: round;stroke-linejoin: round;stroke-width: 0.5px"/>
    <polygon points="55.88 1191.11 108.02 1199.71 277.49 1196.81 225.34 1188.2 137.72 1189.7 55.88 1191.11" style="fill: none;stroke: #111026;stroke-linecap: round;stroke-linejoin: round;stroke-width: 0.5px"/>
    <polygon points="55.88 1190.62 108.02 1199.31 277.49 1196.38 225.34 1187.69 137.72 1189.2 55.88 1190.62" style="fill: none;stroke: #111026;stroke-linecap: round;stroke-linejoin: round;stroke-width: 0.5px"/>
    <polygon points="55.88 1190.13 108.02 1198.91 277.49 1195.95 225.34 1187.17 137.72 1188.7 55.88 1190.13" style="fill: none;stroke: #111026;stroke-linecap: round;stroke-linejoin: round;stroke-width: 0.5px"/>
    <polygon points="55.88 1189.63 108.02 1198.5 277.49 1195.51 225.34 1186.64 137.72 1188.19 55.88 1189.63" style="fill: none;stroke: #111026;stroke-linecap: round;stroke-linejoin: round;stroke-width: 0.5px"/>
    <polygon points="55.88 1189.13 108.02 1198.09 277.49 1195.07 225.34 1186.11 137.72 1187.67 55.88 1189.13" style="fill: none;stroke: #111026;stroke-linecap: round;stroke-linejoin: round;stroke-width: 0.5px"/>
    <polygon points="55.88 1188.63 108.02 1197.67 277.49 1194.62 225.34 1185.58 137.72 1187.16 55.88 1188.63" style="fill: none;stroke: #111026;stroke-linecap: round;stroke-linejoin: round;stroke-width: 0.5px"/>
    <polygon points="55.88 1188.12 108.02 1197.26 277.49 1194.17 225.34 1185.04 137.72 1186.63 55.88 1188.12" style="fill: none;stroke: #111026;stroke-linecap: round;stroke-linejoin: round;stroke-width: 0.5px"/>
    <polygon points="55.88 1187.6 108.02 1196.83 277.49 1193.72 225.34 1184.49 137.72 1186.1 55.88 1187.6" style="fill: none;stroke: #111026;stroke-linecap: round;stroke-linejoin: round;stroke-width: 0.5px"/>
    <polygon points="55.88 1187.08 108.02 1196.4 277.49 1193.26 225.34 1183.94 137.72 1185.56 55.88 1187.08" style="fill: none;stroke: #111026;stroke-linecap: round;stroke-linejoin: round;stroke-width: 0.5px"/>
    <polygon points="55.88 1186.56 108.02 1195.97 277.49 1192.8 225.34 1183.38 137.72 1185.02 55.88 1186.56" style="fill: none;stroke: #111026;stroke-linecap: round;stroke-linejoin: round;stroke-width: 0.5px"/>
    <polygon points="55.88 1186.03 108.02 1195.54 277.49 1192.33 225.34 1182.82 137.72 1184.48 55.88 1186.03" style="fill: none;stroke: #111026;stroke-linecap: round;stroke-linejoin: round;stroke-width: 0.5px"/>
    <polygon points="55.88 1185.49 108.02 1195.1 277.49 1191.86 225.34 1182.25 137.72 1183.92 55.88 1185.49" style="fill: none;stroke: #111026;stroke-linecap: round;stroke-linejoin: round;stroke-width: 0.5px"/>
    <polygon points="55.88 1184.95 108.02 1194.65 277.49 1191.38 225.34 1181.67 137.72 1183.37 55.88 1184.95" style="fill: none;stroke: #111026;stroke-linecap: round;stroke-linejoin: round;stroke-width: 0.5px"/>
    <polygon points="55.88 1184.4 108.02 1194.2 277.49 1190.89 225.34 1181.09 137.72 1182.8 55.88 1184.4" style="fill: none;stroke: #111026;stroke-linecap: round;stroke-linejoin: round;stroke-width: 0.5px"/>
    <polygon points="55.88 1183.85 108.02 1193.75 277.49 1190.41 225.34 1180.51 137.72 1182.23 55.88 1183.85" style="fill: none;stroke: #111026;stroke-linecap: round;stroke-linejoin: round;stroke-width: 0.5px"/>
    <polygon points="55.88 1183.29 108.02 1193.29 277.49 1189.91 225.34 1179.91 137.72 1181.66 55.88 1183.29" style="fill: none;stroke: #111026;stroke-linecap: round;stroke-linejoin: round;stroke-width: 0.5px"/>
    <polygon points="55.88 1182.72 108.02 1192.83 277.49 1189.42 225.34 1179.32 137.72 1181.08 55.88 1182.72" style="fill: none;stroke: #111026;stroke-linecap: round;stroke-linejoin: round;stroke-width: 0.5px"/>
    <polygon points="55.88 1182.15 108.02 1192.36 277.49 1188.92 225.34 1178.71 137.72 1180.49 55.88 1182.15" style="fill: none;stroke: #111026;stroke-linecap: round;stroke-linejoin: round;stroke-width: 0.5px"/>
    <polygon points="55.88 1181.58 108.02 1191.88 277.49 1188.41 225.34 1178.1 137.72 1179.9 55.88 1181.58" style="fill: none;stroke: #111026;stroke-linecap: round;stroke-linejoin: round;stroke-width: 0.5px"/>
    <polygon points="55.88 1181 108.02 1191.41 277.49 1187.9 225.34 1177.48 137.72 1179.3 55.88 1181" style="fill: none;stroke: #111026;stroke-linecap: round;stroke-linejoin: round;stroke-width: 0.5px"/>
    <polygon points="55.88 1180.41 108.02 1190.93 277.49 1187.38 225.34 1176.86 137.72 1178.69 55.88 1180.41" style="fill: none;stroke: #111026;stroke-linecap: round;stroke-linejoin: round;stroke-width: 0.5px"/>
    <polygon points="55.88 1179.82 108.02 1190.44 277.49 1186.86 225.34 1176.23 137.72 1178.09 55.88 1179.82" style="fill: none;stroke: #111026;stroke-linecap: round;stroke-linejoin: round;stroke-width: 0.5px"/>
    <polygon points="55.88 1179.22 108.02 1189.95 277.49 1186.33 225.34 1175.6 137.72 1177.47 55.88 1179.22" style="fill: none;stroke: #111026;stroke-linecap: round;stroke-linejoin: round;stroke-width: 0.5px"/>
    <polygon points="55.88 1178.61 108.02 1189.45 277.49 1185.79 225.34 1174.95 137.72 1176.85 55.88 1178.61" style="fill: none;stroke: #111026;stroke-linecap: round;stroke-linejoin: round;stroke-width: 0.5px"/>
    <polygon points="55.88 1178 108.02 1188.95 277.49 1185.25 225.34 1174.31 137.72 1176.21 55.88 1178" style="fill: none;stroke: #111026;stroke-linecap: round;stroke-linejoin: round;stroke-width: 0.5px"/>
    <polygon points="55.88 1177.38 108.02 1188.44 277.49 1184.71 225.34 1173.65 137.72 1175.58 55.88 1177.38" style="fill: none;stroke: #111026;stroke-linecap: round;stroke-linejoin: round;stroke-width: 0.5px"/>
    <polygon points="55.88 1176.76 108.02 1187.93 277.49 1184.16 225.34 1172.99 137.72 1174.94 55.88 1176.76" style="fill: none;stroke: #111026;stroke-linecap: round;stroke-linejoin: round;stroke-width: 0.5px"/>
    <polygon points="55.88 1176.13 108.02 1187.41 277.49 1183.6 225.34 1172.32 137.72 1174.29 55.88 1176.13" style="fill: none;stroke: #111026;stroke-linecap: round;stroke-linejoin: round;stroke-width: 0.5px"/>
    <polygon points="55.88 1175.49 108.02 1186.89 277.49 1183.04 225.34 1171.65 137.72 1173.63 55.88 1175.49" style="fill: none;stroke: #111026;stroke-linecap: round;stroke-linejoin: round;stroke-width: 0.5px"/>
    <polygon points="55.88 1174.85 108.02 1186.36 277.49 1182.48 225.34 1170.96 137.72 1172.97 55.88 1174.85" style="fill: none;stroke: #111026;stroke-linecap: round;stroke-linejoin: round;stroke-width: 0.5px"/>
    <polygon points="55.88 1174.2 108.02 1185.83 277.49 1181.9 225.34 1170.28 137.72 1172.3 55.88 1174.2" style="fill: none;stroke: #111026;stroke-linecap: round;stroke-linejoin: round;stroke-width: 0.5px"/>
    <polygon points="55.88 1173.54 108.02 1185.29 277.49 1181.33 225.34 1169.58 137.72 1171.63 55.88 1173.54" style="fill: none;stroke: #111026;stroke-linecap: round;stroke-linejoin: round;stroke-width: 0.5px"/>
    <polygon points="55.88 1172.88 108.02 1184.74 277.49 1180.74 225.34 1168.88 137.72 1170.95 55.88 1172.88" style="fill: none;stroke: #111026;stroke-linecap: round;stroke-linejoin: round;stroke-width: 0.5px"/>
    <polygon points="55.88 1172.21 108.02 1184.19 277.49 1180.15 225.34 1168.17 137.72 1170.26 55.88 1172.21" style="fill: none;stroke: #111026;stroke-linecap: round;stroke-linejoin: round;stroke-width: 0.5px"/>
    <polygon points="55.88 1171.53 108.02 1183.64 277.49 1179.56 225.34 1167.45 137.72 1169.56 55.88 1171.53" style="fill: none;stroke: #111026;stroke-linecap: round;stroke-linejoin: round;stroke-width: 0.5px"/>
    <polygon points="55.88 1170.85 108.02 1183.08 277.49 1178.95 225.34 1166.73 137.72 1168.86 55.88 1170.85" style="fill: none;stroke: #111026;stroke-linecap: round;stroke-linejoin: round;stroke-width: 0.5px"/>
    <polygon points="55.88 1170.16 108.02 1182.51 277.49 1178.35 225.34 1165.99 137.72 1168.15 55.88 1170.16" style="fill: none;stroke: #111026;stroke-linecap: round;stroke-linejoin: round;stroke-width: 0.5px"/>
    <polygon points="55.88 1169.46 108.02 1181.94 277.49 1177.73 225.34 1165.26 137.72 1167.43 55.88 1169.46" style="fill: none;stroke: #111026;stroke-linecap: round;stroke-linejoin: round;stroke-width: 0.5px"/>
    <polygon points="55.88 1168.76 108.02 1181.36 277.49 1177.11 225.34 1164.51 137.72 1166.71 55.88 1168.76" style="fill: none;stroke: #111026;stroke-linecap: round;stroke-linejoin: round;stroke-width: 0.5px"/>
    <polygon points="55.88 1168.05 108.02 1180.78 277.49 1176.48 225.34 1163.76 137.72 1165.97 55.88 1168.05" style="fill: none;stroke: #111026;stroke-linecap: round;stroke-linejoin: round;stroke-width: 0.5px"/>
    <polygon points="55.88 1167.33 108.02 1180.19 277.49 1175.85 225.34 1162.99 137.72 1165.24 55.88 1167.33" style="fill: none;stroke: #111026;stroke-linecap: round;stroke-linejoin: round;stroke-width: 0.5px"/>
    <polygon points="55.88 1166.61 108.02 1179.59 277.49 1175.21 225.34 1162.22 137.72 1164.49 55.88 1166.61" style="fill: none;stroke: #111026;stroke-linecap: round;stroke-linejoin: round;stroke-width: 0.5px"/>
    <polygon points="55.88 1165.87 108.02 1178.99 277.49 1174.57 225.34 1161.45 137.72 1163.73 55.88 1165.87" style="fill: none;stroke: #111026;stroke-linecap: round;stroke-linejoin: round;stroke-width: 0.5px"/>
    <polygon points="55.88 1165.13 108.02 1178.38 277.49 1173.91 225.34 1160.66 137.72 1162.97 55.88 1165.13" style="fill: none;stroke: #111026;stroke-linecap: round;stroke-linejoin: round;stroke-width: 0.5px"/>
    <polygon points="55.88 1164.38 108.02 1177.77 277.49 1173.26 225.34 1159.87 137.72 1162.2 55.88 1164.38" style="fill: none;stroke: #111026;stroke-linecap: round;stroke-linejoin: round;stroke-width: 0.5px"/>
    <polygon points="55.88 1163.63 108.02 1177.15 277.49 1172.59 225.34 1159.07 137.72 1161.43 55.88 1163.63" style="fill: none;stroke: #111026;stroke-linecap: round;stroke-linejoin: round;stroke-width: 0.5px"/>
    <polygon points="55.88 1162.87 108.02 1176.52 277.49 1171.92 225.34 1158.26 137.72 1160.64 55.88 1162.87" style="fill: none;stroke: #111026;stroke-linecap: round;stroke-linejoin: round;stroke-width: 0.5px"/>
    <polygon points="55.88 1162.1 108.02 1175.89 277.49 1171.24 225.34 1157.44 137.72 1159.85 55.88 1162.1" style="fill: none;stroke: #111026;stroke-linecap: round;stroke-linejoin: round;stroke-width: 0.5px"/>
    <polygon points="55.88 1161.32 108.02 1175.25 277.49 1170.55 225.34 1156.62 137.72 1159.05 55.88 1161.32" style="fill: none;stroke: #111026;stroke-linecap: round;stroke-linejoin: round;stroke-width: 0.5px"/>
    <polygon points="55.88 1160.53 108.02 1174.61 277.49 1169.86 225.34 1155.78 137.72 1158.24 55.88 1160.53" style="fill: none;stroke: #111026;stroke-linecap: round;stroke-linejoin: round;stroke-width: 0.5px"/>
    <polygon points="55.88 1159.74 108.02 1173.95 277.49 1169.16 225.34 1154.94 137.72 1157.42 55.88 1159.74" style="fill: none;stroke: #111026;stroke-linecap: round;stroke-linejoin: round;stroke-width: 0.5px"/>
    <polygon points="55.88 1158.93 108.02 1173.3 277.49 1168.45 225.34 1154.09 137.72 1156.6 55.88 1158.93" style="fill: none;stroke: #111026;stroke-linecap: round;stroke-linejoin: round;stroke-width: 0.5px"/>
    <polygon points="55.88 1158.13 108.02 1172.63 277.49 1167.74 225.34 1153.23 137.72 1155.76 55.88 1158.13" style="fill: none;stroke: #111026;stroke-linecap: round;stroke-linejoin: round;stroke-width: 0.5px"/>
    <polygon points="55.88 1157.31 108.02 1171.96 277.49 1167.02 225.34 1152.36 137.72 1154.92 55.88 1157.31" style="fill: none;stroke: #111026;stroke-linecap: round;stroke-linejoin: round;stroke-width: 0.5px"/>
    <polygon points="55.88 1156.48 108.02 1171.28 277.49 1166.29 225.34 1151.49 137.72 1154.07 55.88 1156.48" style="fill: none;stroke: #111026;stroke-linecap: round;stroke-linejoin: round;stroke-width: 0.5px"/>
    <polygon points="55.88 1155.64 108.02 1170.6 277.49 1165.55 225.34 1150.6 137.72 1153.21 55.88 1155.64" style="fill: none;stroke: #111026;stroke-linecap: round;stroke-linejoin: round;stroke-width: 0.5px"/>
    <polygon points="55.88 1154.8 108.02 1169.9 277.49 1164.81 225.34 1149.71 137.72 1152.34 55.88 1154.8" style="fill: none;stroke: #111026;stroke-linecap: round;stroke-linejoin: round;stroke-width: 0.5px"/>
    <polygon points="55.88 1153.95 108.02 1169.2 277.49 1164.06 225.34 1148.8 137.72 1151.46 55.88 1153.95" style="fill: none;stroke: #111026;stroke-linecap: round;stroke-linejoin: round;stroke-width: 0.5px"/>
    <polygon points="55.88 1153.09 108.02 1168.5 277.49 1163.3 225.34 1147.89 137.72 1150.58 55.88 1153.09" style="fill: none;stroke: #111026;stroke-linecap: round;stroke-linejoin: round;stroke-width: 0.5px"/>
    <polygon points="55.88 1152.22 108.02 1167.78 277.49 1162.53 225.34 1146.97 137.72 1149.68 55.88 1152.22" style="fill: none;stroke: #111026;stroke-linecap: round;stroke-linejoin: round;stroke-width: 0.5px"/>
    <polygon points="55.88 1151.34 108.02 1167.06 277.49 1161.76 225.34 1146.04 137.72 1148.78 55.88 1151.34" style="fill: none;stroke: #111026;stroke-linecap: round;stroke-linejoin: round;stroke-width: 0.5px"/>
    <polygon points="55.88 1150.45 108.02 1166.33 277.49 1160.98 225.34 1145.1 137.72 1147.87 55.88 1150.45" style="fill: none;stroke: #111026;stroke-linecap: round;stroke-linejoin: round;stroke-width: 0.5px"/>
    <polygon points="55.88 1149.56 108.02 1165.6 277.49 1160.19 225.34 1144.15 137.72 1146.94 55.88 1149.56" style="fill: none;stroke: #111026;stroke-linecap: round;stroke-linejoin: round;stroke-width: 0.5px"/>
    <polygon points="55.88 1148.65 108.02 1164.86 277.49 1159.39 225.34 1143.19 137.72 1146.01 55.88 1148.65" style="fill: none;stroke: #111026;stroke-linecap: round;stroke-linejoin: round;stroke-width: 0.5px"/>
    <polygon points="55.88 1147.74 108.02 1164.11 277.49 1158.58 225.34 1142.22 137.72 1145.07 55.88 1147.74" style="fill: none;stroke: #111026;stroke-linecap: round;stroke-linejoin: round;stroke-width: 0.5px"/>
    <polygon points="55.88 1146.82 108.02 1163.35 277.49 1157.77 225.34 1141.24 137.72 1144.12 55.88 1146.82" style="fill: none;stroke: #111026;stroke-linecap: round;stroke-linejoin: round;stroke-width: 0.5px"/>
    <polygon points="55.88 1145.88 108.02 1162.58 277.49 1156.95 225.34 1140.25 137.72 1143.16 55.88 1145.88" style="fill: none;stroke: #111026;stroke-linecap: round;stroke-linejoin: round;stroke-width: 0.5px"/>
    <polygon points="55.88 1144.94 108.02 1161.81 277.49 1156.12 225.34 1139.25 137.72 1142.19 55.88 1144.94" style="fill: none;stroke: #111026;stroke-linecap: round;stroke-linejoin: round;stroke-width: 0.5px"/>
    <polygon points="55.88 1143.99 108.02 1161.03 277.49 1155.28 225.34 1138.24 137.72 1141.21 55.88 1143.99" style="fill: none;stroke: #111026;stroke-linecap: round;stroke-linejoin: round;stroke-width: 0.5px"/>
    <polygon points="55.88 1143.03 108.02 1160.24 277.49 1154.43 225.34 1137.22 137.72 1140.22 55.88 1143.03" style="fill: none;stroke: #111026;stroke-linecap: round;stroke-linejoin: round;stroke-width: 0.5px"/>
    <polygon points="55.88 1142.06 108.02 1159.44 277.49 1153.58 225.34 1136.19 137.72 1139.22 55.88 1142.06" style="fill: none;stroke: #111026;stroke-linecap: round;stroke-linejoin: round;stroke-width: 0.5px"/>
    <polygon points="55.88 1141.08 108.02 1158.63 277.49 1152.71 225.34 1135.15 137.72 1138.22 55.88 1141.08" style="fill: none;stroke: #111026;stroke-linecap: round;stroke-linejoin: round;stroke-width: 0.5px"/>
    <polygon points="55.88 1140.09 108.02 1157.82 277.49 1151.84 225.34 1134.1 137.72 1137.2 55.88 1140.09" style="fill: none;stroke: #111026;stroke-linecap: round;stroke-linejoin: round;stroke-width: 0.5px"/>
    <polygon points="55.88 1139.09 108.02 1157 277.49 1150.96 225.34 1133.04 137.72 1136.17 55.88 1139.09" style="fill: none;stroke: #111026;stroke-linecap: round;stroke-linejoin: round;stroke-width: 0.5px"/>
    <polygon points="55.88 1138.07 108.02 1156.17 277.49 1150.07 225.34 1131.97 137.72 1135.13 55.88 1138.07" style="fill: none;stroke: #111026;stroke-linecap: round;stroke-linejoin: round;stroke-width: 0.5px"/>
    <polygon points="55.88 1137.05 108.02 1155.33 277.49 1149.17 225.34 1130.89 137.72 1134.08 55.88 1137.05" style="fill: none;stroke: #111026;stroke-linecap: round;stroke-linejoin: round;stroke-width: 0.5px"/>
    <polygon points="55.88 1136.02 108.02 1154.49 277.49 1148.26 225.34 1129.79 137.72 1133.01 55.88 1136.02" style="fill: none;stroke: #111026;stroke-linecap: round;stroke-linejoin: round;stroke-width: 0.5px"/>
    <polygon points="55.88 1134.98 108.02 1153.63 277.49 1147.34 225.34 1128.69 137.72 1131.94 55.88 1134.98" style="fill: none;stroke: #111026;stroke-linecap: round;stroke-linejoin: round;stroke-width: 0.5px"/>
    <polygon points="55.88 1133.93 108.02 1152.77 277.49 1146.41 225.34 1127.57 137.72 1130.86 55.88 1133.93" style="fill: none;stroke: #111026;stroke-linecap: round;stroke-linejoin: round;stroke-width: 0.5px"/>
    <polygon points="55.88 1132.87 108.02 1151.89 277.49 1145.47 225.34 1126.45 137.72 1129.77 55.88 1132.87" style="fill: none;stroke: #111026;stroke-linecap: round;stroke-linejoin: round;stroke-width: 0.5px"/>
    <polygon points="55.88 1131.79 108.02 1151.01 277.49 1144.53 225.34 1125.31 137.72 1128.66 55.88 1131.79" style="fill: none;stroke: #111026;stroke-linecap: round;stroke-linejoin: round;stroke-width: 0.5px"/>
    <polygon points="55.88 1130.71 108.02 1150.12 277.49 1143.57 225.34 1124.16 137.72 1127.54 55.88 1130.71" style="fill: none;stroke: #111026;stroke-linecap: round;stroke-linejoin: round;stroke-width: 0.5px"/>
    <polygon points="55.88 1129.61 108.02 1149.22 277.49 1142.61 225.34 1123 137.72 1126.42 55.88 1129.61" style="fill: none;stroke: #111026;stroke-linecap: round;stroke-linejoin: round;stroke-width: 0.5px"/>
    <polygon points="55.88 1128.51 108.02 1148.32 277.49 1141.63 225.34 1121.82 137.72 1125.28 55.88 1128.51" style="fill: none;stroke: #111026;stroke-linecap: round;stroke-linejoin: round;stroke-width: 0.5px"/>
    <polygon points="55.88 1127.39 108.02 1147.4 277.49 1140.65 225.34 1120.64 137.72 1124.13 55.88 1127.39" style="fill: none;stroke: #111026;stroke-linecap: round;stroke-linejoin: round;stroke-width: 0.5px"/>
    <polygon points="55.88 1126.26 108.02 1146.47 277.49 1139.65 225.34 1119.44 137.72 1122.97 55.88 1126.26" style="fill: none;stroke: #111026;stroke-linecap: round;stroke-linejoin: round;stroke-width: 0.5px"/>
    <polygon points="55.88 1125.12 108.02 1145.53 277.49 1138.65 225.34 1118.23 137.72 1121.79 55.88 1125.12" style="fill: none;stroke: #111026;stroke-linecap: round;stroke-linejoin: round;stroke-width: 0.5px"/>
    <polygon points="55.88 1123.97 108.02 1144.59 277.49 1137.63 225.34 1117.01 137.72 1120.61 55.88 1123.97" style="fill: none;stroke: #111026;stroke-linecap: round;stroke-linejoin: round;stroke-width: 0.5px"/>
    <polygon points="55.88 1122.8 108.02 1143.63 277.49 1136.61 225.34 1115.78 137.72 1119.41 55.88 1122.8" style="fill: none;stroke: #111026;stroke-linecap: round;stroke-linejoin: round;stroke-width: 0.5px"/>
    <polygon points="55.88 1121.63 108.02 1142.67 277.49 1135.57 225.34 1114.53 137.72 1118.2 55.88 1121.63" style="fill: none;stroke: #111026;stroke-linecap: round;stroke-linejoin: round;stroke-width: 0.5px"/>
    <polygon points="55.88 1120.44 108.02 1141.69 277.49 1134.53 225.34 1113.27 137.72 1116.98 55.88 1120.44" style="fill: none;stroke: #111026;stroke-linecap: round;stroke-linejoin: round;stroke-width: 0.5px"/>
    <polygon points="55.88 1119.24 108.02 1140.71 277.49 1133.47 225.34 1112 137.72 1115.74 55.88 1119.24" style="fill: none;stroke: #111026;stroke-linecap: round;stroke-linejoin: round;stroke-width: 0.5px"/>
    <polygon points="55.88 1118.03 108.02 1139.72 277.49 1132.4 225.34 1110.72 137.72 1114.5 55.88 1118.03" style="fill: none;stroke: #111026;stroke-linecap: round;stroke-linejoin: round;stroke-width: 0.5px"/>
    <polygon points="55.88 1116.81 108.02 1138.71 277.49 1131.32 225.34 1109.42 137.72 1113.24 55.88 1116.81" style="fill: none;stroke: #111026;stroke-linecap: round;stroke-linejoin: round;stroke-width: 0.5px"/>
    <polygon points="55.88 1115.57 108.02 1137.7 277.49 1130.23 225.34 1108.11 137.72 1111.97 55.88 1115.57" style="fill: none;stroke: #111026;stroke-linecap: round;stroke-linejoin: round;stroke-width: 0.5px"/>
    <polygon points="55.88 1114.32 108.02 1136.67 277.49 1129.13 225.34 1106.78 137.72 1110.68 55.88 1114.32" style="fill: none;stroke: #111026;stroke-linecap: round;stroke-linejoin: round;stroke-width: 0.5px"/>
    <polygon points="55.88 1113.06 108.02 1135.64 277.49 1128.02 225.34 1105.45 137.72 1109.38 55.88 1113.06" style="fill: none;stroke: #111026;stroke-linecap: round;stroke-linejoin: round;stroke-width: 0.5px"/>
    <polygon points="55.88 1111.79 108.02 1134.59 277.49 1126.9 225.34 1104.1 137.72 1108.07 55.88 1111.79" style="fill: none;stroke: #111026;stroke-linecap: round;stroke-linejoin: round;stroke-width: 0.5px"/>
    <polygon points="55.88 1110.5 108.02 1133.54 277.49 1125.77 225.34 1102.73 137.72 1106.75 55.88 1110.5" style="fill: none;stroke: #111026;stroke-linecap: round;stroke-linejoin: round;stroke-width: 0.5px"/>
    <polygon points="55.88 1109.2 108.02 1132.47 277.49 1124.62 225.34 1101.35 137.72 1105.41 55.88 1109.2" style="fill: none;stroke: #111026;stroke-linecap: round;stroke-linejoin: round;stroke-width: 0.5px"/>
    <polygon points="55.88 1107.89 108.02 1131.39 277.49 1123.46 225.34 1099.96 137.72 1104.06 55.88 1107.89" style="fill: none;stroke: #111026;stroke-linecap: round;stroke-linejoin: round;stroke-width: 0.5px"/>
    <polygon points="55.88 1106.56 108.02 1130.3 277.49 1122.29 225.34 1098.56 137.72 1102.7 55.88 1106.56" style="fill: none;stroke: #111026;stroke-linecap: round;stroke-linejoin: round;stroke-width: 0.5px"/>
    <polygon points="55.88 1105.22 108.02 1129.2 277.49 1121.11 225.34 1097.14 137.72 1101.32 55.88 1105.22" style="fill: none;stroke: #111026;stroke-linecap: round;stroke-linejoin: round;stroke-width: 0.5px"/>
    <polygon points="55.88 1103.87 108.02 1128.09 277.49 1119.92 225.34 1095.7 137.72 1099.93 55.88 1103.87" style="fill: none;stroke: #111026;stroke-linecap: round;stroke-linejoin: round;stroke-width: 0.5px"/>
    <polygon points="55.88 1102.51 108.02 1126.97 277.49 1118.72 225.34 1094.25 137.72 1098.52 55.88 1102.51" style="fill: none;stroke: #111026;stroke-linecap: round;stroke-linejoin: round;stroke-width: 0.5px"/>
    <polygon points="55.88 1101.13 108.02 1125.84 277.49 1117.5 225.34 1092.79 137.72 1097.1 55.88 1101.13" style="fill: none;stroke: #111026;stroke-linecap: round;stroke-linejoin: round;stroke-width: 0.5px"/>
    <polygon points="55.88 1099.73 108.02 1124.69 277.49 1116.27 225.34 1091.31 137.72 1095.66 55.88 1099.73" style="fill: none;stroke: #111026;stroke-linecap: round;stroke-linejoin: round;stroke-width: 0.5px"/>
    <polygon points="55.88 1098.32 108.02 1123.54 277.49 1115.03 225.34 1089.82 137.72 1094.21 55.88 1098.32" style="fill: none;stroke: #111026;stroke-linecap: round;stroke-linejoin: round;stroke-width: 0.5px"/>
    <polygon points="55.88 1096.9 108.02 1122.37 277.49 1113.78 225.34 1088.31 137.72 1092.75 55.88 1096.9" style="fill: none;stroke: #111026;stroke-linecap: round;stroke-linejoin: round;stroke-width: 0.5px"/>
    <polygon points="55.88 1095.46 108.02 1121.19 277.49 1112.51 225.34 1086.79 137.72 1091.27 55.88 1095.46" style="fill: none;stroke: #111026;stroke-linecap: round;stroke-linejoin: round;stroke-width: 0.5px"/>
    <polygon points="55.88 1094.01 108.02 1120 277.49 1111.23 225.34 1085.25 137.72 1089.78 55.88 1094.01" style="fill: none;stroke: #111026;stroke-linecap: round;stroke-linejoin: round;stroke-width: 0.5px"/>
    <polygon points="55.88 1092.55 108.02 1118.79 277.49 1109.94 225.34 1083.69 137.72 1088.27 55.88 1092.55" style="fill: none;stroke: #111026;stroke-linecap: round;stroke-linejoin: round;stroke-width: 0.5px"/>
    <polygon points="55.88 1091.07 108.02 1117.58 277.49 1108.63 225.34 1082.12 137.72 1086.75 55.88 1091.07" style="fill: none;stroke: #111026;stroke-linecap: round;stroke-linejoin: round;stroke-width: 0.5px"/>
    <polygon points="55.88 1089.57 108.02 1116.35 277.49 1107.32 225.34 1080.54 137.72 1085.21 55.88 1089.57" style="fill: none;stroke: #111026;stroke-linecap: round;stroke-linejoin: round;stroke-width: 0.5px"/>
    <polygon points="55.88 1088.06 108.02 1115.11 277.49 1105.98 225.34 1078.93 137.72 1083.65 55.88 1088.06" style="fill: none;stroke: #111026;stroke-linecap: round;stroke-linejoin: round;stroke-width: 0.5px"/>
    <polygon points="55.88 1086.53 108.02 1113.86 277.49 1104.64 225.34 1077.32 137.72 1082.08 55.88 1086.53" style="fill: none;stroke: #111026;stroke-linecap: round;stroke-linejoin: round;stroke-width: 0.5px"/>
    <polygon points="55.88 1084.99 108.02 1112.59 277.49 1103.28 225.34 1075.68 137.72 1080.49 55.88 1084.99" style="fill: none;stroke: #111026;stroke-linecap: round;stroke-linejoin: round;stroke-width: 0.5px"/>
    <polygon points="55.88 1083.43 108.02 1111.31 277.49 1101.91 225.34 1074.03 137.72 1078.89 55.88 1083.43" style="fill: none;stroke: #111026;stroke-linecap: round;stroke-linejoin: round;stroke-width: 0.5px"/>
    <polygon points="55.88 1081.86 108.02 1110.02 277.49 1100.52 225.34 1072.36 137.72 1077.27 55.88 1081.86" style="fill: none;stroke: #111026;stroke-linecap: round;stroke-linejoin: round;stroke-width: 0.5px"/>
    <polygon points="55.88 1080.27 108.02 1108.72 277.49 1099.12 225.34 1070.68 137.72 1075.64 55.88 1080.27" style="fill: none;stroke: #111026;stroke-linecap: round;stroke-linejoin: round;stroke-width: 0.5px"/>
    <polygon points="55.88 1078.67 108.02 1107.4 277.49 1097.71 225.34 1068.97 137.72 1073.99 55.88 1078.67" style="fill: none;stroke: #111026;stroke-linecap: round;stroke-linejoin: round;stroke-width: 0.5px"/>
    <polygon points="55.88 1077.05 108.02 1106.07 277.49 1096.28 225.34 1067.26 137.72 1072.32 55.88 1077.05" style="fill: none;stroke: #111026;stroke-linecap: round;stroke-linejoin: round;stroke-width: 0.5px"/>
    <polygon points="55.88 1075.41 108.02 1104.72 277.49 1094.84 225.34 1065.52 137.72 1070.63 55.88 1075.41" style="fill: none;stroke: #111026;stroke-linecap: round;stroke-linejoin: round;stroke-width: 0.5px"/>
    <polygon points="55.88 1073.76 108.02 1103.37 277.49 1093.38 225.34 1063.77 137.72 1068.93 55.88 1073.76" style="fill: none;stroke: #111026;stroke-linecap: round;stroke-linejoin: round;stroke-width: 0.5px"/>
    <polygon points="55.88 1072.08 108.02 1101.99 277.49 1091.9 225.34 1061.99 137.72 1067.21 55.88 1072.08" style="fill: none;stroke: #111026;stroke-linecap: round;stroke-linejoin: round;stroke-width: 0.5px"/>
    <polygon points="55.88 1070.4 108.02 1100.61 277.49 1090.42 225.34 1060.2 137.72 1065.47 55.88 1070.4" style="fill: none;stroke: #111026;stroke-linecap: round;stroke-linejoin: round;stroke-width: 0.5px"/>
    <polygon points="55.88 1068.69 108.02 1099.21 277.49 1088.91 225.34 1058.4 137.72 1063.72 55.88 1068.69" style="fill: none;stroke: #111026;stroke-linecap: round;stroke-linejoin: round;stroke-width: 0.5px"/>
    <polygon points="55.88 1066.97 108.02 1097.8 277.49 1087.4 225.34 1056.57 137.72 1061.95 55.88 1066.97" style="fill: none;stroke: #111026;stroke-linecap: round;stroke-linejoin: round;stroke-width: 0.5px"/>
    <polygon points="55.88 1065.23 108.02 1096.37 277.49 1085.87 225.34 1054.73 137.72 1060.16 55.88 1065.23" style="fill: none;stroke: #111026;stroke-linecap: round;stroke-linejoin: round;stroke-width: 0.5px"/>
    <polygon points="55.88 1063.47 108.02 1094.93 277.49 1084.32 225.34 1052.86 137.72 1058.35 55.88 1063.47" style="fill: none;stroke: #111026;stroke-linecap: round;stroke-linejoin: round;stroke-width: 0.5px"/>
    <polygon points="55.88 1061.7 108.02 1093.47 277.49 1082.75 225.34 1050.98 137.72 1056.52 55.88 1061.7" style="fill: none;stroke: #111026;stroke-linecap: round;stroke-linejoin: round;stroke-width: 0.5px"/>
    <polygon points="55.88 1059.91 108.02 1092 277.49 1081.17 225.34 1049.08 137.72 1054.68 55.88 1059.91" style="fill: none;stroke: #111026;stroke-linecap: round;stroke-linejoin: round;stroke-width: 0.5px"/>
    <polygon points="55.88 1058.1 108.02 1090.51 277.49 1079.58 225.34 1047.16 137.72 1052.82 55.88 1058.1" style="fill: none;stroke: #111026;stroke-linecap: round;stroke-linejoin: round;stroke-width: 0.5px"/>
    <polygon points="55.88 1056.27 108.02 1089.01 277.49 1077.96 225.34 1045.22 137.72 1050.93 55.88 1056.27" style="fill: none;stroke: #111026;stroke-linecap: round;stroke-linejoin: round;stroke-width: 0.5px"/>
    <polygon points="55.88 1054.42 108.02 1087.49 277.49 1076.34 225.34 1043.26 137.72 1049.03 55.88 1054.42" style="fill: none;stroke: #111026;stroke-linecap: round;stroke-linejoin: round;stroke-width: 0.5px"/>
    <polygon points="55.88 1052.55 108.02 1085.96 277.49 1074.69 225.34 1041.29 137.72 1047.11 55.88 1052.55" style="fill: none;stroke: #111026;stroke-linecap: round;stroke-linejoin: round;stroke-width: 0.5px"/>
    <polygon points="55.88 1050.67 108.02 1084.41 277.49 1073.03 225.34 1039.29 137.72 1045.17 55.88 1050.67" style="fill: none;stroke: #111026;stroke-linecap: round;stroke-linejoin: round;stroke-width: 0.5px"/>
    <polygon points="55.88 1048.77 108.02 1082.85 277.49 1071.35 225.34 1037.27 137.72 1043.21 55.88 1048.77" style="fill: none;stroke: #111026;stroke-linecap: round;stroke-linejoin: round;stroke-width: 0.5px"/>
    <polygon points="55.88 1046.84 108.02 1081.27 277.49 1069.66 225.34 1035.23 137.72 1041.23 55.88 1046.84" style="fill: none;stroke: #111026;stroke-linecap: round;stroke-linejoin: round;stroke-width: 0.5px"/>
    <polygon points="55.88 1044.9 108.02 1079.68 277.49 1067.95 225.34 1033.17 137.72 1039.23 55.88 1044.9" style="fill: none;stroke: #111026;stroke-linecap: round;stroke-linejoin: round;stroke-width: 0.5px"/>
    <polygon points="55.88 1042.94 108.02 1078.07 277.49 1066.22 225.34 1031.09 137.72 1037.21 55.88 1042.94" style="fill: none;stroke: #111026;stroke-linecap: round;stroke-linejoin: round;stroke-width: 0.5px"/>
    <polygon points="55.88 1040.96 108.02 1076.44 277.49 1064.47 225.34 1028.99 137.72 1035.17 55.88 1040.96" style="fill: none;stroke: #111026;stroke-linecap: round;stroke-linejoin: round;stroke-width: 0.5px"/>
    <polygon points="55.88 1038.95 108.02 1074.8 277.49 1062.7 225.34 1026.86 137.72 1033.11 55.88 1038.95" style="fill: none;stroke: #111026;stroke-linecap: round;stroke-linejoin: round;stroke-width: 0.5px"/>
    <polygon points="55.88 1036.93 108.02 1073.14 277.49 1060.92 225.34 1024.72 137.72 1031.03 55.88 1036.93" style="fill: none;stroke: #111026;stroke-linecap: round;stroke-linejoin: round;stroke-width: 0.5px"/>
    <polygon points="55.88 1034.89 108.02 1071.46 277.49 1059.12 225.34 1022.55 137.72 1028.93 55.88 1034.89" style="fill: none;stroke: #111026;stroke-linecap: round;stroke-linejoin: round;stroke-width: 0.5px"/>
    <polygon points="55.88 1032.83 108.02 1069.77 277.49 1057.3 225.34 1020.37 137.72 1026.81 55.88 1032.83" style="fill: none;stroke: #111026;stroke-linecap: round;stroke-linejoin: round;stroke-width: 0.5px"/>
    <polygon points="55.88 1030.74 108.02 1068.06 277.49 1055.47 225.34 1018.15 137.72 1024.66 55.88 1030.74" style="fill: none;stroke: #111026;stroke-linecap: round;stroke-linejoin: round;stroke-width: 0.5px"/>
    <polygon points="55.88 1028.64 108.02 1066.33 277.49 1053.61 225.34 1015.92 137.72 1022.5 55.88 1028.64" style="fill: none;stroke: #111026;stroke-linecap: round;stroke-linejoin: round;stroke-width: 0.5px"/>
    <polygon points="55.88 1026.51 108.02 1064.58 277.49 1051.74 225.34 1013.67 137.72 1020.31 55.88 1026.51" style="fill: none;stroke: #111026;stroke-linecap: round;stroke-linejoin: round;stroke-width: 0.5px"/>
    <polygon points="55.88 1024.36 108.02 1062.82 277.49 1049.85 225.34 1011.39 137.72 1018.1 55.88 1024.36" style="fill: none;stroke: #111026;stroke-linecap: round;stroke-linejoin: round;stroke-width: 0.5px"/>
    <polygon points="55.88 1022.19 108.02 1061.04 277.49 1047.93 225.34 1009.09 137.72 1015.86 55.88 1022.19" style="fill: none;stroke: #111026;stroke-linecap: round;stroke-linejoin: round;stroke-width: 0.5px"/>
    <polygon points="55.88 1020 108.02 1059.24 277.49 1046 225.34 1006.77 137.72 1013.61 55.88 1020" style="fill: none;stroke: #111026;stroke-linecap: round;stroke-linejoin: round;stroke-width: 0.5px"/>
    <polygon points="55.88 1017.79 108.02 1057.42 277.49 1044.05 225.34 1004.42 137.72 1011.33 55.88 1017.79" style="fill: none;stroke: #111026;stroke-linecap: round;stroke-linejoin: round;stroke-width: 0.5px"/>
    <polygon points="55.88 1015.55 108.02 1055.58 277.49 1042.08 225.34 1002.05 137.72 1009.03 55.88 1015.55" style="fill: none;stroke: #111026;stroke-linecap: round;stroke-linejoin: round;stroke-width: 0.5px"/>
    <polygon points="55.88 1013.29 108.02 1053.73 277.49 1040.09 225.34 999.65 137.72 1006.71 55.88 1013.29" style="fill: none;stroke: #111026;stroke-linecap: round;stroke-linejoin: round;stroke-width: 0.5px"/>
    <polygon points="55.88 1011.01 108.02 1051.86 277.49 1038.08 225.34 997.23 137.72 1004.36 55.88 1011.01" style="fill: none;stroke: #111026;stroke-linecap: round;stroke-linejoin: round;stroke-width: 0.5px"/>
    <polygon points="55.88 1008.71 108.02 1049.96 277.49 1036.05 225.34 994.79 137.72 1001.99 55.88 1008.71" style="fill: none;stroke: #111026;stroke-linecap: round;stroke-linejoin: round;stroke-width: 0.5px"/>
    <polygon points="55.88 1006.38 108.02 1048.05 277.49 1034 225.34 992.32 137.72 999.59 55.88 1006.38" style="fill: none;stroke: #111026;stroke-linecap: round;stroke-linejoin: round;stroke-width: 0.5px"/>
    <polygon points="55.88 1004.03 108.02 1046.12 277.49 1031.92 225.34 989.83 137.72 997.17 55.88 1004.03" style="fill: none;stroke: #111026;stroke-linecap: round;stroke-linejoin: round;stroke-width: 0.5px"/>
    <polygon points="55.88 1001.65 108.02 1044.17 277.49 1029.83 225.34 987.31 137.72 994.73 55.88 1001.65" style="fill: none;stroke: #111026;stroke-linecap: round;stroke-linejoin: round;stroke-width: 0.5px"/>
    <polygon points="55.88 999.25 108.02 1042.2 277.49 1027.72 225.34 984.77 137.72 992.26 55.88 999.25" style="fill: none;stroke: #111026;stroke-linecap: round;stroke-linejoin: round;stroke-width: 0.5px"/>
    <polygon points="55.88 996.83 108.02 1040.21 277.49 1025.58 225.34 982.2 137.72 989.76 55.88 996.83" style="fill: none;stroke: #111026;stroke-linecap: round;stroke-linejoin: round;stroke-width: 0.5px"/>
    <polygon points="55.88 994.38 108.02 1038.21 277.49 1023.42 225.34 979.6 137.72 987.24 55.88 994.38" style="fill: none;stroke: #111026;stroke-linecap: round;stroke-linejoin: round;stroke-width: 0.5px"/>
    <polygon points="55.88 991.91 108.02 1036.18 277.49 1021.24 225.34 976.98 137.72 984.7 55.88 991.91" style="fill: none;stroke: #111026;stroke-linecap: round;stroke-linejoin: round;stroke-width: 0.5px"/>
    <polygon points="55.88 989.41 108.02 1034.13 277.49 1019.04 225.34 974.33 137.72 982.13 55.88 989.41" style="fill: none;stroke: #111026;stroke-linecap: round;stroke-linejoin: round;stroke-width: 0.5px"/>
    <polygon points="55.88 986.89 108.02 1032.06 277.49 1016.82 225.34 971.66 137.72 979.53 55.88 986.89" style="fill: none;stroke: #111026;stroke-linecap: round;stroke-linejoin: round;stroke-width: 0.5px"/>
    <polygon points="55.88 984.34 108.02 1029.96 277.49 1014.57 225.34 968.95 137.72 976.91 55.88 984.34" style="fill: none;stroke: #111026;stroke-linecap: round;stroke-linejoin: round;stroke-width: 0.5px"/>
    <polygon points="55.88 981.77 108.02 1027.85 277.49 1012.3 225.34 966.23 137.72 974.26 55.88 981.77" style="fill: none;stroke: #111026;stroke-linecap: round;stroke-linejoin: round;stroke-width: 0.5px"/>
    <polygon points="55.88 979.17 108.02 1025.72 277.49 1010.01 225.34 963.47 137.72 971.59 55.88 979.17" style="fill: none;stroke: #111026;stroke-linecap: round;stroke-linejoin: round;stroke-width: 0.5px"/>
    <polygon points="55.88 976.54 108.02 1023.56 277.49 1007.7 225.34 960.68 137.72 968.88 55.88 976.54" style="fill: none;stroke: #111026;stroke-linecap: round;stroke-linejoin: round;stroke-width: 0.5px"/>
    <polygon points="55.88 973.89 108.02 1021.38 277.49 1005.36 225.34 957.87 137.72 966.15 55.88 973.89" style="fill: none;stroke: #111026;stroke-linecap: round;stroke-linejoin: round;stroke-width: 0.5px"/>
    <polygon points="55.88 971.21 108.02 1019.18 277.49 1003 225.34 955.03 137.72 963.4 55.88 971.21" style="fill: none;stroke: #111026;stroke-linecap: round;stroke-linejoin: round;stroke-width: 0.5px"/>
    <polygon points="55.88 968.5 108.02 1016.96 277.49 1000.62 225.34 952.16 137.72 960.61 55.88 968.5" style="fill: none;stroke: #111026;stroke-linecap: round;stroke-linejoin: round;stroke-width: 0.5px"/>
    <polygon points="55.88 965.77 108.02 1014.72 277.49 998.21 225.34 949.26 137.72 957.8 55.88 965.77" style="fill: none;stroke: #111026;stroke-linecap: round;stroke-linejoin: round;stroke-width: 0.5px"/>
    <polygon points="55.88 963.01 108.02 1012.45 277.49 995.77 225.34 946.33 137.72 954.96 55.88 963.01" style="fill: none;stroke: #111026;stroke-linecap: round;stroke-linejoin: round;stroke-width: 0.5px"/>
    <polygon points="55.88 960.22 108.02 1010.16 277.49 993.31 225.34 943.37 137.72 952.08 55.88 960.22" style="fill: none;stroke: #111026;stroke-linecap: round;stroke-linejoin: round;stroke-width: 0.5px"/>
    <polygon points="55.88 957.4 108.02 1007.85 277.49 990.83 225.34 940.39 137.72 949.18 55.88 957.4" style="fill: none;stroke: #111026;stroke-linecap: round;stroke-linejoin: round;stroke-width: 0.5px"/>
    <polygon points="55.88 954.56 108.02 1005.51 277.49 988.32 225.34 937.37 137.72 946.26 55.88 954.56" style="fill: none;stroke: #111026;stroke-linecap: round;stroke-linejoin: round;stroke-width: 0.5px"/>
    <polygon points="55.88 951.68 108.02 1003.15 277.49 985.79 225.34 934.32 137.72 943.3 55.88 951.68" style="fill: none;stroke: #111026;stroke-linecap: round;stroke-linejoin: round;stroke-width: 0.5px"/>
    <polygon points="55.88 948.78 108.02 1000.77 277.49 983.23 225.34 931.24 137.72 940.31 55.88 948.78" style="fill: none;stroke: #111026;stroke-linecap: round;stroke-linejoin: round;stroke-width: 0.5px"/>
    <polygon points="55.88 945.85 108.02 998.36 277.49 980.64 225.34 928.13 137.72 937.29 55.88 945.85" style="fill: none;stroke: #111026;stroke-linecap: round;stroke-linejoin: round;stroke-width: 0.5px"/>
    <polygon points="55.88 942.88 108.02 995.93 277.49 978.03 225.34 924.99 137.72 934.24 55.88 942.88" style="fill: none;stroke: #111026;stroke-linecap: round;stroke-linejoin: round;stroke-width: 0.5px"/>
    <polygon points="55.88 939.89 108.02 993.47 277.49 975.39 225.34 921.82 137.72 931.16 55.88 939.89" style="fill: none;stroke: #111026;stroke-linecap: round;stroke-linejoin: round;stroke-width: 0.5px"/>
    <polygon points="55.88 936.87 108.02 990.99 277.49 972.73 225.34 918.61 137.72 928.05 55.88 936.87" style="fill: none;stroke: #111026;stroke-linecap: round;stroke-linejoin: round;stroke-width: 0.5px"/>
    <polygon points="55.88 933.81 108.02 988.48 277.49 970.04 225.34 915.37 137.72 924.91 55.88 933.81" style="fill: none;stroke: #111026;stroke-linecap: round;stroke-linejoin: round;stroke-width: 0.5px"/>
    <polygon points="55.88 930.73 108.02 985.95 277.49 967.32 225.34 912.1 137.72 921.73 55.88 930.73" style="fill: none;stroke: #111026;stroke-linecap: round;stroke-linejoin: round;stroke-width: 0.5px"/>
    <polygon points="55.88 927.62 108.02 983.39 277.49 964.58 225.34 908.8 137.72 918.53 55.88 927.62" style="fill: none;stroke: #111026;stroke-linecap: round;stroke-linejoin: round;stroke-width: 0.5px"/>
    <polygon points="55.88 924.47 108.02 980.81 277.49 961.8 225.34 905.46 137.72 915.29 55.88 924.47" style="fill: none;stroke: #111026;stroke-linecap: round;stroke-linejoin: round;stroke-width: 0.5px"/>
    <polygon points="55.88 921.29 108.02 978.2 277.49 959 225.34 902.09 137.72 912.02 55.88 921.29" style="fill: none;stroke: #111026;stroke-linecap: round;stroke-linejoin: round;stroke-width: 0.5px"/>
    <polygon points="55.88 918.08 108.02 975.56 277.49 956.17 225.34 898.69 137.72 908.71 55.88 918.08" style="fill: none;stroke: #111026;stroke-linecap: round;stroke-linejoin: round;stroke-width: 0.5px"/>
    <polygon points="55.88 914.84 108.02 972.9 277.49 953.31 225.34 895.25 137.72 905.38 55.88 914.84" style="fill: none;stroke: #111026;stroke-linecap: round;stroke-linejoin: round;stroke-width: 0.5px"/>
    <polygon points="55.88 911.56 108.02 970.21 277.49 950.42 225.34 891.77 137.72 902 55.88 911.56" style="fill: none;stroke: #111026;stroke-linecap: round;stroke-linejoin: round;stroke-width: 0.5px"/>
    <polygon points="55.88 908.25 108.02 967.49 277.49 947.51 225.34 888.26 137.72 898.6 55.88 908.25" style="fill: none;stroke: #111026;stroke-linecap: round;stroke-linejoin: round;stroke-width: 0.5px"/>
    <polygon points="55.88 904.91 108.02 964.75 277.49 944.56 225.34 884.72 137.72 895.16 55.88 904.91" style="fill: none;stroke: #111026;stroke-linecap: round;stroke-linejoin: round;stroke-width: 0.5px"/>
    <polygon points="55.88 901.53 108.02 961.98 277.49 941.59 225.34 881.14 137.72 891.68 55.88 901.53" style="fill: none;stroke: #111026;stroke-linecap: round;stroke-linejoin: round;stroke-width: 0.5px"/>
    <polygon points="55.88 898.12 108.02 959.18 277.49 938.58 225.34 877.52 137.72 888.17 55.88 898.12" style="fill: none;stroke: #111026;stroke-linecap: round;stroke-linejoin: round;stroke-width: 0.5px"/>
    <polygon points="55.88 894.68 108.02 956.35 277.49 935.54 225.34 873.87 137.72 884.63 55.88 894.68" style="fill: none;stroke: #111026;stroke-linecap: round;stroke-linejoin: round;stroke-width: 0.5px"/>
    <polygon points="55.88 891.2 108.02 953.49 277.49 932.48 225.34 870.18 137.72 881.05 55.88 891.2" style="fill: none;stroke: #111026;stroke-linecap: round;stroke-linejoin: round;stroke-width: 0.5px"/>
    <polygon points="55.88 887.68 108.02 950.61 277.49 929.38 225.34 866.46 137.72 877.43 55.88 887.68" style="fill: none;stroke: #111026;stroke-linecap: round;stroke-linejoin: round;stroke-width: 0.5px"/>
    <polygon points="55.88 884.13 108.02 947.69 277.49 926.25 225.34 862.69 137.72 873.78 55.88 884.13" style="fill: none;stroke: #111026;stroke-linecap: round;stroke-linejoin: round;stroke-width: 0.5px"/>
    <polygon points="55.88 880.55 108.02 944.75 277.49 923.09 225.34 858.89 137.72 870.09 55.88 880.55" style="fill: none;stroke: #111026;stroke-linecap: round;stroke-linejoin: round;stroke-width: 0.5px"/>
    <polygon points="55.88 876.92 108.02 941.78 277.49 919.9 225.34 855.05 137.72 866.36 55.88 876.92" style="fill: none;stroke: #111026;stroke-linecap: round;stroke-linejoin: round;stroke-width: 0.5px"/>
    <polygon points="55.88 873.26 108.02 938.77 277.49 916.67 225.34 851.17 137.72 862.59 55.88 873.26" style="fill: none;stroke: #111026;stroke-linecap: round;stroke-linejoin: round;stroke-width: 0.5px"/>
    <polygon points="55.88 869.57 108.02 935.74 277.49 913.42 225.34 847.25 137.72 858.79 55.88 869.57" style="fill: none;stroke: #111026;stroke-linecap: round;stroke-linejoin: round;stroke-width: 0.5px"/>
    <polygon points="55.88 865.84 108.02 932.67 277.49 910.13 225.34 843.29 137.72 854.95 55.88 865.84" style="fill: none;stroke: #111026;stroke-linecap: round;stroke-linejoin: round;stroke-width: 0.5px"/>
    <polygon points="55.88 862.07 108.02 929.58 277.49 906.8 225.34 839.29 137.72 851.07 55.88 862.07" style="fill: none;stroke: #111026;stroke-linecap: round;stroke-linejoin: round;stroke-width: 0.5px"/>
    <polygon points="55.88 858.26 108.02 926.45 277.49 903.45 225.34 835.25 137.72 847.15 55.88 858.26" style="fill: none;stroke: #111026;stroke-linecap: round;stroke-linejoin: round;stroke-width: 0.5px"/>
    <polygon points="55.88 854.41 108.02 923.29 277.49 900.05 225.34 831.17 137.72 843.19 55.88 854.41" style="fill: none;stroke: #111026;stroke-linecap: round;stroke-linejoin: round;stroke-width: 0.5px"/>
    <polygon points="55.88 850.52 108.02 920.1 277.49 896.63 225.34 827.05 137.72 839.19 55.88 850.52" style="fill: none;stroke: #111026;stroke-linecap: round;stroke-linejoin: round;stroke-width: 0.5px"/>
    <polygon points="55.88 846.6 108.02 916.88 277.49 893.17 225.34 822.89 137.72 835.15 55.88 846.6" style="fill: none;stroke: #111026;stroke-linecap: round;stroke-linejoin: round;stroke-width: 0.5px"/>
    <polygon points="55.88 842.63 108.02 913.62 277.49 889.67 225.34 818.68 137.72 831.07 55.88 842.63" style="fill: none;stroke: #111026;stroke-linecap: round;stroke-linejoin: round;stroke-width: 0.5px"/>
    <polygon points="55.88 838.63 108.02 910.34 277.49 886.14 225.34 814.44 137.72 826.94 55.88 838.63" style="fill: none;stroke: #111026;stroke-linecap: round;stroke-linejoin: round;stroke-width: 0.5px"/>
    <polygon points="55.88 834.58 108.02 907.01 277.49 882.58 225.34 810.15 137.72 822.78 55.88 834.58" style="fill: none;stroke: #111026;stroke-linecap: round;stroke-linejoin: round;stroke-width: 0.5px"/>
    <polygon points="55.88 830.49 108.02 903.66 277.49 878.98 225.34 805.81 137.72 818.57 55.88 830.49" style="fill: none;stroke: #111026;stroke-linecap: round;stroke-linejoin: round;stroke-width: 0.5px"/>
    <polygon points="55.88 826.37 108.02 900.27 277.49 875.34 225.34 801.44 137.72 814.33 55.88 826.37" style="fill: none;stroke: #111026;stroke-linecap: round;stroke-linejoin: round;stroke-width: 0.5px"/>
    <polygon points="55.88 822.2 108.02 896.85 277.49 871.66 225.34 797.01 137.72 810.03 55.88 822.2" style="fill: none;stroke: #111026;stroke-linecap: round;stroke-linejoin: round;stroke-width: 0.5px"/>
    <polygon points="55.88 817.99 108.02 893.39 277.49 867.95 225.34 792.55 137.72 805.7 55.88 817.99" style="fill: none;stroke: #111026;stroke-linecap: round;stroke-linejoin: round;stroke-width: 0.5px"/>
    <polygon points="55.88 813.73 108.02 889.9 277.49 864.2 225.34 788.04 137.72 801.32 55.88 813.73" style="fill: none;stroke: #111026;stroke-linecap: round;stroke-linejoin: round;stroke-width: 0.5px"/>
    <polygon points="55.88 809.43 108.02 886.37 277.49 860.42 225.34 783.48 137.72 796.9 55.88 809.43" style="fill: none;stroke: #111026;stroke-linecap: round;stroke-linejoin: round;stroke-width: 0.5px"/>
    <polygon points="55.88 805.09 108.02 882.8 277.49 856.59 225.34 778.88 137.72 792.43 55.88 805.09" style="fill: none;stroke: #111026;stroke-linecap: round;stroke-linejoin: round;stroke-width: 0.5px"/>
    <polygon points="55.88 800.71 108.02 879.21 277.49 852.73 225.34 774.23 137.72 787.92 55.88 800.71" style="fill: none;stroke: #111026;stroke-linecap: round;stroke-linejoin: round;stroke-width: 0.5px"/>
    <polygon points="55.88 796.28 108.02 875.57 277.49 848.82 225.34 769.53 137.72 783.36 55.88 796.28" style="fill: none;stroke: #111026;stroke-linecap: round;stroke-linejoin: round;stroke-width: 0.5px"/>
    <polygon points="55.88 791.81 108.02 871.9 277.49 844.88 225.34 764.79 137.72 778.76 55.88 791.81" style="fill: none;stroke: #111026;stroke-linecap: round;stroke-linejoin: round;stroke-width: 0.5px"/>
    <polygon points="55.88 787.29 108.02 868.19 277.49 840.9 225.34 760 137.72 774.11 55.88 787.29" style="fill: none;stroke: #111026;stroke-linecap: round;stroke-linejoin: round;stroke-width: 0.5px"/>
    <polygon points="55.88 782.72 108.02 864.44 277.49 836.87 225.34 755.16 137.72 769.41 55.88 782.72" style="fill: none;stroke: #111026;stroke-linecap: round;stroke-linejoin: round;stroke-width: 0.5px"/>
    <polygon points="55.88 778.11 108.02 860.66 277.49 832.81 225.34 750.27 137.72 764.66 55.88 778.11" style="fill: none;stroke: #111026;stroke-linecap: round;stroke-linejoin: round;stroke-width: 0.5px"/>
    <polygon points="55.88 773.46 108.02 856.83 277.49 828.71 225.34 745.33 137.72 759.87 55.88 773.46" style="fill: none;stroke: #111026;stroke-linecap: round;stroke-linejoin: round;stroke-width: 0.5px"/>
    <polygon points="55.88 768.75 108.02 852.97 277.49 824.56 225.34 740.34 137.72 755.03 55.88 768.75" style="fill: none;stroke: #111026;stroke-linecap: round;stroke-linejoin: round;stroke-width: 0.5px"/>
    <polygon points="55.88 764 108.02 849.07 277.49 820.37 225.34 735.3 137.72 750.14 55.88 764" style="fill: none;stroke: #111026;stroke-linecap: round;stroke-linejoin: round;stroke-width: 0.5px"/>
    <polygon points="55.88 759.2 108.02 845.13 277.49 816.14 225.34 730.22 137.72 745.2 55.88 759.2" style="fill: none;stroke: #111026;stroke-linecap: round;stroke-linejoin: round;stroke-width: 0.5px"/>
    <polygon points="55.88 754.35 108.02 841.15 277.49 811.87 225.34 725.07 137.72 740.21 55.88 754.35" style="fill: none;stroke: #111026;stroke-linecap: round;stroke-linejoin: round;stroke-width: 0.5px"/>
    <polygon points="55.88 749.46 108.02 837.13 277.49 807.55 225.34 719.88 137.72 735.17 55.88 749.46" style="fill: none;stroke: #111026;stroke-linecap: round;stroke-linejoin: round;stroke-width: 0.5px"/>
    <polygon points="55.88 744.51 108.02 833.07 277.49 803.2 225.34 714.64 137.72 730.08 55.88 744.51" style="fill: none;stroke: #111026;stroke-linecap: round;stroke-linejoin: round;stroke-width: 0.5px"/>
    <polygon points="55.88 739.51 108.02 828.97 277.49 798.79 225.34 709.34 137.72 724.94 55.88 739.51" style="fill: none;stroke: #111026;stroke-linecap: round;stroke-linejoin: round;stroke-width: 0.5px"/>
    <polygon points="55.88 734.47 108.02 824.82 277.49 794.34 225.34 703.99 137.72 719.75 55.88 734.47" style="fill: none;stroke: #111026;stroke-linecap: round;stroke-linejoin: round;stroke-width: 0.5px"/>
    <polygon points="55.88 729.37 108.02 820.64 277.49 789.85 225.34 698.58 137.72 714.5 55.88 729.37" style="fill: none;stroke: #111026;stroke-linecap: round;stroke-linejoin: round;stroke-width: 0.5px"/>
    <polygon points="55.88 724.22 108.02 816.41 277.49 785.31 225.34 693.12 137.72 709.2 55.88 724.22" style="fill: none;stroke: #111026;stroke-linecap: round;stroke-linejoin: round;stroke-width: 0.5px"/>
    <polygon points="55.88 719.02 108.02 812.14 277.49 780.73 225.34 687.61 137.72 703.85 55.88 719.02" style="fill: none;stroke: #111026;stroke-linecap: round;stroke-linejoin: round;stroke-width: 0.5px"/>
    <polygon points="55.88 713.76 108.02 807.83 277.49 776.1 225.34 682.03 137.72 698.44 55.88 713.76" style="fill: none;stroke: #111026;stroke-linecap: round;stroke-linejoin: round;stroke-width: 0.5px"/>
    <polygon points="55.88 708.46 108.02 803.47 277.49 771.42 225.34 676.41 137.72 692.98 55.88 708.46" style="fill: none;stroke: #111026;stroke-linecap: round;stroke-linejoin: round;stroke-width: 0.5px"/>
    <polygon points="55.88 703.1 108.02 799.07 277.49 766.7 225.34 670.72 137.72 687.46 55.88 703.1" style="fill: none;stroke: #111026;stroke-linecap: round;stroke-linejoin: round;stroke-width: 0.5px"/>
    <polygon points="55.88 697.68 108.02 794.63 277.49 761.92 225.34 664.98 137.72 681.89 55.88 697.68" style="fill: none;stroke: #111026;stroke-linecap: round;stroke-linejoin: round;stroke-width: 0.5px"/>
    <polygon points="55.88 692.21 108.02 790.13 277.49 757.1 225.34 659.18 137.72 676.26 55.88 692.21" style="fill: none;stroke: #111026;stroke-linecap: round;stroke-linejoin: round;stroke-width: 0.5px"/>
    <polygon points="55.88 686.69 108.02 785.6 277.49 752.23 225.34 653.32 137.72 670.57 55.88 686.69" style="fill: none;stroke: #111026;stroke-linecap: round;stroke-linejoin: round;stroke-width: 0.5px"/>
    <polygon points="55.88 681.11 108.02 781.02 277.49 747.31 225.34 647.4 137.72 664.83 55.88 681.11" style="fill: none;stroke: #111026;stroke-linecap: round;stroke-linejoin: round;stroke-width: 0.5px"/>
    <polygon points="55.88 675.47 108.02 776.39 277.49 742.35 225.34 641.43 137.72 659.03 55.88 675.47" style="fill: none;stroke: #111026;stroke-linecap: round;stroke-linejoin: round;stroke-width: 0.5px"/>
    <polygon points="55.88 669.78 108.02 771.72 277.49 737.33 225.34 635.39 137.72 653.17 55.88 669.78" style="fill: none;stroke: #111026;stroke-linecap: round;stroke-linejoin: round;stroke-width: 0.5px"/>
    <polygon points="55.88 664.03 108.02 766.99 277.49 732.26 225.34 629.29 137.72 647.25 55.88 664.03" style="fill: none;stroke: #111026;stroke-linecap: round;stroke-linejoin: round;stroke-width: 0.5px"/>
    <polygon points="55.88 658.22 108.02 762.23 277.49 727.14 225.34 623.13 137.72 641.27 55.88 658.22" style="fill: none;stroke: #111026;stroke-linecap: round;stroke-linejoin: round;stroke-width: 0.5px"/>
    <polygon points="55.88 652.35 108.02 757.41 277.49 721.97 225.34 616.91 137.72 635.23 55.88 652.35" style="fill: none;stroke: #111026;stroke-linecap: round;stroke-linejoin: round;stroke-width: 0.5px"/>
    <polygon points="55.88 646.42 108.02 752.54 277.49 716.74 225.34 610.62 137.72 629.13 55.88 646.42" style="fill: none;stroke: #111026;stroke-linecap: round;stroke-linejoin: round;stroke-width: 0.5px"/>
    <polygon points="55.88 640.43 108.02 747.63 277.49 711.47 225.34 604.27 137.72 622.97 55.88 640.43" style="fill: none;stroke: #111026;stroke-linecap: round;stroke-linejoin: round;stroke-width: 0.5px"/>
    <polygon points="55.88 634.39 108.02 742.66 277.49 706.14 225.34 597.86 137.72 616.75 55.88 634.39" style="fill: none;stroke: #111026;stroke-linecap: round;stroke-linejoin: round;stroke-width: 0.5px"/>
    <polygon points="55.88 628.28 108.02 737.65 277.49 700.75 225.34 591.38 137.72 610.46 55.88 628.28" style="fill: none;stroke: #111026;stroke-linecap: round;stroke-linejoin: round;stroke-width: 0.5px"/>
    <polygon points="55.88 622.11 108.02 732.58 277.49 695.31 225.34 584.84 137.72 604.11 55.88 622.11" style="fill: none;stroke: #111026;stroke-linecap: round;stroke-linejoin: round;stroke-width: 0.5px"/>
    <polygon points="55.88 615.88 108.02 727.46 277.49 689.82 225.34 578.23 137.72 597.69 55.88 615.88" style="fill: none;stroke: #111026;stroke-linecap: round;stroke-linejoin: round;stroke-width: 0.5px"/>
    <polygon points="55.88 609.58 108.02 722.29 277.49 684.27 225.34 571.56 137.72 591.22 55.88 609.58" style="fill: none;stroke: #111026;stroke-linecap: round;stroke-linejoin: round;stroke-width: 0.5px"/>
    <polygon points="55.88 603.22 108.02 717.07 277.49 678.67 225.34 564.81 137.72 584.67 55.88 603.22" style="fill: none;stroke: #111026;stroke-linecap: round;stroke-linejoin: round;stroke-width: 0.5px"/>
    <polygon points="55.88 596.8 108.02 711.8 277.49 673.01 225.34 558 137.72 578.06 55.88 596.8" style="fill: none;stroke: #111026;stroke-linecap: round;stroke-linejoin: round;stroke-width: 0.5px"/>
    <polygon points="55.88 590.31 108.02 706.47 277.49 667.29 225.34 551.12 137.72 571.38 55.88 590.31" style="fill: none;stroke: #111026;stroke-linecap: round;stroke-linejoin: round;stroke-width: 0.5px"/>
    <polygon points="55.88 583.75 108.02 701.09 277.49 661.51 225.34 544.17 137.72 564.64 55.88 583.75" style="fill: none;stroke: #111026;stroke-linecap: round;stroke-linejoin: round;stroke-width: 0.5px"/>
    <polygon points="55.88 577.13 108.02 695.66 277.49 655.68 225.34 537.15 137.72 557.82 55.88 577.13" style="fill: none;stroke: #111026;stroke-linecap: round;stroke-linejoin: round;stroke-width: 0.5px"/>
    <polygon points="55.88 570.45 108.02 690.17 277.49 649.78 225.34 530.06 137.72 550.94 55.88 570.45" style="fill: none;stroke: #111026;stroke-linecap: round;stroke-linejoin: round;stroke-width: 0.5px"/>
    <polygon points="55.88 563.69 108.02 684.62 277.49 643.83 225.34 522.9 137.72 543.99 55.88 563.69" style="fill: none;stroke: #111026;stroke-linecap: round;stroke-linejoin: round;stroke-width: 0.5px"/>
    <polygon points="55.88 556.87 108.02 679.02 277.49 637.82 225.34 515.66 137.72 536.97 55.88 556.87" style="fill: none;stroke: #111026;stroke-linecap: round;stroke-linejoin: round;stroke-width: 0.5px"/>
    <polygon points="55.88 549.98 108.02 673.36 277.49 631.74 225.34 508.36 137.72 529.88 55.88 549.98" style="fill: none;stroke: #111026;stroke-linecap: round;stroke-linejoin: round;stroke-width: 0.5px"/>
    <polygon points="55.88 543.02 108.02 667.65 277.49 625.61 225.34 500.97 137.72 522.71 55.88 543.02" style="fill: none;stroke: #111026;stroke-linecap: round;stroke-linejoin: round;stroke-width: 0.5px"/>
    <polygon points="55.88 535.99 108.02 661.88 277.49 619.41 225.34 493.52 137.72 515.47 55.88 535.99" style="fill: none;stroke: #111026;stroke-linecap: round;stroke-linejoin: round;stroke-width: 0.5px"/>
    <polygon points="55.88 528.88 108.02 656.05 277.49 613.15 225.34 485.99 137.72 508.16 55.88 528.88" style="fill: none;stroke: #111026;stroke-linecap: round;stroke-linejoin: round;stroke-width: 0.5px"/>
    <polygon points="55.88 521.71 108.02 650.16 277.49 606.83 225.34 478.38 137.72 500.78 55.88 521.71" style="fill: none;stroke: #111026;stroke-linecap: round;stroke-linejoin: round;stroke-width: 0.5px"/>
    <polygon points="55.88 514.46 108.02 644.21 277.49 600.44 225.34 470.69 137.72 493.32 55.88 514.46" style="fill: none;stroke: #111026;stroke-linecap: round;stroke-linejoin: round;stroke-width: 0.5px"/>
    <polygon points="55.88 507.14 108.02 638.2 277.49 593.99 225.34 462.93 137.72 485.79 55.88 507.14" style="fill: none;stroke: #111026;stroke-linecap: round;stroke-linejoin: round;stroke-width: 0.5px"/>
    <polygon points="55.88 499.75 108.02 632.13 277.49 587.47 225.34 455.09 137.72 478.18 55.88 499.75" style="fill: none;stroke: #111026;stroke-linecap: round;stroke-linejoin: round;stroke-width: 0.5px"/>
    <polygon points="55.88 492.28 108.02 626 277.49 580.89 225.34 447.17 137.72 470.49 55.88 492.28" style="fill: none;stroke: #111026;stroke-linecap: round;stroke-linejoin: round;stroke-width: 0.5px"/>
    <polygon points="55.88 484.73 108.02 619.8 277.49 574.24 225.34 439.17 137.72 462.73 55.88 484.73" style="fill: none;stroke: #111026;stroke-linecap: round;stroke-linejoin: round;stroke-width: 0.5px"/>
    <polygon points="55.88 477.11 108.02 613.54 277.49 567.52 225.34 431.09 137.72 454.88 55.88 477.11" style="fill: none;stroke: #111026;stroke-linecap: round;stroke-linejoin: round;stroke-width: 0.5px"/>
    <polygon points="55.88 469.42 108.02 607.23 277.49 560.74 225.34 422.93 137.72 446.96 55.88 469.42" style="fill: none;stroke: #111026;stroke-linecap: round;stroke-linejoin: round;stroke-width: 0.5px"/>
    <polygon points="55.88 461.64 108.02 600.84 277.49 553.88 225.34 414.68 137.72 438.96 55.88 461.64" style="fill: none;stroke: #111026;stroke-linecap: round;stroke-linejoin: round;stroke-width: 0.5px"/>
    <polygon points="55.88 453.79 108.02 594.39 277.49 546.96 225.34 406.36 137.72 430.88 55.88 453.79" style="fill: none;stroke: #111026;stroke-linecap: round;stroke-linejoin: round;stroke-width: 0.5px"/>
    <polygon points="55.88 445.85 108.02 587.88 277.49 539.97 225.34 397.94 137.72 422.71 55.88 445.85" style="fill: none;stroke: #111026;stroke-linecap: round;stroke-linejoin: round;stroke-width: 0.5px"/>
    <polygon points="55.88 437.84 108.02 581.3 277.49 532.91 225.34 389.45 137.72 414.47 55.88 437.84" style="fill: none;stroke: #111026;stroke-linecap: round;stroke-linejoin: round;stroke-width: 0.5px"/>
    <polygon points="55.88 429.75 108.02 574.66 277.49 525.77 225.34 380.86 137.72 406.14 55.88 429.75" style="fill: none;stroke: #111026;stroke-linecap: round;stroke-linejoin: round;stroke-width: 0.5px"/>
    <polygon points="55.88 421.57 108.02 567.95 277.49 518.57 225.34 372.19 137.72 397.72 55.88 421.57" style="fill: none;stroke: #111026;stroke-linecap: round;stroke-linejoin: round;stroke-width: 0.5px"/>
    <polygon points="55.88 413.31 108.02 561.17 277.49 511.29 225.34 363.44 137.72 389.22 55.88 413.31" style="fill: none;stroke: #111026;stroke-linecap: round;stroke-linejoin: round;stroke-width: 0.5px"/>
    <polygon points="55.88 404.97 108.02 554.32 277.49 503.94 225.34 354.59 137.72 380.64 55.88 404.97" style="fill: none;stroke: #111026;stroke-linecap: round;stroke-linejoin: round;stroke-width: 0.5px"/>
    <polygon points="55.88 396.55 108.02 547.4 277.49 496.51 225.34 345.65 137.72 371.97 55.88 396.55" style="fill: none;stroke: #111026;stroke-linecap: round;stroke-linejoin: round;stroke-width: 0.5px"/>
    <polygon points="55.88 388.03 108.02 540.41 277.49 489.01 225.34 336.63 137.72 363.21 55.88 388.03" style="fill: none;stroke: #111026;stroke-linecap: round;stroke-linejoin: round;stroke-width: 0.5px"/>
    <polygon points="55.88 379.44 108.02 533.36 277.49 481.43 225.34 327.51 137.72 354.36 55.88 379.44" style="fill: none;stroke: #111026;stroke-linecap: round;stroke-linejoin: round;stroke-width: 0.5px"/>
    <polygon points="55.88 370.75 108.02 526.23 277.49 473.78 225.34 318.31 137.72 345.42 55.88 370.75" style="fill: none;stroke: #111026;stroke-linecap: round;stroke-linejoin: round;stroke-width: 0.5px"/>
    <polygon points="55.88 361.98 108.02 519.03 277.49 466.05 225.34 309 137.72 336.39 55.88 361.98" style="fill: none;stroke: #111026;stroke-linecap: round;stroke-linejoin: round;stroke-width: 0.5px"/>
    <polygon points="55.88 353.12 108.02 511.75 277.49 458.24 225.34 299.61 137.72 327.28 55.88 353.12" style="fill: none;stroke: #111026;stroke-linecap: round;stroke-linejoin: round;stroke-width: 0.5px"/>
    <polygon points="55.88 344.17 108.02 504.4 277.49 450.35 225.34 290.12 137.72 318.06 55.88 344.17" style="fill: none;stroke: #111026;stroke-linecap: round;stroke-linejoin: round;stroke-width: 0.5px"/>
    <polygon points="55.88 335.13 108.02 496.98 277.49 442.38 225.34 280.53 137.72 308.76 55.88 335.13" style="fill: none;stroke: #111026;stroke-linecap: round;stroke-linejoin: round;stroke-width: 0.5px"/>
</svg>
