<svg xmlns="http://www.w3.org/2000/svg" viewBox="0 0 300.04 407.26">
  <title>tower-1</title>
  <g>
    <polygon points="40.56 370.79 92.7 378.61 262.17 375.97 210.03 368.15 122.41 369.51 40.56 370.79" style="fill: none;stroke: #111026;stroke-linecap: round;stroke-linejoin: round;stroke-width: 0.5px"/>
    <polygon points="40.56 370.47 92.7 378.45 262.17 375.76 210.03 367.78 122.41 369.17 40.56 370.47" style="fill: none;stroke: #111026;stroke-linecap: round;stroke-linejoin: round;stroke-width: 0.5px"/>
    <polygon points="40.56 370.15 92.7 378.29 262.17 375.54 210.03 367.4 122.41 368.82 40.56 370.15" style="fill: none;stroke: #111026;stroke-linecap: round;stroke-linejoin: round;stroke-width: 0.5px"/>
    <polygon points="40.56 369.81 92.7 378.12 262.17 375.32 210.03 367.01 122.41 368.46 40.56 369.81" style="fill: none;stroke: #111026;stroke-linecap: round;stroke-linejoin: round;stroke-width: 0.5px"/>
    <polygon points="40.56 369.48 92.7 377.95 262.17 375.09 210.03 366.62 122.41 368.1 40.56 369.48" style="fill: none;stroke: #111026;stroke-linecap: round;stroke-linejoin: round;stroke-width: 0.5px"/>
    <polygon points="40.56 369.13 92.7 377.78 262.17 374.86 210.03 366.21 122.41 367.72 40.56 369.13" style="fill: none;stroke: #111026;stroke-linecap: round;stroke-linejoin: round;stroke-width: 0.5px"/>
    <polygon points="40.56 368.78 92.7 377.6 262.17 374.63 210.03 365.8 122.41 367.34 40.56 368.78" style="fill: none;stroke: #111026;stroke-linecap: round;stroke-linejoin: round;stroke-width: 0.5px"/>
    <polygon points="40.56 368.42 92.7 377.42 262.17 374.39 210.03 365.38 122.41 366.95 40.56 368.42" style="fill: none;stroke: #111026;stroke-linecap: round;stroke-linejoin: round;stroke-width: 0.5px"/>
    <polygon points="40.56 368.05 92.7 377.24 262.17 374.14 210.03 364.95 122.41 366.56 40.56 368.05" style="fill: none;stroke: #111026;stroke-linecap: round;stroke-linejoin: round;stroke-width: 0.5px"/>
    <polygon points="40.56 367.68 92.7 377.06 262.17 373.89 210.03 364.52 122.41 366.15 40.56 367.68" style="fill: none;stroke: #111026;stroke-linecap: round;stroke-linejoin: round;stroke-width: 0.5px"/>
    <polygon points="40.56 367.3 92.7 376.86 262.17 373.64 210.03 364.07 122.41 365.74 40.56 367.3" style="fill: none;stroke: #111026;stroke-linecap: round;stroke-linejoin: round;stroke-width: 0.5px"/>
    <polygon points="40.56 366.91 92.7 376.67 262.17 373.38 210.03 363.62 122.41 365.32 40.56 366.91" style="fill: none;stroke: #111026;stroke-linecap: round;stroke-linejoin: round;stroke-width: 0.5px"/>
    <polygon points="40.56 366.51 92.7 376.47 262.17 373.11 210.03 363.15 122.41 364.89 40.56 366.51" style="fill: none;stroke: #111026;stroke-linecap: round;stroke-linejoin: round;stroke-width: 0.5px"/>
    <polygon points="40.56 366.11 92.7 376.27 262.17 372.84 210.03 362.68 122.41 364.45 40.56 366.11" style="fill: none;stroke: #111026;stroke-linecap: round;stroke-linejoin: round;stroke-width: 0.5px"/>
    <polygon points="40.56 365.69 92.7 376.06 262.17 372.56 210.03 362.19 122.41 364 40.56 365.69" style="fill: none;stroke: #111026;stroke-linecap: round;stroke-linejoin: round;stroke-width: 0.5px"/>
    <polygon points="40.56 365.27 92.7 375.85 262.17 372.28 210.03 361.7 122.41 363.54 40.56 365.27" style="fill: none;stroke: #111026;stroke-linecap: round;stroke-linejoin: round;stroke-width: 0.5px"/>
    <polygon points="40.56 364.84 92.7 375.64 262.17 371.99 210.03 361.19 122.41 363.08 40.56 364.84" style="fill: none;stroke: #111026;stroke-linecap: round;stroke-linejoin: round;stroke-width: 0.5px"/>
    <polygon points="40.56 364.4 92.7 375.42 262.17 371.7 210.03 360.68 122.41 362.6 40.56 364.4" style="fill: none;stroke: #111026;stroke-linecap: round;stroke-linejoin: round;stroke-width: 0.5px"/>
    <polygon points="40.56 363.95 92.7 375.19 262.17 371.4 210.03 360.16 122.41 362.12 40.56 363.95" style="fill: none;stroke: #111026;stroke-linecap: round;stroke-linejoin: round;stroke-width: 0.5px"/>
    <polygon points="40.56 363.49 92.7 374.97 262.17 371.1 210.03 359.62 122.41 361.62 40.56 363.49" style="fill: none;stroke: #111026;stroke-linecap: round;stroke-linejoin: round;stroke-width: 0.5px"/>
    <polygon points="40.56 363.02 92.7 374.73 262.17 370.78 210.03 359.07 122.41 361.12 40.56 363.02" style="fill: none;stroke: #111026;stroke-linecap: round;stroke-linejoin: round;stroke-width: 0.5px"/>
    <polygon points="40.56 362.55 92.7 374.5 262.17 370.46 210.03 358.52 122.41 360.6 40.56 362.55" style="fill: none;stroke: #111026;stroke-linecap: round;stroke-linejoin: round;stroke-width: 0.5px"/>
    <polygon points="40.56 362.06 92.7 374.25 262.17 370.14 210.03 357.95 122.41 360.07 40.56 362.06" style="fill: none;stroke: #111026;stroke-linecap: round;stroke-linejoin: round;stroke-width: 0.5px"/>
    <polygon points="40.56 361.56 92.7 374 262.17 369.81 210.03 357.37 122.41 359.54 40.56 361.56" style="fill: none;stroke: #111026;stroke-linecap: round;stroke-linejoin: round;stroke-width: 0.5px"/>
    <polygon points="40.56 361.06 92.7 373.75 262.17 369.47 210.03 356.78 122.41 358.99 40.56 361.06" style="fill: none;stroke: #111026;stroke-linecap: round;stroke-linejoin: round;stroke-width: 0.5px"/>
    <polygon points="40.56 360.54 92.7 373.49 262.17 369.13 210.03 356.17 122.41 358.43 40.56 360.54" style="fill: none;stroke: #111026;stroke-linecap: round;stroke-linejoin: round;stroke-width: 0.5px"/>
    <polygon points="40.56 360.01 92.7 373.23 262.17 368.77 210.03 355.56 122.41 357.86 40.56 360.01" style="fill: none;stroke: #111026;stroke-linecap: round;stroke-linejoin: round;stroke-width: 0.5px"/>
    <polygon points="40.56 359.48 92.7 372.96 262.17 368.41 210.03 354.93 122.41 357.28 40.56 359.48" style="fill: none;stroke: #111026;stroke-linecap: round;stroke-linejoin: round;stroke-width: 0.5px"/>
    <polygon points="40.56 358.93 92.7 372.69 262.17 368.05 210.03 354.28 122.41 356.68 40.56 358.93" style="fill: none;stroke: #111026;stroke-linecap: round;stroke-linejoin: round;stroke-width: 0.5px"/>
    <polygon points="40.56 358.37 92.7 372.41 262.17 367.67 210.03 353.63 122.41 356.08 40.56 358.37" style="fill: none;stroke: #111026;stroke-linecap: round;stroke-linejoin: round;stroke-width: 0.5px"/>
    <polygon points="40.56 357.79 92.7 372.12 262.17 367.29 210.03 352.96 122.41 355.46 40.56 357.79" style="fill: none;stroke: #111026;stroke-linecap: round;stroke-linejoin: round;stroke-width: 0.5px"/>
    <polygon points="40.56 357.21 92.7 371.83 262.17 366.9 210.03 352.28 122.41 354.83 40.56 357.21" style="fill: none;stroke: #111026;stroke-linecap: round;stroke-linejoin: round;stroke-width: 0.5px"/>
    <polygon points="40.56 356.62 92.7 371.54 262.17 366.5 210.03 351.58 122.41 354.18 40.56 356.62" style="fill: none;stroke: #111026;stroke-linecap: round;stroke-linejoin: round;stroke-width: 0.5px"/>
    <polygon points="40.56 356.01 92.7 371.23 262.17 366.1 210.03 350.87 122.41 353.53 40.56 356.01" style="fill: none;stroke: #111026;stroke-linecap: round;stroke-linejoin: round;stroke-width: 0.5px"/>
    <polygon points="40.56 355.39 92.7 370.92 262.17 365.68 210.03 350.15 122.41 352.86 40.56 355.39" style="fill: none;stroke: #111026;stroke-linecap: round;stroke-linejoin: round;stroke-width: 0.5px"/>
    <polygon points="40.56 354.75 92.7 370.61 262.17 365.26 210.03 349.41 122.41 352.17 40.56 354.75" style="fill: none;stroke: #111026;stroke-linecap: round;stroke-linejoin: round;stroke-width: 0.5px"/>
    <polygon points="40.56 354.11 92.7 370.29 262.17 364.83 210.03 348.65 122.41 351.47 40.56 354.11" style="fill: none;stroke: #111026;stroke-linecap: round;stroke-linejoin: round;stroke-width: 0.5px"/>
    <polygon points="40.56 353.45 92.7 369.96 262.17 364.39 210.03 347.88 122.41 350.76 40.56 353.45" style="fill: none;stroke: #111026;stroke-linecap: round;stroke-linejoin: round;stroke-width: 0.5px"/>
    <polygon points="40.56 352.78 92.7 369.62 262.17 363.94 210.03 347.1 122.41 350.04 40.56 352.78" style="fill: none;stroke: #111026;stroke-linecap: round;stroke-linejoin: round;stroke-width: 0.5px"/>
    <polygon points="40.56 352.09 92.7 369.28 262.17 363.48 210.03 346.3 122.41 349.29 40.56 352.09" style="fill: none;stroke: #111026;stroke-linecap: round;stroke-linejoin: round;stroke-width: 0.5px"/>
    <polygon points="40.56 351.39 92.7 368.93 262.17 363.01 210.03 345.48 122.41 348.54 40.56 351.39" style="fill: none;stroke: #111026;stroke-linecap: round;stroke-linejoin: round;stroke-width: 0.5px"/>
    <polygon points="40.56 350.68 92.7 368.57 262.17 362.54 210.03 344.64 122.41 347.76 40.56 350.68" style="fill: none;stroke: #111026;stroke-linecap: round;stroke-linejoin: round;stroke-width: 0.5px"/>
    <polygon points="40.56 349.95 92.7 368.21 262.17 362.05 210.03 343.79 122.41 346.98 40.56 349.95" style="fill: none;stroke: #111026;stroke-linecap: round;stroke-linejoin: round;stroke-width: 0.5px"/>
    <polygon points="40.56 349.21 92.7 367.84 262.17 361.56 210.03 342.92 122.41 346.17 40.56 349.21" style="fill: none;stroke: #111026;stroke-linecap: round;stroke-linejoin: round;stroke-width: 0.5px"/>
    <polygon points="40.56 348.45 92.7 367.46 262.17 361.05 210.03 342.03 122.41 345.35 40.56 348.45" style="fill: none;stroke: #111026;stroke-linecap: round;stroke-linejoin: round;stroke-width: 0.5px"/>
    <polygon points="40.56 347.67 92.7 367.08 262.17 360.53 210.03 341.13 122.41 344.51 40.56 347.67" style="fill: none;stroke: #111026;stroke-linecap: round;stroke-linejoin: round;stroke-width: 0.5px"/>
    <polygon points="40.56 346.88 92.7 366.68 262.17 360 210.03 340.2 122.41 343.66 40.56 346.88" style="fill: none;stroke: #111026;stroke-linecap: round;stroke-linejoin: round;stroke-width: 0.5px"/>
    <polygon points="40.56 346.08 92.7 366.28 262.17 359.46 210.03 339.26 122.41 342.79 40.56 346.08" style="fill: none;stroke: #111026;stroke-linecap: round;stroke-linejoin: round;stroke-width: 0.5px"/>
    <polygon points="40.56 345.25 92.7 365.87 262.17 358.92 210.03 338.3 122.41 341.9 40.56 345.25" style="fill: none;stroke: #111026;stroke-linecap: round;stroke-linejoin: round;stroke-width: 0.5px"/>
    <polygon points="40.56 344.42 92.7 365.45 262.17 358.36 210.03 337.32 122.41 340.99 40.56 344.42" style="fill: none;stroke: #111026;stroke-linecap: round;stroke-linejoin: round;stroke-width: 0.5px"/>
    <polygon points="40.56 343.56 92.7 365.02 262.17 357.78 210.03 336.32 122.41 340.06 40.56 343.56" style="fill: none;stroke: #111026;stroke-linecap: round;stroke-linejoin: round;stroke-width: 0.5px"/>
    <polygon points="40.56 342.69 92.7 364.59 262.17 357.2 210.03 335.3 122.41 339.12 40.56 342.69" style="fill: none;stroke: #111026;stroke-linecap: round;stroke-linejoin: round;stroke-width: 0.5px"/>
    <polygon points="40.56 341.79 92.7 364.14 262.17 356.6 210.03 334.25 122.41 338.15 40.56 341.79" style="fill: none;stroke: #111026;stroke-linecap: round;stroke-linejoin: round;stroke-width: 0.5px"/>
    <polygon points="40.56 340.88 92.7 363.69 262.17 356 210.03 333.19 122.41 337.17 40.56 340.88" style="fill: none;stroke: #111026;stroke-linecap: round;stroke-linejoin: round;stroke-width: 0.5px"/>
    <polygon points="40.56 339.95 92.7 363.23 262.17 355.38 210.03 332.11 122.41 336.16 40.56 339.95" style="fill: none;stroke: #111026;stroke-linecap: round;stroke-linejoin: round;stroke-width: 0.5px"/>
    <polygon points="40.56 339.01 92.7 362.75 262.17 354.74 210.03 331 122.41 335.14 40.56 339.01" style="fill: none;stroke: #111026;stroke-linecap: round;stroke-linejoin: round;stroke-width: 0.5px"/>
    <polygon points="40.56 338.04 92.7 362.27 262.17 354.1 210.03 329.87 122.41 334.09 40.56 338.04" style="fill: none;stroke: #111026;stroke-linecap: round;stroke-linejoin: round;stroke-width: 0.5px"/>
    <polygon points="40.56 337.05 92.7 361.78 262.17 353.44 210.03 328.71 122.41 333.03 40.56 337.05" style="fill: none;stroke: #111026;stroke-linecap: round;stroke-linejoin: round;stroke-width: 0.5px"/>
    <polygon points="40.56 336.05 92.7 361.28 262.17 352.77 210.03 327.54 122.41 331.94 40.56 336.05" style="fill: none;stroke: #111026;stroke-linecap: round;stroke-linejoin: round;stroke-width: 0.5px"/>
    <polygon points="40.56 335.02 92.7 360.76 262.17 352.08 210.03 326.33 122.41 330.82 40.56 335.02" style="fill: none;stroke: #111026;stroke-linecap: round;stroke-linejoin: round;stroke-width: 0.5px"/>
    <polygon points="40.56 333.97 92.7 360.24 262.17 351.38 210.03 325.11 122.41 329.69 40.56 333.97" style="fill: none;stroke: #111026;stroke-linecap: round;stroke-linejoin: round;stroke-width: 0.5px"/>
    <polygon points="40.56 332.9 92.7 359.71 262.17 350.67 210.03 323.86 122.41 328.53 40.56 332.9" style="fill: none;stroke: #111026;stroke-linecap: round;stroke-linejoin: round;stroke-width: 0.5px"/>
    <polygon points="40.56 331.81 92.7 359.16 262.17 349.94 210.03 322.58 122.41 327.35 40.56 331.81" style="fill: none;stroke: #111026;stroke-linecap: round;stroke-linejoin: round;stroke-width: 0.5px"/>
    <polygon points="40.56 330.7 92.7 358.61 262.17 349.19 210.03 321.28 122.41 326.15 40.56 330.7" style="fill: none;stroke: #111026;stroke-linecap: round;stroke-linejoin: round;stroke-width: 0.5px"/>
    <polygon points="40.56 329.56 92.7 358.04 262.17 348.43 210.03 319.95 122.41 324.92 40.56 329.56" style="fill: none;stroke: #111026;stroke-linecap: round;stroke-linejoin: round;stroke-width: 0.5px"/>
    <polygon points="40.56 328.4 92.7 357.46 262.17 347.66 210.03 318.6 122.41 323.67 40.56 328.4" style="fill: none;stroke: #111026;stroke-linecap: round;stroke-linejoin: round;stroke-width: 0.5px"/>
    <polygon points="40.56 327.22 92.7 356.87 262.17 346.87 210.03 317.21 122.41 322.39 40.56 327.22" style="fill: none;stroke: #111026;stroke-linecap: round;stroke-linejoin: round;stroke-width: 0.5px"/>
    <polygon points="40.56 326.01 92.7 356.27 262.17 346.06 210.03 315.8 122.41 321.08 40.56 326.01" style="fill: none;stroke: #111026;stroke-linecap: round;stroke-linejoin: round;stroke-width: 0.5px"/>
    <polygon points="40.56 324.78 92.7 355.66 262.17 345.24 210.03 314.36 122.41 319.75 40.56 324.78" style="fill: none;stroke: #111026;stroke-linecap: round;stroke-linejoin: round;stroke-width: 0.5px"/>
    <polygon points="40.56 323.52 92.7 355.03 262.17 344.4 210.03 312.89 122.41 318.39 40.56 323.52" style="fill: none;stroke: #111026;stroke-linecap: round;stroke-linejoin: round;stroke-width: 0.5px"/>
    <polygon points="40.56 322.24 92.7 354.39 262.17 343.54 210.03 311.39 122.41 317 40.56 322.24" style="fill: none;stroke: #111026;stroke-linecap: round;stroke-linejoin: round;stroke-width: 0.5px"/>
    <polygon points="40.56 320.93 92.7 353.74 262.17 342.67 210.03 309.86 122.41 315.58 40.56 320.93" style="fill: none;stroke: #111026;stroke-linecap: round;stroke-linejoin: round;stroke-width: 0.5px"/>
    <polygon points="40.56 319.59 92.7 353.07 262.17 341.78 210.03 308.3 122.41 314.14 40.56 319.59" style="fill: none;stroke: #111026;stroke-linecap: round;stroke-linejoin: round;stroke-width: 0.5px"/>
    <polygon points="40.56 318.23 92.7 352.39 262.17 340.87 210.03 306.71 122.41 312.66 40.56 318.23" style="fill: none;stroke: #111026;stroke-linecap: round;stroke-linejoin: round;stroke-width: 0.5px"/>
    <polygon points="40.56 316.84 92.7 351.7 262.17 339.94 210.03 305.08 122.41 311.16 40.56 316.84" style="fill: none;stroke: #111026;stroke-linecap: round;stroke-linejoin: round;stroke-width: 0.5px"/>
    <polygon points="40.56 315.42 92.7 350.99 262.17 338.99 210.03 303.42 122.41 309.62 40.56 315.42" style="fill: none;stroke: #111026;stroke-linecap: round;stroke-linejoin: round;stroke-width: 0.5px"/>
    <polygon points="40.56 313.97 92.7 350.27 262.17 338.02 210.03 301.73 122.41 308.06 40.56 313.97" style="fill: none;stroke: #111026;stroke-linecap: round;stroke-linejoin: round;stroke-width: 0.5px"/>
    <polygon points="40.56 312.49 92.7 349.53 262.17 337.04 210.03 300 122.41 306.46 40.56 312.49" style="fill: none;stroke: #111026;stroke-linecap: round;stroke-linejoin: round;stroke-width: 0.5px"/>
    <polygon points="40.56 310.99 92.7 348.78 262.17 336.03 210.03 298.24 122.41 304.83 40.56 310.99" style="fill: none;stroke: #111026;stroke-linecap: round;stroke-linejoin: round;stroke-width: 0.5px"/>
    <polygon points="40.56 309.45 92.7 348.01 262.17 335 210.03 296.44 122.41 303.16 40.56 309.45" style="fill: none;stroke: #111026;stroke-linecap: round;stroke-linejoin: round;stroke-width: 0.5px"/>
    <polygon points="40.56 307.88 92.7 347.23 262.17 333.95 210.03 294.6 122.41 301.46 40.56 307.88" style="fill: none;stroke: #111026;stroke-linecap: round;stroke-linejoin: round;stroke-width: 0.5px"/>
    <polygon points="40.56 306.27 92.7 346.43 262.17 332.88 210.03 292.73 122.41 299.73 40.56 306.27" style="fill: none;stroke: #111026;stroke-linecap: round;stroke-linejoin: round;stroke-width: 0.5px"/>
    <polygon points="40.56 304.64 92.7 345.61 262.17 331.79 210.03 290.82 122.41 297.96 40.56 304.64" style="fill: none;stroke: #111026;stroke-linecap: round;stroke-linejoin: round;stroke-width: 0.5px"/>
    <polygon points="40.56 302.97 92.7 344.78 262.17 330.68 210.03 288.87 122.41 296.16 40.56 302.97" style="fill: none;stroke: #111026;stroke-linecap: round;stroke-linejoin: round;stroke-width: 0.5px"/>
    <polygon points="40.56 301.27 92.7 343.93 262.17 329.54 210.03 286.88 122.41 294.32 40.56 301.27" style="fill: none;stroke: #111026;stroke-linecap: round;stroke-linejoin: round;stroke-width: 0.5px"/>
    <polygon points="40.56 299.53 92.7 343.06 262.17 328.38 210.03 284.85 122.41 292.44 40.56 299.53" style="fill: none;stroke: #111026;stroke-linecap: round;stroke-linejoin: round;stroke-width: 0.5px"/>
    <polygon points="40.56 297.76 92.7 342.18 262.17 327.19 210.03 282.77 122.41 290.52 40.56 297.76" style="fill: none;stroke: #111026;stroke-linecap: round;stroke-linejoin: round;stroke-width: 0.5px"/>
    <polygon points="40.56 295.95 92.7 341.28 262.17 325.99 210.03 280.66 122.41 288.56 40.56 295.95" style="fill: none;stroke: #111026;stroke-linecap: round;stroke-linejoin: round;stroke-width: 0.5px"/>
    <polygon points="40.56 294.1 92.7 340.36 262.17 324.75 210.03 278.5 122.41 286.57 40.56 294.1" style="fill: none;stroke: #111026;stroke-linecap: round;stroke-linejoin: round;stroke-width: 0.5px"/>
    <polygon points="40.56 292.22 92.7 339.42 262.17 323.5 210.03 276.3 122.41 284.53 40.56 292.22" style="fill: none;stroke: #111026;stroke-linecap: round;stroke-linejoin: round;stroke-width: 0.5px"/>
    <polygon points="40.56 290.3 92.7 338.46 262.17 322.21 210.03 274.05 122.41 282.45 40.56 290.3" style="fill: none;stroke: #111026;stroke-linecap: round;stroke-linejoin: round;stroke-width: 0.5px"/>
    <polygon points="40.56 288.34 92.7 337.48 262.17 320.9 210.03 271.76 122.41 280.33 40.56 288.34" style="fill: none;stroke: #111026;stroke-linecap: round;stroke-linejoin: round;stroke-width: 0.5px"/>
    <polygon points="40.56 286.34 92.7 336.48 262.17 319.57 210.03 269.42 122.41 278.17 40.56 286.34" style="fill: none;stroke: #111026;stroke-linecap: round;stroke-linejoin: round;stroke-width: 0.5px"/>
    <polygon points="40.56 284.3 92.7 335.46 262.17 318.2 210.03 267.04 122.41 275.96 40.56 284.3" style="fill: none;stroke: #111026;stroke-linecap: round;stroke-linejoin: round;stroke-width: 0.5px"/>
    <polygon points="40.56 282.21 92.7 334.43 262.17 316.81 210.03 264.6 122.41 273.7 40.56 282.21" style="fill: none;stroke: #111026;stroke-linecap: round;stroke-linejoin: round;stroke-width: 0.5px"/>
    <polygon points="40.56 280.09 92.7 333.37 262.17 315.39 210.03 262.11 122.41 271.41 40.56 280.09" style="fill: none;stroke: #111026;stroke-linecap: round;stroke-linejoin: round;stroke-width: 0.5px"/>
    <polygon points="40.56 277.92 92.7 332.28 262.17 313.94 210.03 259.58 122.41 269.06 40.56 277.92" style="fill: none;stroke: #111026;stroke-linecap: round;stroke-linejoin: round;stroke-width: 0.5px"/>
    <polygon points="40.56 275.7 92.7 331.18 262.17 312.46 210.03 256.99 122.41 266.67 40.56 275.7" style="fill: none;stroke: #111026;stroke-linecap: round;stroke-linejoin: round;stroke-width: 0.5px"/>
    <polygon points="40.56 273.44 92.7 330.05 262.17 310.96 210.03 254.35 122.41 264.22 40.56 273.44" style="fill: none;stroke: #111026;stroke-linecap: round;stroke-linejoin: round;stroke-width: 0.5px"/>
    <polygon points="40.56 271.14 92.7 328.9 262.17 309.42 210.03 251.65 122.41 261.73 40.56 271.14" style="fill: none;stroke: #111026;stroke-linecap: round;stroke-linejoin: round;stroke-width: 0.5px"/>
    <polygon points="40.56 268.79 92.7 327.73 262.17 307.85 210.03 248.9 122.41 259.19 40.56 268.79" style="fill: none;stroke: #111026;stroke-linecap: round;stroke-linejoin: round;stroke-width: 0.5px"/>
    <polygon points="40.56 266.39 92.7 326.53 262.17 306.24 210.03 246.1 122.41 256.59 40.56 266.39" style="fill: none;stroke: #111026;stroke-linecap: round;stroke-linejoin: round;stroke-width: 0.5px"/>
    <polygon points="40.56 263.94 92.7 325.31 262.17 304.61 210.03 243.24 122.41 253.94 40.56 263.94" style="fill: none;stroke: #111026;stroke-linecap: round;stroke-linejoin: round;stroke-width: 0.5px"/>
    <polygon points="40.56 261.44 92.7 324.06 262.17 302.94 210.03 240.31 122.41 251.24 40.56 261.44" style="fill: none;stroke: #111026;stroke-linecap: round;stroke-linejoin: round;stroke-width: 0.5px"/>
    <polygon points="40.56 258.89 92.7 322.79 262.17 301.24 210.03 237.33 122.41 248.48 40.56 258.89" style="fill: none;stroke: #111026;stroke-linecap: round;stroke-linejoin: round;stroke-width: 0.5px"/>
    <polygon points="40.56 256.29 92.7 321.5 262.17 299.5 210.03 234.29 122.41 245.66 40.56 256.29" style="fill: none;stroke: #111026;stroke-linecap: round;stroke-linejoin: round;stroke-width: 0.5px"/>
    <polygon points="40.56 253.63 92.7 320.17 262.17 297.73 210.03 231.19 122.41 242.79 40.56 253.63" style="fill: none;stroke: #111026;stroke-linecap: round;stroke-linejoin: round;stroke-width: 0.5px"/>
    <polygon points="40.56 250.92 92.7 318.82 262.17 295.92 210.03 228.02 122.41 239.86 40.56 250.92" style="fill: none;stroke: #111026;stroke-linecap: round;stroke-linejoin: round;stroke-width: 0.5px"/>
    <polygon points="40.56 248.16 92.7 317.44 262.17 294.07 210.03 224.79 122.41 236.87 40.56 248.16" style="fill: none;stroke: #111026;stroke-linecap: round;stroke-linejoin: round;stroke-width: 0.5px"/>
    <polygon points="40.56 245.34 92.7 316.03 262.17 292.19 210.03 221.49 122.41 233.82 40.56 245.34" style="fill: none;stroke: #111026;stroke-linecap: round;stroke-linejoin: round;stroke-width: 0.5px"/>
    <polygon points="40.56 242.46 92.7 314.6 262.17 290.26 210.03 218.13 122.41 230.71 40.56 242.46" style="fill: none;stroke: #111026;stroke-linecap: round;stroke-linejoin: round;stroke-width: 0.5px"/>
    <polygon points="40.56 239.52 92.7 313.13 262.17 288.3 210.03 214.69 122.41 227.53 40.56 239.52" style="fill: none;stroke: #111026;stroke-linecap: round;stroke-linejoin: round;stroke-width: 0.5px"/>
    <polygon points="40.56 236.53 92.7 311.64 262.17 286.3 210.03 211.19 122.41 224.29 40.56 236.53" style="fill: none;stroke: #111026;stroke-linecap: round;stroke-linejoin: round;stroke-width: 0.5px"/>
    <polygon points="40.56 233.47 92.7 310.11 262.17 284.26 210.03 207.61 122.41 220.98 40.56 233.47" style="fill: none;stroke: #111026;stroke-linecap: round;stroke-linejoin: round;stroke-width: 0.5px"/>
    <polygon points="40.56 230.35 92.7 308.56 262.17 282.17 210.03 203.96 122.41 217.6 40.56 230.35" style="fill: none;stroke: #111026;stroke-linecap: round;stroke-linejoin: round;stroke-width: 0.5px"/>
    <polygon points="40.56 227.16 92.7 306.97 262.17 280.05 210.03 200.24 122.41 214.16 40.56 227.16" style="fill: none;stroke: #111026;stroke-linecap: round;stroke-linejoin: round;stroke-width: 0.5px"/>
    <polygon points="40.56 223.91 92.7 305.35 262.17 277.88 210.03 196.44 122.41 210.65 40.56 223.91" style="fill: none;stroke: #111026;stroke-linecap: round;stroke-linejoin: round;stroke-width: 0.5px"/>
    <polygon points="40.56 220.6 92.7 303.69 262.17 275.66 210.03 192.56 122.41 207.06 40.56 220.6" style="fill: none;stroke: #111026;stroke-linecap: round;stroke-linejoin: round;stroke-width: 0.5px"/>
    <polygon points="40.56 217.21 92.7 302 262.17 273.4 210.03 188.61 122.41 203.4 40.56 217.21" style="fill: none;stroke: #111026;stroke-linecap: round;stroke-linejoin: round;stroke-width: 0.5px"/>
    <polygon points="40.56 213.76 92.7 300.28 262.17 271.1 210.03 184.57 122.41 199.66 40.56 213.76" style="fill: none;stroke: #111026;stroke-linecap: round;stroke-linejoin: round;stroke-width: 0.5px"/>
    <polygon points="40.56 210.24 92.7 298.53 262.17 268.74 210.03 180.46 122.41 195.85 40.56 210.24" style="fill: none;stroke: #111026;stroke-linecap: round;stroke-linejoin: round;stroke-width: 0.5px"/>
    <polygon points="40.56 206.64 92.7 296.73 262.17 266.34 210.03 176.25 122.41 191.97 40.56 206.64" style="fill: none;stroke: #111026;stroke-linecap: round;stroke-linejoin: round;stroke-width: 0.5px"/>
    <polygon points="40.56 202.97 92.7 294.9 262.17 263.89 210.03 171.96 122.41 188 40.56 202.97" style="fill: none;stroke: #111026;stroke-linecap: round;stroke-linejoin: round;stroke-width: 0.5px"/>
    <polygon points="40.56 199.23 92.7 293.04 262.17 261.39 210.03 167.59 122.41 183.95 40.56 199.23" style="fill: none;stroke: #111026;stroke-linecap: round;stroke-linejoin: round;stroke-width: 0.5px"/>
    <polygon points="40.56 195.41 92.7 291.13 262.17 258.84 210.03 163.12 122.41 179.82 40.56 195.41" style="fill: none;stroke: #111026;stroke-linecap: round;stroke-linejoin: round;stroke-width: 0.5px"/>
    <polygon points="40.56 191.51 92.7 289.19 262.17 256.24 210.03 158.57 122.41 175.6 40.56 191.51" style="fill: none;stroke: #111026;stroke-linecap: round;stroke-linejoin: round;stroke-width: 0.5px"/>
    <polygon points="40.56 187.54 92.7 287.2 262.17 253.58 210.03 153.92 122.41 171.3 40.56 187.54" style="fill: none;stroke: #111026;stroke-linecap: round;stroke-linejoin: round;stroke-width: 0.5px"/>
    <polygon points="40.56 183.48 92.7 285.18 262.17 250.87 210.03 149.17 122.41 166.91 40.56 183.48" style="fill: none;stroke: #111026;stroke-linecap: round;stroke-linejoin: round;stroke-width: 0.5px"/>
    <polygon points="40.56 179.34 92.7 283.11 262.17 248.11 210.03 144.33 122.41 162.43 40.56 179.34" style="fill: none;stroke: #111026;stroke-linecap: round;stroke-linejoin: round;stroke-width: 0.5px"/>
    <polygon points="40.56 175.11 92.7 281.01 262.17 245.28 210.03 139.39 122.41 157.86 40.56 175.11" style="fill: none;stroke: #111026;stroke-linecap: round;stroke-linejoin: round;stroke-width: 0.5px"/>
    <polygon points="40.56 170.8 92.7 278.86 262.17 242.41 210.03 134.35 122.41 153.2 40.56 170.8" style="fill: none;stroke: #111026;stroke-linecap: round;stroke-linejoin: round;stroke-width: 0.5px"/>
    <polygon points="40.56 166.4 92.7 276.66 262.17 239.47 210.03 129.21 122.41 148.44 40.56 166.4" style="fill: none;stroke: #111026;stroke-linecap: round;stroke-linejoin: round;stroke-width: 0.5px"/>
    <polygon points="40.56 161.91 92.7 274.42 262.17 236.47 210.03 123.96 122.41 143.58 40.56 161.91" style="fill: none;stroke: #111026;stroke-linecap: round;stroke-linejoin: round;stroke-width: 0.5px"/>
    <polygon points="40.56 157.33 92.7 272.14 262.17 233.41 210.03 118.6 122.41 138.63 40.56 157.33" style="fill: none;stroke: #111026;stroke-linecap: round;stroke-linejoin: round;stroke-width: 0.5px"/>
    <polygon points="40.56 152.66 92.7 269.81 262.17 230.29 210.03 113.14 122.41 133.57 40.56 152.66" style="fill: none;stroke: #111026;stroke-linecap: round;stroke-linejoin: round;stroke-width: 0.5px"/>
    <polygon points="40.56 147.89 92.7 267.43 262.17 227.1 210.03 107.56 122.41 128.41 40.56 147.89" style="fill: none;stroke: #111026;stroke-linecap: round;stroke-linejoin: round;stroke-width: 0.5px"/>
    <polygon points="40.56 143.02 92.7 265 262.17 223.85 210.03 101.87 122.41 123.15 40.56 143.02" style="fill: none;stroke: #111026;stroke-linecap: round;stroke-linejoin: round;stroke-width: 0.5px"/>
    <polygon points="40.56 138.05 92.7 262.52 262.17 220.53 210.03 96.07 122.41 117.78 40.56 138.05" style="fill: none;stroke: #111026;stroke-linecap: round;stroke-linejoin: round;stroke-width: 0.5px"/>
    <polygon points="40.56 132.99 92.7 259.99 262.17 217.15 210.03 90.14 122.41 112.29 40.56 132.99" style="fill: none;stroke: #111026;stroke-linecap: round;stroke-linejoin: round;stroke-width: 0.5px"/>
    <polygon points="40.56 127.81 92.7 257.41 262.17 213.69 210.03 84.09 122.41 106.7 40.56 127.81" style="fill: none;stroke: #111026;stroke-linecap: round;stroke-linejoin: round;stroke-width: 0.5px"/>
    <polygon points="40.56 122.54 92.7 254.78 262.17 210.17 210.03 77.93 122.41 100.99 40.56 122.54" style="fill: none;stroke: #111026;stroke-linecap: round;stroke-linejoin: round;stroke-width: 0.5px"/>
    <polygon points="40.56 117.15 92.7 252.1 262.17 206.57 210.03 71.63 122.41 95.17 40.56 117.15" style="fill: none;stroke: #111026;stroke-linecap: round;stroke-linejoin: round;stroke-width: 0.5px"/>
    <polygon points="40.56 111.66 92.7 249.36 262.17 202.91 210.03 65.21 122.41 89.22 40.56 111.66" style="fill: none;stroke: #111026;stroke-linecap: round;stroke-linejoin: round;stroke-width: 0.5px"/>
    <polygon points="40.56 106.05 92.7 246.56 262.17 199.16 210.03 58.65 122.41 83.16 40.56 106.05" style="fill: none;stroke: #111026;stroke-linecap: round;stroke-linejoin: round;stroke-width: 0.5px"/>
    <polygon points="40.56 100.33 92.7 243.71 262.17 195.34 210.03 51.96 122.41 76.97 40.56 100.33" style="fill: none;stroke: #111026;stroke-linecap: round;stroke-linejoin: round;stroke-width: 0.5px"/>
    <polygon points="40.56 94.49 92.7 240.79 262.17 191.44 210.03 45.14 122.41 70.66 40.56 94.49" style="fill: none;stroke: #111026;stroke-linecap: round;stroke-linejoin: round;stroke-width: 0.5px"/>
    <polygon points="40.56 88.53 92.7 237.82 262.17 187.46 210.03 38.17 122.41 64.21 40.56 88.53" style="fill: none;stroke: #111026;stroke-linecap: round;stroke-linejoin: round;stroke-width: 0.5px"/>
    <polygon points="40.56 82.46 92.7 234.79 262.17 183.4 210.03 31.07 122.41 57.64 40.56 82.46" style="fill: none;stroke: #111026;stroke-linecap: round;stroke-linejoin: round;stroke-width: 0.5px"/>
    <polygon points="40.56 76.25 92.7 231.7 262.17 179.26 210.03 23.82 122.41 50.93 40.56 76.25" style="fill: none;stroke: #111026;stroke-linecap: round;stroke-linejoin: round;stroke-width: 0.5px"/>
    <polygon points="40.56 69.92 92.7 228.54 262.17 175.03 210.03 16.42 122.41 44.08 40.56 69.92" style="fill: none;stroke: #111026;stroke-linecap: round;stroke-linejoin: round;stroke-width: 0.5px"/>
    <polygon points="40.56 63.47 92.7 225.32 262.17 170.72 210.03 8.87 122.41 37.1 40.56 63.47" style="fill: none;stroke: #111026;stroke-linecap: round;stroke-linejoin: round;stroke-width: 0.5px"/>
  </g>
</svg>
