<svg xmlns="http://www.w3.org/2000/svg" viewBox="0 0 394.04 435.26">
  <title>triangle</title>
  <polygon points="157.74 211.99 66.88 355.91 263.24 355.91 157.74 211.99" style="fill: none;stroke: #111026;stroke-miterlimit: 10"/>
  <polygon points="160.05 207.37 69.19 351.28 265.55 351.28 160.05 207.37" style="fill: none;stroke: #111026;stroke-miterlimit: 10"/>
  <polygon points="162.37 202.74 71.5 346.66 267.87 346.66 162.37 202.74" style="fill: none;stroke: #111026;stroke-miterlimit: 10"/>
  <polygon points="164.68 198.11 73.82 342.03 270.18 342.03 164.68 198.11" style="fill: none;stroke: #111026;stroke-miterlimit: 10"/>
  <polygon points="166.99 193.49 76.13 337.41 272.49 337.41 166.99 193.49" style="fill: none;stroke: #111026;stroke-miterlimit: 10"/>
  <polygon points="169.31 188.86 78.44 332.78 274.8 332.78 169.31 188.86" style="fill: none;stroke: #111026;stroke-miterlimit: 10"/>
  <polygon points="171.62 184.24 80.75 328.16 277.12 328.16 171.62 184.24" style="fill: none;stroke: #111026;stroke-miterlimit: 10"/>
  <polygon points="173.93 179.61 83.07 323.53 279.43 323.53 173.93 179.61" style="fill: none;stroke: #111026;stroke-miterlimit: 10"/>
  <polygon points="176.24 174.99 85.38 318.91 281.74 318.91 176.24 174.99" style="fill: none;stroke: #111026;stroke-miterlimit: 10"/>
  <polygon points="178.56 170.36 87.69 314.28 284.06 314.28 178.56 170.36" style="fill: none;stroke: #111026;stroke-miterlimit: 10"/>
  <polygon points="180.87 165.74 90 309.65 286.37 309.65 180.87 165.74" style="fill: none;stroke: #111026;stroke-miterlimit: 10"/>
  <polygon points="183.18 161.11 92.32 305.03 288.68 305.03 183.18 161.11" style="fill: none;stroke: #111026;stroke-miterlimit: 10"/>
  <polygon points="185.49 156.49 94.63 300.4 290.99 300.4 185.49 156.49" style="fill: none;stroke: #111026;stroke-miterlimit: 10"/>
  <polygon points="187.81 151.86 96.94 295.78 293.31 295.78 187.81 151.86" style="fill: none;stroke: #111026;stroke-miterlimit: 10"/>
  <polygon points="190.12 147.24 99.25 291.15 295.62 291.15 190.12 147.24" style="fill: none;stroke: #111026;stroke-miterlimit: 10"/>
  <polygon points="192.43 142.61 101.57 286.53 297.93 286.53 192.43 142.61" style="fill: none;stroke: #111026;stroke-miterlimit: 10"/>
  <polygon points="194.74 137.98 103.88 281.9 300.24 281.9 194.74 137.98" style="fill: none;stroke: #111026;stroke-miterlimit: 10"/>
  <polygon points="197.06 133.36 106.19 277.28 302.56 277.28 197.06 133.36" style="fill: none;stroke: #111026;stroke-miterlimit: 10"/>
  <polygon points="199.37 128.73 108.51 272.65 304.87 272.65 199.37 128.73" style="fill: none;stroke: #111026;stroke-miterlimit: 10"/>
  <polygon points="201.68 124.11 110.82 268.03 307.18 268.03 201.68 124.11" style="fill: none;stroke: #111026;stroke-miterlimit: 10"/>
  <polygon points="204 119.48 113.13 263.4 309.49 263.4 204 119.48" style="fill: none;stroke: #111026;stroke-miterlimit: 10"/>
  <polygon points="206.31 114.86 115.44 258.78 311.81 258.78 206.31 114.86" style="fill: none;stroke: #111026;stroke-miterlimit: 10"/>
  <polygon points="208.62 110.23 117.76 254.15 314.12 254.15 208.62 110.23" style="fill: none;stroke: #111026;stroke-miterlimit: 10"/>
  <polygon points="210.93 105.61 120.07 249.53 316.43 249.53 210.93 105.61" style="fill: none;stroke: #111026;stroke-miterlimit: 10"/>
  <polygon points="213.25 100.98 122.38 244.9 318.75 244.9 213.25 100.98" style="fill: none;stroke: #111026;stroke-miterlimit: 10"/>
  <polygon points="215.56 96.36 124.69 240.27 321.06 240.27 215.56 96.36" style="fill: none;stroke: #111026;stroke-miterlimit: 10"/>
  <polygon points="217.87 91.73 127.01 235.65 323.37 235.65 217.87 91.73" style="fill: none;stroke: #111026;stroke-miterlimit: 10"/>
  <polygon points="220.18 87.11 129.32 231.02 325.68 231.02 220.18 87.11" style="fill: none;stroke: #111026;stroke-miterlimit: 10"/>
  <polygon points="222.5 82.48 131.63 226.4 328 226.4 222.5 82.48" style="fill: none;stroke: #111026;stroke-miterlimit: 10"/>
  <polygon points="224.81 77.86 133.94 221.77 330.31 221.77 224.81 77.86" style="fill: none;stroke: #111026;stroke-miterlimit: 10"/>
  <polygon points="227.12 73.23 136.26 217.15 332.62 217.15 227.12 73.23" style="fill: none;stroke: #111026;stroke-miterlimit: 10"/>
  <polygon points="229.43 68.6 138.57 212.52 334.93 212.52 229.43 68.6" style="fill: none;stroke: #111026;stroke-miterlimit: 10"/>
  <polygon points="231.75 63.98 140.88 207.9 337.25 207.9 231.75 63.98" style="fill: none;stroke: #111026;stroke-miterlimit: 10"/>
  <polygon points="234.06 59.35 143.2 203.27 339.56 203.27 234.06 59.35" style="fill: none;stroke: #111026;stroke-miterlimit: 10"/>
  <polygon points="236.37 54.73 145.51 198.65 341.87 198.65 236.37 54.73" style="fill: none;stroke: #111026;stroke-miterlimit: 10"/>
  <polygon points="238.69 50.1 147.82 194.02 344.19 194.02 238.69 50.1" style="fill: none;stroke: #111026;stroke-miterlimit: 10"/>
  <polygon points="241 45.48 150.13 189.4 346.5 189.4 241 45.48" style="fill: none;stroke: #111026;stroke-miterlimit: 10"/>
  <polygon points="243.31 40.85 152.45 184.77 348.81 184.77 243.31 40.85" style="fill: none;stroke: #111026;stroke-miterlimit: 10"/>
  <polygon points="245.62 36.23 154.76 180.15 351.12 180.15 245.62 36.23" style="fill: none;stroke: #111026;stroke-miterlimit: 10"/>
  <polygon points="247.94 31.6 157.07 175.52 353.44 175.52 247.94 31.6" style="fill: none;stroke: #111026;stroke-miterlimit: 10"/>
  <polygon points="250.25 26.98 159.38 170.89 355.75 170.89 250.25 26.98" style="fill: none;stroke: #111026;stroke-miterlimit: 10"/>
</svg>
