<svg xmlns="http://www.w3.org/2000/svg" viewBox="0 0 300.04 407.26">
  <title>triangle-3</title>
    <polygon points="162.71 210.39 103.1 359.77 266.92 340.91 162.71 210.39" style="fill: none;stroke: #111026;stroke-miterlimit: 10"/>
    <polygon points="160.73 204.72 101.11 354.1 264.94 335.24 160.73 204.72" style="fill: none;stroke: #111026;stroke-miterlimit: 10"/>
    <polygon points="158.74 199.05 99.13 348.43 262.95 329.57 158.74 199.05" style="fill: none;stroke: #111026;stroke-miterlimit: 10"/>
    <polygon points="156.76 193.38 97.14 342.76 260.97 323.9 156.76 193.38" style="fill: none;stroke: #111026;stroke-miterlimit: 10"/>
    <polygon points="154.78 187.71 95.16 337.1 258.99 318.23 154.78 187.71" style="fill: none;stroke: #111026;stroke-miterlimit: 10"/>
    <polygon points="152.79 182.04 93.18 331.43 257 312.56 152.79 182.04" style="fill: none;stroke: #111026;stroke-miterlimit: 10"/>
    <polygon points="150.81 176.37 91.19 325.76 255.02 306.89 150.81 176.37" style="fill: none;stroke: #111026;stroke-miterlimit: 10"/>
    <polygon points="148.82 170.71 89.21 320.09 253.03 301.23 148.82 170.71" style="fill: none;stroke: #111026;stroke-miterlimit: 10"/>
    <polygon points="146.84 165.04 87.22 314.42 251.05 295.56 146.84 165.04" style="fill: none;stroke: #111026;stroke-miterlimit: 10"/>
    <polygon points="144.85 159.37 85.24 308.75 249.07 289.89 144.85 159.37" style="fill: none;stroke: #111026;stroke-miterlimit: 10"/>
    <polygon points="142.87 153.7 83.25 303.08 247.08 284.22 142.87 153.7" style="fill: none;stroke: #111026;stroke-miterlimit: 10"/>
    <polygon points="140.88 148.03 81.27 297.41 245.1 278.55 140.88 148.03" style="fill: none;stroke: #111026;stroke-miterlimit: 10"/>
    <polygon points="138.9 142.36 79.29 291.74 243.11 272.88 138.9 142.36" style="fill: none;stroke: #111026;stroke-miterlimit: 10"/>
    <polygon points="136.92 136.69 77.3 286.07 241.13 267.21 136.92 136.69" style="fill: none;stroke: #111026;stroke-miterlimit: 10"/>
    <polygon points="134.93 131.02 75.32 280.4 239.14 261.54 134.93 131.02" style="fill: none;stroke: #111026;stroke-miterlimit: 10"/>
    <polygon points="132.95 125.35 73.33 274.73 237.16 255.87 132.95 125.35" style="fill: none;stroke: #111026;stroke-miterlimit: 10"/>
    <polygon points="130.96 119.68 71.35 269.06 235.18 250.2 130.96 119.68" style="fill: none;stroke: #111026;stroke-miterlimit: 10"/>
    <polygon points="128.98 114.01 69.37 263.39 233.19 244.53 128.98 114.01" style="fill: none;stroke: #111026;stroke-miterlimit: 10"/>
    <polygon points="127 108.34 67.38 257.73 231.21 238.86 127 108.34" style="fill: none;stroke: #111026;stroke-miterlimit: 10"/>
    <polygon points="125.01 102.67 65.4 252.06 229.22 233.19 125.01 102.67" style="fill: none;stroke: #111026;stroke-miterlimit: 10"/>
    <polygon points="123.03 97 63.41 246.39 227.24 227.52 123.03 97" style="fill: none;stroke: #111026;stroke-miterlimit: 10"/>
    <polygon points="121.04 91.33 61.43 240.72 225.25 221.85 121.04 91.33" style="fill: none;stroke: #111026;stroke-miterlimit: 10"/>
    <polygon points="119.06 85.67 59.44 235.05 223.27 216.19 119.06 85.67" style="fill: none;stroke: #111026;stroke-miterlimit: 10"/>
    <polygon points="117.07 80 57.46 229.38 221.29 210.52 117.07 80" style="fill: none;stroke: #111026;stroke-miterlimit: 10"/>
    <polygon points="115.09 74.33 55.48 223.71 219.3 204.85 115.09 74.33" style="fill: none;stroke: #111026;stroke-miterlimit: 10"/>
    <polygon points="113.11 68.66 53.49 218.04 217.32 199.18 113.11 68.66" style="fill: none;stroke: #111026;stroke-miterlimit: 10"/>
    <polygon points="111.12 62.99 51.51 212.37 215.33 193.51 111.12 62.99" style="fill: none;stroke: #111026;stroke-miterlimit: 10"/>
    <polygon points="109.14 57.32 49.52 206.7 213.35 187.84 109.14 57.32" style="fill: none;stroke: #111026;stroke-miterlimit: 10"/>
    <polygon points="107.15 51.65 47.54 201.03 211.37 182.17 107.15 51.65" style="fill: none;stroke: #111026;stroke-miterlimit: 10"/>
    <polygon points="105.17 45.98 45.55 195.36 209.38 176.5 105.17 45.98" style="fill: none;stroke: #111026;stroke-miterlimit: 10"/>
    <polygon points="103.18 40.31 43.57 189.69 207.4 170.83 103.18 40.31" style="fill: none;stroke: #111026;stroke-miterlimit: 10"/>
    <polygon points="101.2 34.64 41.59 184.02 205.41 165.16 101.2 34.64" style="fill: none;stroke: #111026;stroke-miterlimit: 10"/>
    <polygon points="99.22 28.97 39.6 178.35 203.43 159.49 99.22 28.97" style="fill: none;stroke: #111026;stroke-miterlimit: 10"/>
    <polygon points="97.23 23.3 37.62 172.69 201.44 153.82 97.23 23.3" style="fill: none;stroke: #111026;stroke-miterlimit: 10"/>
    <polygon points="95.25 17.63 35.63 167.02 199.46 148.15 95.25 17.63" style="fill: none;stroke: #111026;stroke-miterlimit: 10"/>
    <polygon points="93.26 11.96 33.65 161.35 197.47 142.49 93.26 11.96" style="fill: none;stroke: #111026;stroke-miterlimit: 10"/>
</svg>
